<?xml version="1.0" encoding="utf-8" standalone="no"?>
<!DOCTYPE svg PUBLIC "-//W3C//DTD SVG 1.1//EN"
  "http://www.w3.org/Graphics/SVG/1.1/DTD/svg11.dtd">
<svg xmlns:xlink="http://www.w3.org/1999/xlink" width="374.722497pt" height="194.171262pt" viewBox="0 0 374.722497 194.171262" xmlns="http://www.w3.org/2000/svg" version="1.1">
 <metadata>
  <rdf:RDF xmlns:dc="http://purl.org/dc/elements/1.1/" xmlns:cc="http://creativecommons.org/ns#" xmlns:rdf="http://www.w3.org/1999/02/22-rdf-syntax-ns#">
   <cc:Work>
    <dc:type rdf:resource="http://purl.org/dc/dcmitype/StillImage"/>
    <dc:date>2026-09-30T01:40:14.112072</dc:date>
    <dc:format>image/svg+xml</dc:format>
    <dc:creator>
     <cc:Agent>
      <dc:title>Matplotlib v3.8.4, https://matplotlib.org/</dc:title>
     </cc:Agent>
    </dc:creator>
   </cc:Work>
  </rdf:RDF>
 </metadata>
 <defs>
  <style type="text/css">*{stroke-linejoin: round; stroke-linecap: butt}</style>
 </defs>
 <g id="figure_1">
  <g id="patch_1">
   <path d="M -0 194.171262 
L 374.722497 194.171262 
L 374.722497 0 
L -0 0 
z
" style="fill: #ffffff"/>
  </g>
  <g id="axes_1">
   <g id="patch_2">
    <path d="M 54.287938 139.64976 
L 198.956097 139.64976 
L 198.956097 50.93424 
L 54.287938 50.93424 
z
" style="fill: #ffffff"/>
   </g>
   <g id="matplotlib.axis_1">
    <g id="xtick_1">
     <g id="line2d_1">
      <path d="M 54.287938 139.64976 
L 54.287938 50.93424 
" clip-path="url(#p70a9bb1949)" style="fill: none; stroke: #e6ecee; stroke-width: 0.6; stroke-linecap: square"/>
     </g>
     <g id="line2d_2">
      <defs>
       <path id="m6cc272dbd3" d="M 0 0 
L 0 2 
" style="stroke: #5b6a73; stroke-width: 0.8"/>
      </defs>
      <g>
       <use xlink:href="#m6cc272dbd3" x="54.287938" y="139.64976" style="fill: #5b6a73; stroke: #5b6a73; stroke-width: 0.8"/>
      </g>
     </g>
     <g id="text_1">
      <text style="fill: #5b6a73; font: 8.2px 'DejaVu Sans', sans-serif; text-anchor: middle" x="54.287938" y="150.880479" transform="rotate(-0 54.287938 150.880479)">0</text>
     </g>
    </g>
    <g id="xtick_2">
     <g id="line2d_3">
      <path d="M 126.622017 139.64976 
L 126.622017 50.93424 
" clip-path="url(#p70a9bb1949)" style="fill: none; stroke: #e6ecee; stroke-width: 0.6; stroke-linecap: square"/>
     </g>
     <g id="line2d_4">
      <g>
       <use xlink:href="#m6cc272dbd3" x="126.622017" y="139.64976" style="fill: #5b6a73; stroke: #5b6a73; stroke-width: 0.8"/>
      </g>
     </g>
     <g id="text_2">
      <text style="fill: #5b6a73; font: 8.2px 'DejaVu Sans', sans-serif; text-anchor: middle" x="126.622017" y="150.880479" transform="rotate(-0 126.622017 150.880479)">30</text>
     </g>
    </g>
    <g id="xtick_3">
     <g id="line2d_5">
      <path d="M 198.956097 139.64976 
L 198.956097 50.93424 
" clip-path="url(#p70a9bb1949)" style="fill: none; stroke: #e6ecee; stroke-width: 0.6; stroke-linecap: square"/>
     </g>
     <g id="line2d_6">
      <g>
       <use xlink:href="#m6cc272dbd3" x="198.956097" y="139.64976" style="fill: #5b6a73; stroke: #5b6a73; stroke-width: 0.8"/>
      </g>
     </g>
     <g id="text_3">
      <text style="fill: #5b6a73; font: 8.2px 'DejaVu Sans', sans-serif; text-anchor: middle" x="198.956097" y="150.880479" transform="rotate(-0 198.956097 150.880479)">60</text>
     </g>
    </g>
   </g>
   <g id="matplotlib.axis_2">
    <g id="ytick_1">
     <g id="line2d_7"/>
     <g id="text_4">
      <text style="fill: #5b6a73; font: 8.9px 'DejaVu Sans', sans-serif; text-anchor: end" x="49.287938" y="67.869305" transform="rotate(-0 49.287938 67.869305)">Support</text>
     </g>
    </g>
    <g id="ytick_2">
     <g id="line2d_8"/>
     <g id="text_5">
      <text style="fill: #5b6a73; font: 8.9px 'DejaVu Sans', sans-serif; text-anchor: end" x="49.287938" y="98.673305" transform="rotate(-0 49.287938 98.673305)">Contradict</text>
     </g>
    </g>
    <g id="ytick_3">
     <g id="line2d_9"/>
     <g id="text_6">
      <text style="fill: #5b6a73; font: 8.9px 'DejaVu Sans', sans-serif; text-anchor: end" x="49.287938" y="129.477305" transform="rotate(-0 49.287938 129.477305)">No info</text>
     </g>
    </g>
   </g>
   <g id="line2d_10">
    <path d="M 162.789058 64.488 
L 182.078146 64.488 
" clip-path="url(#p70a9bb1949)" style="fill: none; stroke: #9eaeb5; stroke-width: 1.55; stroke-linecap: round"/>
   </g>
   <g id="line2d_11">
    <path d="M 66.343618 95.292 
L 97.688386 95.292 
" clip-path="url(#p70a9bb1949)" style="fill: none; stroke: #9eaeb5; stroke-width: 1.55; stroke-linecap: round"/>
   </g>
   <g id="line2d_12">
    <path d="M 184.489282 126.096 
L 126.622017 126.096 
" clip-path="url(#p70a9bb1949)" style="fill: none; stroke: #9eaeb5; stroke-width: 1.55; stroke-linecap: round"/>
   </g>
   <g id="patch_3">
    <path d="M 54.287938 139.64976 
L 198.956097 139.64976 
" style="fill: none; stroke: #d8e1e5; stroke-width: 0.8; stroke-linejoin: miter; stroke-linecap: square"/>
   </g>
   <g id="PathCollection_1">
    <defs>
     <path id="m6612a6ea7d" d="M 0 3.162278 
C 0.838646 3.162278 1.643056 2.82908 2.236068 2.236068 
C 2.82908 1.643056 3.162278 0.838646 3.162278 0 
C 3.162278 -0.838646 2.82908 -1.643056 2.236068 -2.236068 
C 1.643056 -2.82908 0.838646 -3.162278 0 -3.162278 
C -0.838646 -3.162278 -1.643056 -2.82908 -2.236068 -2.236068 
C -2.82908 -1.643056 -3.162278 -0.838646 -3.162278 0 
C -3.162278 0.838646 -2.82908 1.643056 -2.236068 2.236068 
C -1.643056 2.82908 -0.838646 3.162278 0 3.162278 
z
" style="stroke: #ffffff; stroke-width: 0.6"/>
    </defs>
    <g clip-path="url(#p70a9bb1949)">
     <use xlink:href="#m6612a6ea7d" x="162.789058" y="64.488" style="fill: #244e63; stroke: #ffffff; stroke-width: 0.6"/>
    </g>
   </g>
   <g id="PathCollection_2">
    <g clip-path="url(#p70a9bb1949)">
     <use xlink:href="#m6612a6ea7d" x="66.343618" y="95.292" style="fill: #244e63; stroke: #ffffff; stroke-width: 0.6"/>
    </g>
   </g>
   <g id="PathCollection_3">
    <g clip-path="url(#p70a9bb1949)">
     <use xlink:href="#m6612a6ea7d" x="184.489282" y="126.096" style="fill: #244e63; stroke: #ffffff; stroke-width: 0.6"/>
    </g>
   </g>
   <g id="PathCollection_4">
    <defs>
     <path id="m4b0400d4da" d="M 0 3.162278 
C 0.838646 3.162278 1.643056 2.82908 2.236068 2.236068 
C 2.82908 1.643056 3.162278 0.838646 3.162278 0 
C 3.162278 -0.838646 2.82908 -1.643056 2.236068 -2.236068 
C 1.643056 -2.82908 0.838646 -3.162278 0 -3.162278 
C -0.838646 -3.162278 -1.643056 -2.82908 -2.236068 -2.236068 
C -2.82908 -1.643056 -3.162278 -0.838646 -3.162278 0 
C -3.162278 0.838646 -2.82908 1.643056 -2.236068 2.236068 
C -1.643056 2.82908 -0.838646 3.162278 0 3.162278 
z
" style="stroke: #ffffff; stroke-width: 0.6"/>
    </defs>
    <g clip-path="url(#p70a9bb1949)">
     <use xlink:href="#m4b0400d4da" x="182.078146" y="64.488" style="fill: #c66c47; stroke: #ffffff; stroke-width: 0.6"/>
    </g>
   </g>
   <g id="PathCollection_5">
    <g clip-path="url(#p70a9bb1949)">
     <use xlink:href="#m4b0400d4da" x="97.688386" y="95.292" style="fill: #c66c47; stroke: #ffffff; stroke-width: 0.6"/>
    </g>
   </g>
   <g id="PathCollection_6">
    <g clip-path="url(#p70a9bb1949)">
     <use xlink:href="#m4b0400d4da" x="126.622017" y="126.096" style="fill: #c66c47; stroke: #ffffff; stroke-width: 0.6"/>
    </g>
   </g>
  </g>
  <g id="axes_2">
   <g id="patch_4">
    <path d="M 283.714656 80.083522 
L 308.382499 80.083522 
L 308.382499 55.415678 
L 283.714656 55.415678 
z
" clip-path="url(#pb9353ca0f6)" style="fill: #e9f0f2; stroke: #ffffff; stroke-width: 0.6; stroke-linejoin: miter"/>
   </g>
   <g id="patch_5">
    <path d="M 310.822176 80.083522 
L 335.490019 80.083522 
L 335.490019 55.415678 
L 310.822176 55.415678 
z
" clip-path="url(#pb9353ca0f6)" style="fill: #f5f7f7; stroke: #ffffff; stroke-width: 0.6; stroke-linejoin: miter"/>
   </g>
   <g id="patch_6">
    <path d="M 337.929696 80.083522 
L 362.597539 80.083522 
L 362.597539 55.415678 
L 337.929696 55.415678 
z
" clip-path="url(#pb9353ca0f6)" style="fill: #f5f7f7; stroke: #ffffff; stroke-width: 0.6; stroke-linejoin: miter"/>
   </g>
   <g id="patch_7">
    <path d="M 283.714656 107.191042 
L 308.382499 107.191042 
L 308.382499 82.523198 
L 283.714656 82.523198 
z
" clip-path="url(#pb9353ca0f6)" style="fill: #f5f7f7; stroke: #ffffff; stroke-width: 0.6; stroke-linejoin: miter"/>
   </g>
   <g id="patch_8">
    <path d="M 310.822176 107.191042 
L 335.490019 107.191042 
L 335.490019 82.523198 
L 310.822176 82.523198 
z
" clip-path="url(#pb9353ca0f6)" style="fill: #e9f0f2; stroke: #ffffff; stroke-width: 0.6; stroke-linejoin: miter"/>
   </g>
   <g id="patch_9">
    <path d="M 337.929696 107.191042 
L 362.597539 107.191042 
L 362.597539 82.523198 
L 337.929696 82.523198 
z
" clip-path="url(#pb9353ca0f6)" style="fill: #f5f7f7; stroke: #ffffff; stroke-width: 0.6; stroke-linejoin: miter"/>
   </g>
   <g id="patch_10">
    <path d="M 283.714656 134.298562 
L 308.382499 134.298562 
L 308.382499 109.630718 
L 283.714656 109.630718 
z
" clip-path="url(#pb9353ca0f6)" style="fill: #f7e8e1; stroke: #ffffff; stroke-width: 0.6; stroke-linejoin: miter"/>
   </g>
   <g id="patch_11">
    <path d="M 310.822176 134.298562 
L 335.490019 134.298562 
L 335.490019 109.630718 
L 310.822176 109.630718 
z
" clip-path="url(#pb9353ca0f6)" style="fill: #f7e8e1; stroke: #ffffff; stroke-width: 0.6; stroke-linejoin: miter"/>
   </g>
   <g id="patch_12">
    <path d="M 337.929696 134.298562 
L 362.597539 134.298562 
L 362.597539 109.630718 
L 337.929696 109.630718 
z
" clip-path="url(#pb9353ca0f6)" style="fill: #e9f0f2; stroke: #ffffff; stroke-width: 0.6; stroke-linejoin: miter"/>
   </g>
   <g id="text_7">
    <text style="fill: #24333d; font: 700 10.3px 'DejaVu Sans', sans-serif; text-anchor: middle" x="296.048577" y="70.320681" transform="rotate(-0 296.048577 70.320681)">67</text>
   </g>
   <g id="text_8">
    <text style="fill: #a0adb3; font: 10.3px 'DejaVu Sans', sans-serif; text-anchor: middle" x="323.156097" y="70.320681" transform="rotate(-0 323.156097 70.320681)">0</text>
   </g>
   <g id="text_9">
    <text style="fill: #a0adb3; font: 10.3px 'DejaVu Sans', sans-serif; text-anchor: middle" x="350.263617" y="70.320681" transform="rotate(-0 350.263617 70.320681)">0</text>
   </g>
   <g id="text_10">
    <text style="fill: #a0adb3; font: 10.3px 'DejaVu Sans', sans-serif; text-anchor: middle" x="296.048577" y="97.428201" transform="rotate(-0 296.048577 97.428201)">0</text>
   </g>
   <g id="text_11">
    <text style="fill: #24333d; font: 700 10.3px 'DejaVu Sans', sans-serif; text-anchor: middle" x="323.156097" y="97.428201" transform="rotate(-0 323.156097 97.428201)">6</text>
   </g>
   <g id="text_12">
    <text style="fill: #a0adb3; font: 10.3px 'DejaVu Sans', sans-serif; text-anchor: middle" x="350.263617" y="97.428201" transform="rotate(-0 350.263617 97.428201)">0</text>
   </g>
   <g id="text_13">
    <text style="fill: #c66c47; font: 700 10.3px 'DejaVu Sans', sans-serif; text-anchor: middle" x="296.048577" y="124.535721" transform="rotate(-0 296.048577 124.535721)">42</text>
   </g>
   <g id="text_14">
    <text style="fill: #c66c47; font: 700 10.3px 'DejaVu Sans', sans-serif; text-anchor: middle" x="323.156097" y="124.535721" transform="rotate(-0 323.156097 124.535721)">18</text>
   </g>
   <g id="text_15">
    <text style="fill: #24333d; font: 700 10.3px 'DejaVu Sans', sans-serif; text-anchor: middle" x="350.263617" y="124.535721" transform="rotate(-0 350.263617 124.535721)">47</text>
   </g>
  </g>
  <g id="line2d_13">
   <path d="M 10.172098 30.06 
L 371.842497 30.06 
" style="fill: none; stroke: #d8e1e5; stroke-width: 0.8; stroke-linecap: square"/>
  </g>
  <g id="line2d_14">
   <defs>
    <path id="m3146da118c" d="M 0 2.25 
C 0.596707 2.25 1.169055 2.012926 1.59099 1.59099 
C 2.012926 1.169055 2.25 0.596707 2.25 0 
C 2.25 -0.596707 2.012926 -1.169055 1.59099 -1.59099 
C 1.169055 -2.012926 0.596707 -2.25 0 -2.25 
C -0.596707 -2.25 -1.169055 -2.012926 -1.59099 -1.59099 
C -2.012926 -1.169055 -2.25 -0.596707 -2.25 0 
C -2.25 0.596707 -2.012926 1.169055 -1.59099 1.59099 
C -1.169055 2.012926 -0.596707 2.25 0 2.25 
z
" style="stroke: #244e63"/>
   </defs>
   <g>
    <use xlink:href="#m3146da118c" x="85.685697" y="47.02032" style="fill: #244e63; stroke: #244e63"/>
   </g>
  </g>
  <g id="line2d_15">
   <defs>
    <path id="m9d6da27115" d="M 0 2.25 
C 0.596707 2.25 1.169055 2.012926 1.59099 1.59099 
C 2.012926 1.169055 2.25 0.596707 2.25 0 
C 2.25 -0.596707 2.012926 -1.169055 1.59099 -1.59099 
C 1.169055 -2.012926 0.596707 -2.25 0 -2.25 
C -0.596707 -2.25 -1.169055 -2.012926 -1.59099 -1.59099 
C -2.012926 -1.169055 -2.25 -0.596707 -2.25 0 
C -2.25 0.596707 -2.012926 1.169055 -1.59099 1.59099 
C -1.169055 2.012926 -0.596707 2.25 0 2.25 
z
" style="stroke: #c66c47"/>
   </defs>
   <g>
    <use xlink:href="#m9d6da27115" x="119.468097" y="47.02032" style="fill: #c66c47; stroke: #c66c47"/>
   </g>
  </g>
  <g id="line2d_16">
   <path d="M 10.172098 159.87168 
L 371.842497 159.87168 
" style="fill: none; stroke: #d8e1e5; stroke-width: 0.8; stroke-linecap: square"/>
  </g>
  <g id="text_16">
   <text style="fill: #5b6a73; font: 700 9.4px 'DejaVu Sans', sans-serif; text-anchor: start" x="10.172098" y="10.022531" transform="rotate(-0 10.172098 10.022531)">QWEN3 8B  /  180 CITED CLAIM–ABSTRACT PAIRS</text>
  </g>
  <g id="text_17">
   <text style="fill: #24333d; font: 700 11.5px 'DejaVu Sans', sans-serif; text-anchor: start" x="10.172098" y="23.577403" transform="rotate(-0 10.172098 23.577403)">Near-flat accuracy, 60 changed semantic answers</text>
  </g>
  <g id="text_18">
   <text style="fill: #24333d; font: 700 9.2px 'DejaVu Sans', sans-serif; text-anchor: start" x="10.172098" y="42.486562" transform="rotate(-0 10.172098 42.486562)">A  Correct / 60 by reference class</text>
  </g>
  <g id="text_19">
   <text style="fill: #24333d; font: 700 9.2px 'DejaVu Sans', sans-serif; text-anchor: start" x="242.674498" y="42.486562" transform="rotate(-0 242.674498 42.486562)">B  Prediction transitions</text>
  </g>
  <g id="text_20">
   <text style="fill: #24333d; font: 700 9px 'DejaVu Sans', sans-serif; text-anchor: start" x="203.327937" y="66.898957" transform="rotate(-0 203.327937 66.898957)">45→53</text>
  </g>
  <g id="text_21">
   <text style="fill: #24333d; font: 700 9px 'DejaVu Sans', sans-serif; text-anchor: start" x="203.327937" y="97.557997" transform="rotate(-0 203.327937 97.557997)">5→18</text>
  </g>
  <g id="text_22">
   <text style="fill: #24333d; font: 700 9px 'DejaVu Sans', sans-serif; text-anchor: start" x="203.327937" y="128.217037" transform="rotate(-0 203.327937 128.217037)">54→30</text>
  </g>
  <g id="text_23">
   <text style="fill: #5b6a73; font: 8.3px 'DejaVu Sans', sans-serif; text-anchor: start" x="91.647297" y="49.310601" transform="rotate(-0 91.647297 49.310601)">base</text>
  </g>
  <g id="text_24">
   <text style="fill: #5b6a73; font: 8.3px 'DejaVu Sans', sans-serif; text-anchor: start" x="125.429697" y="49.310601" transform="rotate(-0 125.429697 49.310601)">reversed</text>
  </g>
  <g id="text_25">
   <text style="fill: #5b6a73; font: 8.6px 'DejaVu Sans', sans-serif; text-anchor: end" x="271.687617" y="69.832742" transform="rotate(-0 271.687617 69.832742)">S</text>
  </g>
  <g id="text_26">
   <text style="fill: #5b6a73; font: 8.6px 'DejaVu Sans', sans-serif; text-anchor: end" x="271.687617" y="96.795302" transform="rotate(-0 271.687617 96.795302)">C</text>
  </g>
  <g id="text_27">
   <text style="fill: #5b6a73; font: 8.6px 'DejaVu Sans', sans-serif; text-anchor: end" x="271.687617" y="123.757862" transform="rotate(-0 271.687617 123.757862)">N</text>
  </g>
  <g id="text_28">
   <text style="fill: #5b6a73; font: 8.6px 'DejaVu Sans', sans-serif; text-anchor: middle" x="293.944257" y="146.836736" transform="rotate(-0 293.944257 146.836736)">S</text>
  </g>
  <g id="text_29">
   <text style="fill: #5b6a73; font: 8.6px 'DejaVu Sans', sans-serif; text-anchor: middle" x="322.957377" y="146.836736" transform="rotate(-0 322.957377 146.836736)">C</text>
  </g>
  <g id="text_30">
   <text style="fill: #5b6a73; font: 8.6px 'DejaVu Sans', sans-serif; text-anchor: middle" x="351.970497" y="146.836736" transform="rotate(-0 351.970497 146.836736)">N</text>
  </g>
  <g id="text_31">
   <text style="fill: #5b6a73; font: 8px 'DejaVu Sans', sans-serif; text-anchor: middle" x="320.175297" y="51.8371" transform="rotate(-0 320.175297 51.8371)">base → reverse</text>
  </g>
  <g id="text_32">
   <text style="fill: #24333d; font: 700 8.8px 'DejaVu Sans', sans-serif; text-anchor: start" x="10.172098" y="174.168705" transform="rotate(-0 10.172098 174.168705)">Total correct 104→101/180; Δ −1.7 pp (paired 95% CI -7.8 to +4.4)</text>
  </g>
  <g id="text_33">
   <text style="fill: #5b6a73; font: 8.2px 'DejaVu Sans', sans-serif; text-anchor: start" x="10.172098" y="189.585919" transform="rotate(-0 10.172098 189.585919)">60/180 reversal flips vs 0/180 exact-repeat flips. S/C/N: support/contradict/no-info.</text>
  </g>
 </g>
 <defs>
  <clipPath id="p70a9bb1949">
   <rect x="54.287938" y="50.93424" width="144.66816" height="88.71552"/>
  </clipPath>
  <clipPath id="pb9353ca0f6">
   <rect x="282.494817" y="54.19584" width="81.32256" height="81.32256"/>
  </clipPath>
 </defs>
</svg>
