<?xml version="1.0" encoding="utf-8" standalone="no"?>
<!DOCTYPE svg PUBLIC "-//W3C//DTD SVG 1.1//EN"
  "http://www.w3.org/Graphics/SVG/1.1/DTD/svg11.dtd">
<svg xmlns:xlink="http://www.w3.org/1999/xlink" width="392.4pt" height="558pt" viewBox="0 0 392.4 558" xmlns="http://www.w3.org/2000/svg" version="1.1">
 <metadata>
  <rdf:RDF xmlns:dc="http://purl.org/dc/elements/1.1/" xmlns:cc="http://creativecommons.org/ns#" xmlns:rdf="http://www.w3.org/1999/02/22-rdf-syntax-ns#">
   <cc:Work>
    <dc:type rdf:resource="http://purl.org/dc/dcmitype/StillImage"/>
    <dc:date>2026-09-30T02:45:26.694431</dc:date>
    <dc:format>image/svg+xml</dc:format>
    <dc:creator>
     <cc:Agent>
      <dc:title>Matplotlib v3.8.4, https://matplotlib.org/</dc:title>
     </cc:Agent>
    </dc:creator>
   </cc:Work>
  </rdf:RDF>
 </metadata>
 <defs>
  <style type="text/css">*{stroke-linejoin: round; stroke-linecap: butt}</style>
 </defs>
 <g id="figure_1">
  <g id="patch_1">
   <path d="M 0 558 
L 392.4 558 
L 392.4 0 
L 0 0 
z
" style="fill: #ffffff"/>
  </g>
  <g id="axes_1">
   <g id="patch_2">
    <path d="M 14.1264 87.048 
L 379.8432 87.048 
L 379.8432 75.888 
L 14.1264 75.888 
z
" clip-path="url(#pf641c1b8a6)" style="fill: #f4f7f8"/>
   </g>
   <g id="patch_3">
    <path d="M 14.1264 168.516 
L 379.8432 168.516 
L 379.8432 157.356 
L 14.1264 157.356 
z
" clip-path="url(#pf641c1b8a6)" style="fill: #f4f7f8"/>
   </g>
   <g id="patch_4">
    <path d="M 14.1264 249.984 
L 379.8432 249.984 
L 379.8432 238.824 
L 14.1264 238.824 
z
" clip-path="url(#pf641c1b8a6)" style="fill: #f4f7f8"/>
   </g>
   <g id="patch_5">
    <path d="M 14.1264 331.452 
L 379.8432 331.452 
L 379.8432 320.292 
L 14.1264 320.292 
z
" clip-path="url(#pf641c1b8a6)" style="fill: #f4f7f8"/>
   </g>
   <g id="patch_6">
    <path d="M 14.1264 392.832 
L 379.8432 392.832 
L 379.8432 381.672 
L 14.1264 381.672 
z
" clip-path="url(#pf641c1b8a6)" style="fill: #f4f7f8"/>
   </g>
   <g id="patch_7">
    <path d="M 14.1264 87.048 
L 15.696 87.048 
L 15.696 75.888 
L 14.1264 75.888 
z
" clip-path="url(#pf641c1b8a6)" style="fill: #235f7a"/>
   </g>
   <g id="patch_8">
    <path d="M 14.1264 168.516 
L 15.696 168.516 
L 15.696 157.356 
L 14.1264 157.356 
z
" clip-path="url(#pf641c1b8a6)" style="fill: #235f7a"/>
   </g>
   <g id="patch_9">
    <path d="M 14.1264 249.984 
L 15.696 249.984 
L 15.696 238.824 
L 14.1264 238.824 
z
" clip-path="url(#pf641c1b8a6)" style="fill: #235f7a"/>
   </g>
   <g id="patch_10">
    <path d="M 14.1264 331.452 
L 15.696 331.452 
L 15.696 320.292 
L 14.1264 320.292 
z
" clip-path="url(#pf641c1b8a6)" style="fill: #235f7a"/>
   </g>
   <g id="patch_11">
    <path d="M 14.1264 392.832 
L 15.696 392.832 
L 15.696 381.672 
L 14.1264 381.672 
z
" clip-path="url(#pf641c1b8a6)" style="fill: #235f7a"/>
   </g>
   <g id="line2d_1">
    <path d="M 14.1264 68.076 
L 379.8432 68.076 
" clip-path="url(#pf641c1b8a6)" style="fill: none; stroke: #26343e; stroke-width: 0.75; stroke-linecap: square"/>
   </g>
   <g id="PathCollection_1">
    <path d="M 199.22148 99.382051 
C 199.680825 99.382051 200.121419 99.199551 200.446225 98.874745 
C 200.771031 98.549939 200.953531 98.109345 200.953531 97.65 
C 200.953531 97.190655 200.771031 96.750061 200.446225 96.425255 
C 200.121419 96.100449 199.680825 95.917949 199.22148 95.917949 
C 198.762135 95.917949 198.321541 96.100449 197.996735 96.425255 
C 197.671929 96.750061 197.489429 97.190655 197.489429 97.65 
C 197.489429 98.109345 197.671929 98.549939 197.996735 98.874745 
C 198.321541 99.199551 198.762135 99.382051 199.22148 99.382051 
z
" clip-path="url(#pf641c1b8a6)" style="fill: #d6e0e4"/>
   </g>
   <g id="PathCollection_2">
    <path d="M 222.25536 99.382051 
C 222.714705 99.382051 223.155299 99.199551 223.480105 98.874745 
C 223.804911 98.549939 223.987411 98.109345 223.987411 97.65 
C 223.987411 97.190655 223.804911 96.750061 223.480105 96.425255 
C 223.155299 96.100449 222.714705 95.917949 222.25536 95.917949 
C 221.796015 95.917949 221.355421 96.100449 221.030615 96.425255 
C 220.705809 96.750061 220.523309 97.190655 220.523309 97.65 
C 220.523309 98.109345 220.705809 98.549939 221.030615 98.874745 
C 221.355421 99.199551 221.796015 99.382051 222.25536 99.382051 
z
" clip-path="url(#pf641c1b8a6)" style="fill: #d6e0e4"/>
   </g>
   <g id="PathCollection_3">
    <path d="M 245.28924 99.382051 
C 245.748585 99.382051 246.189179 99.199551 246.513985 98.874745 
C 246.838791 98.549939 247.021291 98.109345 247.021291 97.65 
C 247.021291 97.190655 246.838791 96.750061 246.513985 96.425255 
C 246.189179 96.100449 245.748585 95.917949 245.28924 95.917949 
C 244.829895 95.917949 244.389301 96.100449 244.064495 96.425255 
C 243.739689 96.750061 243.557189 97.190655 243.557189 97.65 
C 243.557189 98.109345 243.739689 98.549939 244.064495 98.874745 
C 244.389301 99.199551 244.829895 99.382051 245.28924 99.382051 
z
" clip-path="url(#pf641c1b8a6)" style="fill: #d6e0e4"/>
   </g>
   <g id="PathCollection_4">
    <path d="M 268.32312 99.382051 
C 268.782465 99.382051 269.223059 99.199551 269.547865 98.874745 
C 269.872671 98.549939 270.055171 98.109345 270.055171 97.65 
C 270.055171 97.190655 269.872671 96.750061 269.547865 96.425255 
C 269.223059 96.100449 268.782465 95.917949 268.32312 95.917949 
C 267.863775 95.917949 267.423181 96.100449 267.098375 96.425255 
C 266.773569 96.750061 266.591069 97.190655 266.591069 97.65 
C 266.591069 98.109345 266.773569 98.549939 267.098375 98.874745 
C 267.423181 99.199551 267.863775 99.382051 268.32312 99.382051 
z
" clip-path="url(#pf641c1b8a6)" style="fill: #d6e0e4"/>
   </g>
   <g id="PathCollection_5">
    <path d="M 291.357 99.382051 
C 291.816345 99.382051 292.256939 99.199551 292.581745 98.874745 
C 292.906551 98.549939 293.089051 98.109345 293.089051 97.65 
C 293.089051 97.190655 292.906551 96.750061 292.581745 96.425255 
C 292.256939 96.100449 291.816345 95.917949 291.357 95.917949 
C 290.897655 95.917949 290.457061 96.100449 290.132255 96.425255 
C 289.807449 96.750061 289.624949 97.190655 289.624949 97.65 
C 289.624949 98.109345 289.807449 98.549939 290.132255 98.874745 
C 290.457061 99.199551 290.897655 99.382051 291.357 99.382051 
z
" clip-path="url(#pf641c1b8a6)" style="fill: #d6e0e4"/>
   </g>
   <g id="PathCollection_6">
    <path d="M 314.39088 99.382051 
C 314.850225 99.382051 315.290819 99.199551 315.615625 98.874745 
C 315.940431 98.549939 316.122931 98.109345 316.122931 97.65 
C 316.122931 97.190655 315.940431 96.750061 315.615625 96.425255 
C 315.290819 96.100449 314.850225 95.917949 314.39088 95.917949 
C 313.931535 95.917949 313.490941 96.100449 313.166135 96.425255 
C 312.841329 96.750061 312.658829 97.190655 312.658829 97.65 
C 312.658829 98.109345 312.841329 98.549939 313.166135 98.874745 
C 313.490941 99.199551 313.931535 99.382051 314.39088 99.382051 
z
" clip-path="url(#pf641c1b8a6)" style="fill: #d6e0e4"/>
   </g>
   <g id="PathCollection_7">
    <path d="M 337.42476 99.382051 
C 337.884105 99.382051 338.324699 99.199551 338.649505 98.874745 
C 338.974311 98.549939 339.156811 98.109345 339.156811 97.65 
C 339.156811 97.190655 338.974311 96.750061 338.649505 96.425255 
C 338.324699 96.100449 337.884105 95.917949 337.42476 95.917949 
C 336.965415 95.917949 336.524821 96.100449 336.200015 96.425255 
C 335.875209 96.750061 335.692709 97.190655 335.692709 97.65 
C 335.692709 98.109345 335.875209 98.549939 336.200015 98.874745 
C 336.524821 99.199551 336.965415 99.382051 337.42476 99.382051 
z
" clip-path="url(#pf641c1b8a6)" style="fill: #d6e0e4"/>
   </g>
   <g id="PathCollection_8">
    <path d="M 199.22148 119.470051 
C 199.680825 119.470051 200.121419 119.287551 200.446225 118.962745 
C 200.771031 118.637939 200.953531 118.197345 200.953531 117.738 
C 200.953531 117.278655 200.771031 116.838061 200.446225 116.513255 
C 200.121419 116.188449 199.680825 116.005949 199.22148 116.005949 
C 198.762135 116.005949 198.321541 116.188449 197.996735 116.513255 
C 197.671929 116.838061 197.489429 117.278655 197.489429 117.738 
C 197.489429 118.197345 197.671929 118.637939 197.996735 118.962745 
C 198.321541 119.287551 198.762135 119.470051 199.22148 119.470051 
z
" clip-path="url(#pf641c1b8a6)" style="fill: #d6e0e4"/>
   </g>
   <g id="PathCollection_9">
    <path d="M 222.25536 119.470051 
C 222.714705 119.470051 223.155299 119.287551 223.480105 118.962745 
C 223.804911 118.637939 223.987411 118.197345 223.987411 117.738 
C 223.987411 117.278655 223.804911 116.838061 223.480105 116.513255 
C 223.155299 116.188449 222.714705 116.005949 222.25536 116.005949 
C 221.796015 116.005949 221.355421 116.188449 221.030615 116.513255 
C 220.705809 116.838061 220.523309 117.278655 220.523309 117.738 
C 220.523309 118.197345 220.705809 118.637939 221.030615 118.962745 
C 221.355421 119.287551 221.796015 119.470051 222.25536 119.470051 
z
" clip-path="url(#pf641c1b8a6)" style="fill: #d6e0e4"/>
   </g>
   <g id="PathCollection_10">
    <path d="M 245.28924 119.470051 
C 245.748585 119.470051 246.189179 119.287551 246.513985 118.962745 
C 246.838791 118.637939 247.021291 118.197345 247.021291 117.738 
C 247.021291 117.278655 246.838791 116.838061 246.513985 116.513255 
C 246.189179 116.188449 245.748585 116.005949 245.28924 116.005949 
C 244.829895 116.005949 244.389301 116.188449 244.064495 116.513255 
C 243.739689 116.838061 243.557189 117.278655 243.557189 117.738 
C 243.557189 118.197345 243.739689 118.637939 244.064495 118.962745 
C 244.389301 119.287551 244.829895 119.470051 245.28924 119.470051 
z
" clip-path="url(#pf641c1b8a6)" style="fill: #d6e0e4"/>
   </g>
   <g id="PathCollection_11">
    <path d="M 268.32312 119.470051 
C 268.782465 119.470051 269.223059 119.287551 269.547865 118.962745 
C 269.872671 118.637939 270.055171 118.197345 270.055171 117.738 
C 270.055171 117.278655 269.872671 116.838061 269.547865 116.513255 
C 269.223059 116.188449 268.782465 116.005949 268.32312 116.005949 
C 267.863775 116.005949 267.423181 116.188449 267.098375 116.513255 
C 266.773569 116.838061 266.591069 117.278655 266.591069 117.738 
C 266.591069 118.197345 266.773569 118.637939 267.098375 118.962745 
C 267.423181 119.287551 267.863775 119.470051 268.32312 119.470051 
z
" clip-path="url(#pf641c1b8a6)" style="fill: #d6e0e4"/>
   </g>
   <g id="PathCollection_12">
    <path d="M 291.357 119.470051 
C 291.816345 119.470051 292.256939 119.287551 292.581745 118.962745 
C 292.906551 118.637939 293.089051 118.197345 293.089051 117.738 
C 293.089051 117.278655 292.906551 116.838061 292.581745 116.513255 
C 292.256939 116.188449 291.816345 116.005949 291.357 116.005949 
C 290.897655 116.005949 290.457061 116.188449 290.132255 116.513255 
C 289.807449 116.838061 289.624949 117.278655 289.624949 117.738 
C 289.624949 118.197345 289.807449 118.637939 290.132255 118.962745 
C 290.457061 119.287551 290.897655 119.470051 291.357 119.470051 
z
" clip-path="url(#pf641c1b8a6)" style="fill: #d6e0e4"/>
   </g>
   <g id="PathCollection_13">
    <path d="M 314.39088 119.470051 
C 314.850225 119.470051 315.290819 119.287551 315.615625 118.962745 
C 315.940431 118.637939 316.122931 118.197345 316.122931 117.738 
C 316.122931 117.278655 315.940431 116.838061 315.615625 116.513255 
C 315.290819 116.188449 314.850225 116.005949 314.39088 116.005949 
C 313.931535 116.005949 313.490941 116.188449 313.166135 116.513255 
C 312.841329 116.838061 312.658829 117.278655 312.658829 117.738 
C 312.658829 118.197345 312.841329 118.637939 313.166135 118.962745 
C 313.490941 119.287551 313.931535 119.470051 314.39088 119.470051 
z
" clip-path="url(#pf641c1b8a6)" style="fill: #d6e0e4"/>
   </g>
   <g id="PathCollection_14">
    <path d="M 337.42476 119.470051 
C 337.884105 119.470051 338.324699 119.287551 338.649505 118.962745 
C 338.974311 118.637939 339.156811 118.197345 339.156811 117.738 
C 339.156811 117.278655 338.974311 116.838061 338.649505 116.513255 
C 338.324699 116.188449 337.884105 116.005949 337.42476 116.005949 
C 336.965415 116.005949 336.524821 116.188449 336.200015 116.513255 
C 335.875209 116.838061 335.692709 117.278655 335.692709 117.738 
C 335.692709 118.197345 335.875209 118.637939 336.200015 118.962745 
C 336.524821 119.287551 336.965415 119.470051 337.42476 119.470051 
z
" clip-path="url(#pf641c1b8a6)" style="fill: #d6e0e4"/>
   </g>
   <g id="PathCollection_15">
    <path d="M 199.22148 139.558051 
C 199.680825 139.558051 200.121419 139.375551 200.446225 139.050745 
C 200.771031 138.725939 200.953531 138.285345 200.953531 137.826 
C 200.953531 137.366655 200.771031 136.926061 200.446225 136.601255 
C 200.121419 136.276449 199.680825 136.093949 199.22148 136.093949 
C 198.762135 136.093949 198.321541 136.276449 197.996735 136.601255 
C 197.671929 136.926061 197.489429 137.366655 197.489429 137.826 
C 197.489429 138.285345 197.671929 138.725939 197.996735 139.050745 
C 198.321541 139.375551 198.762135 139.558051 199.22148 139.558051 
z
" clip-path="url(#pf641c1b8a6)" style="fill: #d6e0e4"/>
   </g>
   <g id="PathCollection_16">
    <path d="M 222.25536 139.558051 
C 222.714705 139.558051 223.155299 139.375551 223.480105 139.050745 
C 223.804911 138.725939 223.987411 138.285345 223.987411 137.826 
C 223.987411 137.366655 223.804911 136.926061 223.480105 136.601255 
C 223.155299 136.276449 222.714705 136.093949 222.25536 136.093949 
C 221.796015 136.093949 221.355421 136.276449 221.030615 136.601255 
C 220.705809 136.926061 220.523309 137.366655 220.523309 137.826 
C 220.523309 138.285345 220.705809 138.725939 221.030615 139.050745 
C 221.355421 139.375551 221.796015 139.558051 222.25536 139.558051 
z
" clip-path="url(#pf641c1b8a6)" style="fill: #d6e0e4"/>
   </g>
   <g id="PathCollection_17">
    <path d="M 268.32312 139.558051 
C 268.782465 139.558051 269.223059 139.375551 269.547865 139.050745 
C 269.872671 138.725939 270.055171 138.285345 270.055171 137.826 
C 270.055171 137.366655 269.872671 136.926061 269.547865 136.601255 
C 269.223059 136.276449 268.782465 136.093949 268.32312 136.093949 
C 267.863775 136.093949 267.423181 136.276449 267.098375 136.601255 
C 266.773569 136.926061 266.591069 137.366655 266.591069 137.826 
C 266.591069 138.285345 266.773569 138.725939 267.098375 139.050745 
C 267.423181 139.375551 267.863775 139.558051 268.32312 139.558051 
z
" clip-path="url(#pf641c1b8a6)" style="fill: #d6e0e4"/>
   </g>
   <g id="PathCollection_18">
    <path d="M 291.357 139.558051 
C 291.816345 139.558051 292.256939 139.375551 292.581745 139.050745 
C 292.906551 138.725939 293.089051 138.285345 293.089051 137.826 
C 293.089051 137.366655 292.906551 136.926061 292.581745 136.601255 
C 292.256939 136.276449 291.816345 136.093949 291.357 136.093949 
C 290.897655 136.093949 290.457061 136.276449 290.132255 136.601255 
C 289.807449 136.926061 289.624949 137.366655 289.624949 137.826 
C 289.624949 138.285345 289.807449 138.725939 290.132255 139.050745 
C 290.457061 139.375551 290.897655 139.558051 291.357 139.558051 
z
" clip-path="url(#pf641c1b8a6)" style="fill: #d6e0e4"/>
   </g>
   <g id="PathCollection_19">
    <path d="M 314.39088 139.558051 
C 314.850225 139.558051 315.290819 139.375551 315.615625 139.050745 
C 315.940431 138.725939 316.122931 138.285345 316.122931 137.826 
C 316.122931 137.366655 315.940431 136.926061 315.615625 136.601255 
C 315.290819 136.276449 314.850225 136.093949 314.39088 136.093949 
C 313.931535 136.093949 313.490941 136.276449 313.166135 136.601255 
C 312.841329 136.926061 312.658829 137.366655 312.658829 137.826 
C 312.658829 138.285345 312.841329 138.725939 313.166135 139.050745 
C 313.490941 139.375551 313.931535 139.558051 314.39088 139.558051 
z
" clip-path="url(#pf641c1b8a6)" style="fill: #d6e0e4"/>
   </g>
   <g id="PathCollection_20">
    <path d="M 337.42476 139.558051 
C 337.884105 139.558051 338.324699 139.375551 338.649505 139.050745 
C 338.974311 138.725939 339.156811 138.285345 339.156811 137.826 
C 339.156811 137.366655 338.974311 136.926061 338.649505 136.601255 
C 338.324699 136.276449 337.884105 136.093949 337.42476 136.093949 
C 336.965415 136.093949 336.524821 136.276449 336.200015 136.601255 
C 335.875209 136.926061 335.692709 137.366655 335.692709 137.826 
C 335.692709 138.285345 335.875209 138.725939 336.200015 139.050745 
C 336.524821 139.375551 336.965415 139.558051 337.42476 139.558051 
z
" clip-path="url(#pf641c1b8a6)" style="fill: #d6e0e4"/>
   </g>
   <g id="PathCollection_21">
    <path d="M 176.1876 180.850051 
C 176.646945 180.850051 177.087539 180.667551 177.412345 180.342745 
C 177.737151 180.017939 177.919651 179.577345 177.919651 179.118 
C 177.919651 178.658655 177.737151 178.218061 177.412345 177.893255 
C 177.087539 177.568449 176.646945 177.385949 176.1876 177.385949 
C 175.728255 177.385949 175.287661 177.568449 174.962855 177.893255 
C 174.638049 178.218061 174.455549 178.658655 174.455549 179.118 
C 174.455549 179.577345 174.638049 180.017939 174.962855 180.342745 
C 175.287661 180.667551 175.728255 180.850051 176.1876 180.850051 
z
" clip-path="url(#pf641c1b8a6)" style="fill: #d6e0e4"/>
   </g>
   <g id="PathCollection_22">
    <path d="M 222.25536 180.850051 
C 222.714705 180.850051 223.155299 180.667551 223.480105 180.342745 
C 223.804911 180.017939 223.987411 179.577345 223.987411 179.118 
C 223.987411 178.658655 223.804911 178.218061 223.480105 177.893255 
C 223.155299 177.568449 222.714705 177.385949 222.25536 177.385949 
C 221.796015 177.385949 221.355421 177.568449 221.030615 177.893255 
C 220.705809 178.218061 220.523309 178.658655 220.523309 179.118 
C 220.523309 179.577345 220.705809 180.017939 221.030615 180.342745 
C 221.355421 180.667551 221.796015 180.850051 222.25536 180.850051 
z
" clip-path="url(#pf641c1b8a6)" style="fill: #d6e0e4"/>
   </g>
   <g id="PathCollection_23">
    <path d="M 245.28924 180.850051 
C 245.748585 180.850051 246.189179 180.667551 246.513985 180.342745 
C 246.838791 180.017939 247.021291 179.577345 247.021291 179.118 
C 247.021291 178.658655 246.838791 178.218061 246.513985 177.893255 
C 246.189179 177.568449 245.748585 177.385949 245.28924 177.385949 
C 244.829895 177.385949 244.389301 177.568449 244.064495 177.893255 
C 243.739689 178.218061 243.557189 178.658655 243.557189 179.118 
C 243.557189 179.577345 243.739689 180.017939 244.064495 180.342745 
C 244.389301 180.667551 244.829895 180.850051 245.28924 180.850051 
z
" clip-path="url(#pf641c1b8a6)" style="fill: #d6e0e4"/>
   </g>
   <g id="PathCollection_24">
    <path d="M 268.32312 180.850051 
C 268.782465 180.850051 269.223059 180.667551 269.547865 180.342745 
C 269.872671 180.017939 270.055171 179.577345 270.055171 179.118 
C 270.055171 178.658655 269.872671 178.218061 269.547865 177.893255 
C 269.223059 177.568449 268.782465 177.385949 268.32312 177.385949 
C 267.863775 177.385949 267.423181 177.568449 267.098375 177.893255 
C 266.773569 178.218061 266.591069 178.658655 266.591069 179.118 
C 266.591069 179.577345 266.773569 180.017939 267.098375 180.342745 
C 267.423181 180.667551 267.863775 180.850051 268.32312 180.850051 
z
" clip-path="url(#pf641c1b8a6)" style="fill: #d6e0e4"/>
   </g>
   <g id="PathCollection_25">
    <path d="M 291.357 180.850051 
C 291.816345 180.850051 292.256939 180.667551 292.581745 180.342745 
C 292.906551 180.017939 293.089051 179.577345 293.089051 179.118 
C 293.089051 178.658655 292.906551 178.218061 292.581745 177.893255 
C 292.256939 177.568449 291.816345 177.385949 291.357 177.385949 
C 290.897655 177.385949 290.457061 177.568449 290.132255 177.893255 
C 289.807449 178.218061 289.624949 178.658655 289.624949 179.118 
C 289.624949 179.577345 289.807449 180.017939 290.132255 180.342745 
C 290.457061 180.667551 290.897655 180.850051 291.357 180.850051 
z
" clip-path="url(#pf641c1b8a6)" style="fill: #d6e0e4"/>
   </g>
   <g id="PathCollection_26">
    <path d="M 314.39088 180.850051 
C 314.850225 180.850051 315.290819 180.667551 315.615625 180.342745 
C 315.940431 180.017939 316.122931 179.577345 316.122931 179.118 
C 316.122931 178.658655 315.940431 178.218061 315.615625 177.893255 
C 315.290819 177.568449 314.850225 177.385949 314.39088 177.385949 
C 313.931535 177.385949 313.490941 177.568449 313.166135 177.893255 
C 312.841329 178.218061 312.658829 178.658655 312.658829 179.118 
C 312.658829 179.577345 312.841329 180.017939 313.166135 180.342745 
C 313.490941 180.667551 313.931535 180.850051 314.39088 180.850051 
z
" clip-path="url(#pf641c1b8a6)" style="fill: #d6e0e4"/>
   </g>
   <g id="PathCollection_27">
    <path d="M 337.42476 180.850051 
C 337.884105 180.850051 338.324699 180.667551 338.649505 180.342745 
C 338.974311 180.017939 339.156811 179.577345 339.156811 179.118 
C 339.156811 178.658655 338.974311 178.218061 338.649505 177.893255 
C 338.324699 177.568449 337.884105 177.385949 337.42476 177.385949 
C 336.965415 177.385949 336.524821 177.568449 336.200015 177.893255 
C 335.875209 178.218061 335.692709 178.658655 335.692709 179.118 
C 335.692709 179.577345 335.875209 180.017939 336.200015 180.342745 
C 336.524821 180.667551 336.965415 180.850051 337.42476 180.850051 
z
" clip-path="url(#pf641c1b8a6)" style="fill: #d6e0e4"/>
   </g>
   <g id="PathCollection_28">
    <path d="M 176.1876 200.938051 
C 176.646945 200.938051 177.087539 200.755551 177.412345 200.430745 
C 177.737151 200.105939 177.919651 199.665345 177.919651 199.206 
C 177.919651 198.746655 177.737151 198.306061 177.412345 197.981255 
C 177.087539 197.656449 176.646945 197.473949 176.1876 197.473949 
C 175.728255 197.473949 175.287661 197.656449 174.962855 197.981255 
C 174.638049 198.306061 174.455549 198.746655 174.455549 199.206 
C 174.455549 199.665345 174.638049 200.105939 174.962855 200.430745 
C 175.287661 200.755551 175.728255 200.938051 176.1876 200.938051 
z
" clip-path="url(#pf641c1b8a6)" style="fill: #d6e0e4"/>
   </g>
   <g id="PathCollection_29">
    <path d="M 222.25536 200.938051 
C 222.714705 200.938051 223.155299 200.755551 223.480105 200.430745 
C 223.804911 200.105939 223.987411 199.665345 223.987411 199.206 
C 223.987411 198.746655 223.804911 198.306061 223.480105 197.981255 
C 223.155299 197.656449 222.714705 197.473949 222.25536 197.473949 
C 221.796015 197.473949 221.355421 197.656449 221.030615 197.981255 
C 220.705809 198.306061 220.523309 198.746655 220.523309 199.206 
C 220.523309 199.665345 220.705809 200.105939 221.030615 200.430745 
C 221.355421 200.755551 221.796015 200.938051 222.25536 200.938051 
z
" clip-path="url(#pf641c1b8a6)" style="fill: #d6e0e4"/>
   </g>
   <g id="PathCollection_30">
    <path d="M 245.28924 200.938051 
C 245.748585 200.938051 246.189179 200.755551 246.513985 200.430745 
C 246.838791 200.105939 247.021291 199.665345 247.021291 199.206 
C 247.021291 198.746655 246.838791 198.306061 246.513985 197.981255 
C 246.189179 197.656449 245.748585 197.473949 245.28924 197.473949 
C 244.829895 197.473949 244.389301 197.656449 244.064495 197.981255 
C 243.739689 198.306061 243.557189 198.746655 243.557189 199.206 
C 243.557189 199.665345 243.739689 200.105939 244.064495 200.430745 
C 244.389301 200.755551 244.829895 200.938051 245.28924 200.938051 
z
" clip-path="url(#pf641c1b8a6)" style="fill: #d6e0e4"/>
   </g>
   <g id="PathCollection_31">
    <path d="M 268.32312 200.938051 
C 268.782465 200.938051 269.223059 200.755551 269.547865 200.430745 
C 269.872671 200.105939 270.055171 199.665345 270.055171 199.206 
C 270.055171 198.746655 269.872671 198.306061 269.547865 197.981255 
C 269.223059 197.656449 268.782465 197.473949 268.32312 197.473949 
C 267.863775 197.473949 267.423181 197.656449 267.098375 197.981255 
C 266.773569 198.306061 266.591069 198.746655 266.591069 199.206 
C 266.591069 199.665345 266.773569 200.105939 267.098375 200.430745 
C 267.423181 200.755551 267.863775 200.938051 268.32312 200.938051 
z
" clip-path="url(#pf641c1b8a6)" style="fill: #d6e0e4"/>
   </g>
   <g id="PathCollection_32">
    <path d="M 291.357 200.938051 
C 291.816345 200.938051 292.256939 200.755551 292.581745 200.430745 
C 292.906551 200.105939 293.089051 199.665345 293.089051 199.206 
C 293.089051 198.746655 292.906551 198.306061 292.581745 197.981255 
C 292.256939 197.656449 291.816345 197.473949 291.357 197.473949 
C 290.897655 197.473949 290.457061 197.656449 290.132255 197.981255 
C 289.807449 198.306061 289.624949 198.746655 289.624949 199.206 
C 289.624949 199.665345 289.807449 200.105939 290.132255 200.430745 
C 290.457061 200.755551 290.897655 200.938051 291.357 200.938051 
z
" clip-path="url(#pf641c1b8a6)" style="fill: #d6e0e4"/>
   </g>
   <g id="PathCollection_33">
    <path d="M 314.39088 200.938051 
C 314.850225 200.938051 315.290819 200.755551 315.615625 200.430745 
C 315.940431 200.105939 316.122931 199.665345 316.122931 199.206 
C 316.122931 198.746655 315.940431 198.306061 315.615625 197.981255 
C 315.290819 197.656449 314.850225 197.473949 314.39088 197.473949 
C 313.931535 197.473949 313.490941 197.656449 313.166135 197.981255 
C 312.841329 198.306061 312.658829 198.746655 312.658829 199.206 
C 312.658829 199.665345 312.841329 200.105939 313.166135 200.430745 
C 313.490941 200.755551 313.931535 200.938051 314.39088 200.938051 
z
" clip-path="url(#pf641c1b8a6)" style="fill: #d6e0e4"/>
   </g>
   <g id="PathCollection_34">
    <path d="M 337.42476 200.938051 
C 337.884105 200.938051 338.324699 200.755551 338.649505 200.430745 
C 338.974311 200.105939 339.156811 199.665345 339.156811 199.206 
C 339.156811 198.746655 338.974311 198.306061 338.649505 197.981255 
C 338.324699 197.656449 337.884105 197.473949 337.42476 197.473949 
C 336.965415 197.473949 336.524821 197.656449 336.200015 197.981255 
C 335.875209 198.306061 335.692709 198.746655 335.692709 199.206 
C 335.692709 199.665345 335.875209 200.105939 336.200015 200.430745 
C 336.524821 200.755551 336.965415 200.938051 337.42476 200.938051 
z
" clip-path="url(#pf641c1b8a6)" style="fill: #d6e0e4"/>
   </g>
   <g id="PathCollection_35">
    <path d="M 176.1876 221.026051 
C 176.646945 221.026051 177.087539 220.843551 177.412345 220.518745 
C 177.737151 220.193939 177.919651 219.753345 177.919651 219.294 
C 177.919651 218.834655 177.737151 218.394061 177.412345 218.069255 
C 177.087539 217.744449 176.646945 217.561949 176.1876 217.561949 
C 175.728255 217.561949 175.287661 217.744449 174.962855 218.069255 
C 174.638049 218.394061 174.455549 218.834655 174.455549 219.294 
C 174.455549 219.753345 174.638049 220.193939 174.962855 220.518745 
C 175.287661 220.843551 175.728255 221.026051 176.1876 221.026051 
z
" clip-path="url(#pf641c1b8a6)" style="fill: #d6e0e4"/>
   </g>
   <g id="PathCollection_36">
    <path d="M 222.25536 221.026051 
C 222.714705 221.026051 223.155299 220.843551 223.480105 220.518745 
C 223.804911 220.193939 223.987411 219.753345 223.987411 219.294 
C 223.987411 218.834655 223.804911 218.394061 223.480105 218.069255 
C 223.155299 217.744449 222.714705 217.561949 222.25536 217.561949 
C 221.796015 217.561949 221.355421 217.744449 221.030615 218.069255 
C 220.705809 218.394061 220.523309 218.834655 220.523309 219.294 
C 220.523309 219.753345 220.705809 220.193939 221.030615 220.518745 
C 221.355421 220.843551 221.796015 221.026051 222.25536 221.026051 
z
" clip-path="url(#pf641c1b8a6)" style="fill: #d6e0e4"/>
   </g>
   <g id="PathCollection_37">
    <path d="M 245.28924 221.026051 
C 245.748585 221.026051 246.189179 220.843551 246.513985 220.518745 
C 246.838791 220.193939 247.021291 219.753345 247.021291 219.294 
C 247.021291 218.834655 246.838791 218.394061 246.513985 218.069255 
C 246.189179 217.744449 245.748585 217.561949 245.28924 217.561949 
C 244.829895 217.561949 244.389301 217.744449 244.064495 218.069255 
C 243.739689 218.394061 243.557189 218.834655 243.557189 219.294 
C 243.557189 219.753345 243.739689 220.193939 244.064495 220.518745 
C 244.389301 220.843551 244.829895 221.026051 245.28924 221.026051 
z
" clip-path="url(#pf641c1b8a6)" style="fill: #d6e0e4"/>
   </g>
   <g id="PathCollection_38">
    <path d="M 268.32312 221.026051 
C 268.782465 221.026051 269.223059 220.843551 269.547865 220.518745 
C 269.872671 220.193939 270.055171 219.753345 270.055171 219.294 
C 270.055171 218.834655 269.872671 218.394061 269.547865 218.069255 
C 269.223059 217.744449 268.782465 217.561949 268.32312 217.561949 
C 267.863775 217.561949 267.423181 217.744449 267.098375 218.069255 
C 266.773569 218.394061 266.591069 218.834655 266.591069 219.294 
C 266.591069 219.753345 266.773569 220.193939 267.098375 220.518745 
C 267.423181 220.843551 267.863775 221.026051 268.32312 221.026051 
z
" clip-path="url(#pf641c1b8a6)" style="fill: #d6e0e4"/>
   </g>
   <g id="PathCollection_39">
    <path d="M 291.357 221.026051 
C 291.816345 221.026051 292.256939 220.843551 292.581745 220.518745 
C 292.906551 220.193939 293.089051 219.753345 293.089051 219.294 
C 293.089051 218.834655 292.906551 218.394061 292.581745 218.069255 
C 292.256939 217.744449 291.816345 217.561949 291.357 217.561949 
C 290.897655 217.561949 290.457061 217.744449 290.132255 218.069255 
C 289.807449 218.394061 289.624949 218.834655 289.624949 219.294 
C 289.624949 219.753345 289.807449 220.193939 290.132255 220.518745 
C 290.457061 220.843551 290.897655 221.026051 291.357 221.026051 
z
" clip-path="url(#pf641c1b8a6)" style="fill: #d6e0e4"/>
   </g>
   <g id="PathCollection_40">
    <path d="M 337.42476 221.026051 
C 337.884105 221.026051 338.324699 220.843551 338.649505 220.518745 
C 338.974311 220.193939 339.156811 219.753345 339.156811 219.294 
C 339.156811 218.834655 338.974311 218.394061 338.649505 218.069255 
C 338.324699 217.744449 337.884105 217.561949 337.42476 217.561949 
C 336.965415 217.561949 336.524821 217.744449 336.200015 218.069255 
C 335.875209 218.394061 335.692709 218.834655 335.692709 219.294 
C 335.692709 219.753345 335.875209 220.193939 336.200015 220.518745 
C 336.524821 220.843551 336.965415 221.026051 337.42476 221.026051 
z
" clip-path="url(#pf641c1b8a6)" style="fill: #d6e0e4"/>
   </g>
   <g id="PathCollection_41">
    <path d="M 176.1876 262.318051 
C 176.646945 262.318051 177.087539 262.135551 177.412345 261.810745 
C 177.737151 261.485939 177.919651 261.045345 177.919651 260.586 
C 177.919651 260.126655 177.737151 259.686061 177.412345 259.361255 
C 177.087539 259.036449 176.646945 258.853949 176.1876 258.853949 
C 175.728255 258.853949 175.287661 259.036449 174.962855 259.361255 
C 174.638049 259.686061 174.455549 260.126655 174.455549 260.586 
C 174.455549 261.045345 174.638049 261.485939 174.962855 261.810745 
C 175.287661 262.135551 175.728255 262.318051 176.1876 262.318051 
z
" clip-path="url(#pf641c1b8a6)" style="fill: #d6e0e4"/>
   </g>
   <g id="PathCollection_42">
    <path d="M 199.22148 262.318051 
C 199.680825 262.318051 200.121419 262.135551 200.446225 261.810745 
C 200.771031 261.485939 200.953531 261.045345 200.953531 260.586 
C 200.953531 260.126655 200.771031 259.686061 200.446225 259.361255 
C 200.121419 259.036449 199.680825 258.853949 199.22148 258.853949 
C 198.762135 258.853949 198.321541 259.036449 197.996735 259.361255 
C 197.671929 259.686061 197.489429 260.126655 197.489429 260.586 
C 197.489429 261.045345 197.671929 261.485939 197.996735 261.810745 
C 198.321541 262.135551 198.762135 262.318051 199.22148 262.318051 
z
" clip-path="url(#pf641c1b8a6)" style="fill: #d6e0e4"/>
   </g>
   <g id="PathCollection_43">
    <path d="M 245.28924 262.318051 
C 245.748585 262.318051 246.189179 262.135551 246.513985 261.810745 
C 246.838791 261.485939 247.021291 261.045345 247.021291 260.586 
C 247.021291 260.126655 246.838791 259.686061 246.513985 259.361255 
C 246.189179 259.036449 245.748585 258.853949 245.28924 258.853949 
C 244.829895 258.853949 244.389301 259.036449 244.064495 259.361255 
C 243.739689 259.686061 243.557189 260.126655 243.557189 260.586 
C 243.557189 261.045345 243.739689 261.485939 244.064495 261.810745 
C 244.389301 262.135551 244.829895 262.318051 245.28924 262.318051 
z
" clip-path="url(#pf641c1b8a6)" style="fill: #d6e0e4"/>
   </g>
   <g id="PathCollection_44">
    <path d="M 268.32312 262.318051 
C 268.782465 262.318051 269.223059 262.135551 269.547865 261.810745 
C 269.872671 261.485939 270.055171 261.045345 270.055171 260.586 
C 270.055171 260.126655 269.872671 259.686061 269.547865 259.361255 
C 269.223059 259.036449 268.782465 258.853949 268.32312 258.853949 
C 267.863775 258.853949 267.423181 259.036449 267.098375 259.361255 
C 266.773569 259.686061 266.591069 260.126655 266.591069 260.586 
C 266.591069 261.045345 266.773569 261.485939 267.098375 261.810745 
C 267.423181 262.135551 267.863775 262.318051 268.32312 262.318051 
z
" clip-path="url(#pf641c1b8a6)" style="fill: #d6e0e4"/>
   </g>
   <g id="PathCollection_45">
    <path d="M 291.357 262.318051 
C 291.816345 262.318051 292.256939 262.135551 292.581745 261.810745 
C 292.906551 261.485939 293.089051 261.045345 293.089051 260.586 
C 293.089051 260.126655 292.906551 259.686061 292.581745 259.361255 
C 292.256939 259.036449 291.816345 258.853949 291.357 258.853949 
C 290.897655 258.853949 290.457061 259.036449 290.132255 259.361255 
C 289.807449 259.686061 289.624949 260.126655 289.624949 260.586 
C 289.624949 261.045345 289.807449 261.485939 290.132255 261.810745 
C 290.457061 262.135551 290.897655 262.318051 291.357 262.318051 
z
" clip-path="url(#pf641c1b8a6)" style="fill: #d6e0e4"/>
   </g>
   <g id="PathCollection_46">
    <path d="M 314.39088 262.318051 
C 314.850225 262.318051 315.290819 262.135551 315.615625 261.810745 
C 315.940431 261.485939 316.122931 261.045345 316.122931 260.586 
C 316.122931 260.126655 315.940431 259.686061 315.615625 259.361255 
C 315.290819 259.036449 314.850225 258.853949 314.39088 258.853949 
C 313.931535 258.853949 313.490941 259.036449 313.166135 259.361255 
C 312.841329 259.686061 312.658829 260.126655 312.658829 260.586 
C 312.658829 261.045345 312.841329 261.485939 313.166135 261.810745 
C 313.490941 262.135551 313.931535 262.318051 314.39088 262.318051 
z
" clip-path="url(#pf641c1b8a6)" style="fill: #d6e0e4"/>
   </g>
   <g id="PathCollection_47">
    <path d="M 337.42476 262.318051 
C 337.884105 262.318051 338.324699 262.135551 338.649505 261.810745 
C 338.974311 261.485939 339.156811 261.045345 339.156811 260.586 
C 339.156811 260.126655 338.974311 259.686061 338.649505 259.361255 
C 338.324699 259.036449 337.884105 258.853949 337.42476 258.853949 
C 336.965415 258.853949 336.524821 259.036449 336.200015 259.361255 
C 335.875209 259.686061 335.692709 260.126655 335.692709 260.586 
C 335.692709 261.045345 335.875209 261.485939 336.200015 261.810745 
C 336.524821 262.135551 336.965415 262.318051 337.42476 262.318051 
z
" clip-path="url(#pf641c1b8a6)" style="fill: #d6e0e4"/>
   </g>
   <g id="PathCollection_48">
    <path d="M 199.22148 282.406051 
C 199.680825 282.406051 200.121419 282.223551 200.446225 281.898745 
C 200.771031 281.573939 200.953531 281.133345 200.953531 280.674 
C 200.953531 280.214655 200.771031 279.774061 200.446225 279.449255 
C 200.121419 279.124449 199.680825 278.941949 199.22148 278.941949 
C 198.762135 278.941949 198.321541 279.124449 197.996735 279.449255 
C 197.671929 279.774061 197.489429 280.214655 197.489429 280.674 
C 197.489429 281.133345 197.671929 281.573939 197.996735 281.898745 
C 198.321541 282.223551 198.762135 282.406051 199.22148 282.406051 
z
" clip-path="url(#pf641c1b8a6)" style="fill: #d6e0e4"/>
   </g>
   <g id="PathCollection_49">
    <path d="M 245.28924 282.406051 
C 245.748585 282.406051 246.189179 282.223551 246.513985 281.898745 
C 246.838791 281.573939 247.021291 281.133345 247.021291 280.674 
C 247.021291 280.214655 246.838791 279.774061 246.513985 279.449255 
C 246.189179 279.124449 245.748585 278.941949 245.28924 278.941949 
C 244.829895 278.941949 244.389301 279.124449 244.064495 279.449255 
C 243.739689 279.774061 243.557189 280.214655 243.557189 280.674 
C 243.557189 281.133345 243.739689 281.573939 244.064495 281.898745 
C 244.389301 282.223551 244.829895 282.406051 245.28924 282.406051 
z
" clip-path="url(#pf641c1b8a6)" style="fill: #d6e0e4"/>
   </g>
   <g id="PathCollection_50">
    <path d="M 268.32312 282.406051 
C 268.782465 282.406051 269.223059 282.223551 269.547865 281.898745 
C 269.872671 281.573939 270.055171 281.133345 270.055171 280.674 
C 270.055171 280.214655 269.872671 279.774061 269.547865 279.449255 
C 269.223059 279.124449 268.782465 278.941949 268.32312 278.941949 
C 267.863775 278.941949 267.423181 279.124449 267.098375 279.449255 
C 266.773569 279.774061 266.591069 280.214655 266.591069 280.674 
C 266.591069 281.133345 266.773569 281.573939 267.098375 281.898745 
C 267.423181 282.223551 267.863775 282.406051 268.32312 282.406051 
z
" clip-path="url(#pf641c1b8a6)" style="fill: #d6e0e4"/>
   </g>
   <g id="PathCollection_51">
    <path d="M 291.357 282.406051 
C 291.816345 282.406051 292.256939 282.223551 292.581745 281.898745 
C 292.906551 281.573939 293.089051 281.133345 293.089051 280.674 
C 293.089051 280.214655 292.906551 279.774061 292.581745 279.449255 
C 292.256939 279.124449 291.816345 278.941949 291.357 278.941949 
C 290.897655 278.941949 290.457061 279.124449 290.132255 279.449255 
C 289.807449 279.774061 289.624949 280.214655 289.624949 280.674 
C 289.624949 281.133345 289.807449 281.573939 290.132255 281.898745 
C 290.457061 282.223551 290.897655 282.406051 291.357 282.406051 
z
" clip-path="url(#pf641c1b8a6)" style="fill: #d6e0e4"/>
   </g>
   <g id="PathCollection_52">
    <path d="M 314.39088 282.406051 
C 314.850225 282.406051 315.290819 282.223551 315.615625 281.898745 
C 315.940431 281.573939 316.122931 281.133345 316.122931 280.674 
C 316.122931 280.214655 315.940431 279.774061 315.615625 279.449255 
C 315.290819 279.124449 314.850225 278.941949 314.39088 278.941949 
C 313.931535 278.941949 313.490941 279.124449 313.166135 279.449255 
C 312.841329 279.774061 312.658829 280.214655 312.658829 280.674 
C 312.658829 281.133345 312.841329 281.573939 313.166135 281.898745 
C 313.490941 282.223551 313.931535 282.406051 314.39088 282.406051 
z
" clip-path="url(#pf641c1b8a6)" style="fill: #d6e0e4"/>
   </g>
   <g id="PathCollection_53">
    <path d="M 337.42476 282.406051 
C 337.884105 282.406051 338.324699 282.223551 338.649505 281.898745 
C 338.974311 281.573939 339.156811 281.133345 339.156811 280.674 
C 339.156811 280.214655 338.974311 279.774061 338.649505 279.449255 
C 338.324699 279.124449 337.884105 278.941949 337.42476 278.941949 
C 336.965415 278.941949 336.524821 279.124449 336.200015 279.449255 
C 335.875209 279.774061 335.692709 280.214655 335.692709 280.674 
C 335.692709 281.133345 335.875209 281.573939 336.200015 281.898745 
C 336.524821 282.223551 336.965415 282.406051 337.42476 282.406051 
z
" clip-path="url(#pf641c1b8a6)" style="fill: #d6e0e4"/>
   </g>
   <g id="PathCollection_54">
    <path d="M 176.1876 302.494051 
C 176.646945 302.494051 177.087539 302.311551 177.412345 301.986745 
C 177.737151 301.661939 177.919651 301.221345 177.919651 300.762 
C 177.919651 300.302655 177.737151 299.862061 177.412345 299.537255 
C 177.087539 299.212449 176.646945 299.029949 176.1876 299.029949 
C 175.728255 299.029949 175.287661 299.212449 174.962855 299.537255 
C 174.638049 299.862061 174.455549 300.302655 174.455549 300.762 
C 174.455549 301.221345 174.638049 301.661939 174.962855 301.986745 
C 175.287661 302.311551 175.728255 302.494051 176.1876 302.494051 
z
" clip-path="url(#pf641c1b8a6)" style="fill: #d6e0e4"/>
   </g>
   <g id="PathCollection_55">
    <path d="M 199.22148 302.494051 
C 199.680825 302.494051 200.121419 302.311551 200.446225 301.986745 
C 200.771031 301.661939 200.953531 301.221345 200.953531 300.762 
C 200.953531 300.302655 200.771031 299.862061 200.446225 299.537255 
C 200.121419 299.212449 199.680825 299.029949 199.22148 299.029949 
C 198.762135 299.029949 198.321541 299.212449 197.996735 299.537255 
C 197.671929 299.862061 197.489429 300.302655 197.489429 300.762 
C 197.489429 301.221345 197.671929 301.661939 197.996735 301.986745 
C 198.321541 302.311551 198.762135 302.494051 199.22148 302.494051 
z
" clip-path="url(#pf641c1b8a6)" style="fill: #d6e0e4"/>
   </g>
   <g id="PathCollection_56">
    <path d="M 245.28924 302.494051 
C 245.748585 302.494051 246.189179 302.311551 246.513985 301.986745 
C 246.838791 301.661939 247.021291 301.221345 247.021291 300.762 
C 247.021291 300.302655 246.838791 299.862061 246.513985 299.537255 
C 246.189179 299.212449 245.748585 299.029949 245.28924 299.029949 
C 244.829895 299.029949 244.389301 299.212449 244.064495 299.537255 
C 243.739689 299.862061 243.557189 300.302655 243.557189 300.762 
C 243.557189 301.221345 243.739689 301.661939 244.064495 301.986745 
C 244.389301 302.311551 244.829895 302.494051 245.28924 302.494051 
z
" clip-path="url(#pf641c1b8a6)" style="fill: #d6e0e4"/>
   </g>
   <g id="PathCollection_57">
    <path d="M 268.32312 302.494051 
C 268.782465 302.494051 269.223059 302.311551 269.547865 301.986745 
C 269.872671 301.661939 270.055171 301.221345 270.055171 300.762 
C 270.055171 300.302655 269.872671 299.862061 269.547865 299.537255 
C 269.223059 299.212449 268.782465 299.029949 268.32312 299.029949 
C 267.863775 299.029949 267.423181 299.212449 267.098375 299.537255 
C 266.773569 299.862061 266.591069 300.302655 266.591069 300.762 
C 266.591069 301.221345 266.773569 301.661939 267.098375 301.986745 
C 267.423181 302.311551 267.863775 302.494051 268.32312 302.494051 
z
" clip-path="url(#pf641c1b8a6)" style="fill: #d6e0e4"/>
   </g>
   <g id="PathCollection_58">
    <path d="M 291.357 302.494051 
C 291.816345 302.494051 292.256939 302.311551 292.581745 301.986745 
C 292.906551 301.661939 293.089051 301.221345 293.089051 300.762 
C 293.089051 300.302655 292.906551 299.862061 292.581745 299.537255 
C 292.256939 299.212449 291.816345 299.029949 291.357 299.029949 
C 290.897655 299.029949 290.457061 299.212449 290.132255 299.537255 
C 289.807449 299.862061 289.624949 300.302655 289.624949 300.762 
C 289.624949 301.221345 289.807449 301.661939 290.132255 301.986745 
C 290.457061 302.311551 290.897655 302.494051 291.357 302.494051 
z
" clip-path="url(#pf641c1b8a6)" style="fill: #d6e0e4"/>
   </g>
   <g id="PathCollection_59">
    <path d="M 314.39088 302.494051 
C 314.850225 302.494051 315.290819 302.311551 315.615625 301.986745 
C 315.940431 301.661939 316.122931 301.221345 316.122931 300.762 
C 316.122931 300.302655 315.940431 299.862061 315.615625 299.537255 
C 315.290819 299.212449 314.850225 299.029949 314.39088 299.029949 
C 313.931535 299.029949 313.490941 299.212449 313.166135 299.537255 
C 312.841329 299.862061 312.658829 300.302655 312.658829 300.762 
C 312.658829 301.221345 312.841329 301.661939 313.166135 301.986745 
C 313.490941 302.311551 313.931535 302.494051 314.39088 302.494051 
z
" clip-path="url(#pf641c1b8a6)" style="fill: #d6e0e4"/>
   </g>
   <g id="PathCollection_60">
    <path d="M 337.42476 302.494051 
C 337.884105 302.494051 338.324699 302.311551 338.649505 301.986745 
C 338.974311 301.661939 339.156811 301.221345 339.156811 300.762 
C 339.156811 300.302655 338.974311 299.862061 338.649505 299.537255 
C 338.324699 299.212449 337.884105 299.029949 337.42476 299.029949 
C 336.965415 299.029949 336.524821 299.212449 336.200015 299.537255 
C 335.875209 299.862061 335.692709 300.302655 335.692709 300.762 
C 335.692709 301.221345 335.875209 301.661939 336.200015 301.986745 
C 336.524821 302.311551 336.965415 302.494051 337.42476 302.494051 
z
" clip-path="url(#pf641c1b8a6)" style="fill: #d6e0e4"/>
   </g>
   <g id="PathCollection_61">
    <path d="M 176.1876 343.786051 
C 176.646945 343.786051 177.087539 343.603551 177.412345 343.278745 
C 177.737151 342.953939 177.919651 342.513345 177.919651 342.054 
C 177.919651 341.594655 177.737151 341.154061 177.412345 340.829255 
C 177.087539 340.504449 176.646945 340.321949 176.1876 340.321949 
C 175.728255 340.321949 175.287661 340.504449 174.962855 340.829255 
C 174.638049 341.154061 174.455549 341.594655 174.455549 342.054 
C 174.455549 342.513345 174.638049 342.953939 174.962855 343.278745 
C 175.287661 343.603551 175.728255 343.786051 176.1876 343.786051 
z
" clip-path="url(#pf641c1b8a6)" style="fill: #d6e0e4"/>
   </g>
   <g id="PathCollection_62">
    <path d="M 199.22148 343.786051 
C 199.680825 343.786051 200.121419 343.603551 200.446225 343.278745 
C 200.771031 342.953939 200.953531 342.513345 200.953531 342.054 
C 200.953531 341.594655 200.771031 341.154061 200.446225 340.829255 
C 200.121419 340.504449 199.680825 340.321949 199.22148 340.321949 
C 198.762135 340.321949 198.321541 340.504449 197.996735 340.829255 
C 197.671929 341.154061 197.489429 341.594655 197.489429 342.054 
C 197.489429 342.513345 197.671929 342.953939 197.996735 343.278745 
C 198.321541 343.603551 198.762135 343.786051 199.22148 343.786051 
z
" clip-path="url(#pf641c1b8a6)" style="fill: #d6e0e4"/>
   </g>
   <g id="PathCollection_63">
    <path d="M 222.25536 343.786051 
C 222.714705 343.786051 223.155299 343.603551 223.480105 343.278745 
C 223.804911 342.953939 223.987411 342.513345 223.987411 342.054 
C 223.987411 341.594655 223.804911 341.154061 223.480105 340.829255 
C 223.155299 340.504449 222.714705 340.321949 222.25536 340.321949 
C 221.796015 340.321949 221.355421 340.504449 221.030615 340.829255 
C 220.705809 341.154061 220.523309 341.594655 220.523309 342.054 
C 220.523309 342.513345 220.705809 342.953939 221.030615 343.278745 
C 221.355421 343.603551 221.796015 343.786051 222.25536 343.786051 
z
" clip-path="url(#pf641c1b8a6)" style="fill: #d6e0e4"/>
   </g>
   <g id="PathCollection_64">
    <path d="M 245.28924 343.786051 
C 245.748585 343.786051 246.189179 343.603551 246.513985 343.278745 
C 246.838791 342.953939 247.021291 342.513345 247.021291 342.054 
C 247.021291 341.594655 246.838791 341.154061 246.513985 340.829255 
C 246.189179 340.504449 245.748585 340.321949 245.28924 340.321949 
C 244.829895 340.321949 244.389301 340.504449 244.064495 340.829255 
C 243.739689 341.154061 243.557189 341.594655 243.557189 342.054 
C 243.557189 342.513345 243.739689 342.953939 244.064495 343.278745 
C 244.389301 343.603551 244.829895 343.786051 245.28924 343.786051 
z
" clip-path="url(#pf641c1b8a6)" style="fill: #d6e0e4"/>
   </g>
   <g id="PathCollection_65">
    <path d="M 291.357 343.786051 
C 291.816345 343.786051 292.256939 343.603551 292.581745 343.278745 
C 292.906551 342.953939 293.089051 342.513345 293.089051 342.054 
C 293.089051 341.594655 292.906551 341.154061 292.581745 340.829255 
C 292.256939 340.504449 291.816345 340.321949 291.357 340.321949 
C 290.897655 340.321949 290.457061 340.504449 290.132255 340.829255 
C 289.807449 341.154061 289.624949 341.594655 289.624949 342.054 
C 289.624949 342.513345 289.807449 342.953939 290.132255 343.278745 
C 290.457061 343.603551 290.897655 343.786051 291.357 343.786051 
z
" clip-path="url(#pf641c1b8a6)" style="fill: #d6e0e4"/>
   </g>
   <g id="PathCollection_66">
    <path d="M 314.39088 343.786051 
C 314.850225 343.786051 315.290819 343.603551 315.615625 343.278745 
C 315.940431 342.953939 316.122931 342.513345 316.122931 342.054 
C 316.122931 341.594655 315.940431 341.154061 315.615625 340.829255 
C 315.290819 340.504449 314.850225 340.321949 314.39088 340.321949 
C 313.931535 340.321949 313.490941 340.504449 313.166135 340.829255 
C 312.841329 341.154061 312.658829 341.594655 312.658829 342.054 
C 312.658829 342.513345 312.841329 342.953939 313.166135 343.278745 
C 313.490941 343.603551 313.931535 343.786051 314.39088 343.786051 
z
" clip-path="url(#pf641c1b8a6)" style="fill: #d6e0e4"/>
   </g>
   <g id="PathCollection_67">
    <path d="M 337.42476 343.786051 
C 337.884105 343.786051 338.324699 343.603551 338.649505 343.278745 
C 338.974311 342.953939 339.156811 342.513345 339.156811 342.054 
C 339.156811 341.594655 338.974311 341.154061 338.649505 340.829255 
C 338.324699 340.504449 337.884105 340.321949 337.42476 340.321949 
C 336.965415 340.321949 336.524821 340.504449 336.200015 340.829255 
C 335.875209 341.154061 335.692709 341.594655 335.692709 342.054 
C 335.692709 342.513345 335.875209 342.953939 336.200015 343.278745 
C 336.524821 343.603551 336.965415 343.786051 337.42476 343.786051 
z
" clip-path="url(#pf641c1b8a6)" style="fill: #d6e0e4"/>
   </g>
   <g id="PathCollection_68">
    <path d="M 176.1876 363.874051 
C 176.646945 363.874051 177.087539 363.691551 177.412345 363.366745 
C 177.737151 363.041939 177.919651 362.601345 177.919651 362.142 
C 177.919651 361.682655 177.737151 361.242061 177.412345 360.917255 
C 177.087539 360.592449 176.646945 360.409949 176.1876 360.409949 
C 175.728255 360.409949 175.287661 360.592449 174.962855 360.917255 
C 174.638049 361.242061 174.455549 361.682655 174.455549 362.142 
C 174.455549 362.601345 174.638049 363.041939 174.962855 363.366745 
C 175.287661 363.691551 175.728255 363.874051 176.1876 363.874051 
z
" clip-path="url(#pf641c1b8a6)" style="fill: #d6e0e4"/>
   </g>
   <g id="PathCollection_69">
    <path d="M 199.22148 363.874051 
C 199.680825 363.874051 200.121419 363.691551 200.446225 363.366745 
C 200.771031 363.041939 200.953531 362.601345 200.953531 362.142 
C 200.953531 361.682655 200.771031 361.242061 200.446225 360.917255 
C 200.121419 360.592449 199.680825 360.409949 199.22148 360.409949 
C 198.762135 360.409949 198.321541 360.592449 197.996735 360.917255 
C 197.671929 361.242061 197.489429 361.682655 197.489429 362.142 
C 197.489429 362.601345 197.671929 363.041939 197.996735 363.366745 
C 198.321541 363.691551 198.762135 363.874051 199.22148 363.874051 
z
" clip-path="url(#pf641c1b8a6)" style="fill: #d6e0e4"/>
   </g>
   <g id="PathCollection_70">
    <path d="M 222.25536 363.874051 
C 222.714705 363.874051 223.155299 363.691551 223.480105 363.366745 
C 223.804911 363.041939 223.987411 362.601345 223.987411 362.142 
C 223.987411 361.682655 223.804911 361.242061 223.480105 360.917255 
C 223.155299 360.592449 222.714705 360.409949 222.25536 360.409949 
C 221.796015 360.409949 221.355421 360.592449 221.030615 360.917255 
C 220.705809 361.242061 220.523309 361.682655 220.523309 362.142 
C 220.523309 362.601345 220.705809 363.041939 221.030615 363.366745 
C 221.355421 363.691551 221.796015 363.874051 222.25536 363.874051 
z
" clip-path="url(#pf641c1b8a6)" style="fill: #d6e0e4"/>
   </g>
   <g id="PathCollection_71">
    <path d="M 245.28924 363.874051 
C 245.748585 363.874051 246.189179 363.691551 246.513985 363.366745 
C 246.838791 363.041939 247.021291 362.601345 247.021291 362.142 
C 247.021291 361.682655 246.838791 361.242061 246.513985 360.917255 
C 246.189179 360.592449 245.748585 360.409949 245.28924 360.409949 
C 244.829895 360.409949 244.389301 360.592449 244.064495 360.917255 
C 243.739689 361.242061 243.557189 361.682655 243.557189 362.142 
C 243.557189 362.601345 243.739689 363.041939 244.064495 363.366745 
C 244.389301 363.691551 244.829895 363.874051 245.28924 363.874051 
z
" clip-path="url(#pf641c1b8a6)" style="fill: #d6e0e4"/>
   </g>
   <g id="PathCollection_72">
    <path d="M 291.357 363.874051 
C 291.816345 363.874051 292.256939 363.691551 292.581745 363.366745 
C 292.906551 363.041939 293.089051 362.601345 293.089051 362.142 
C 293.089051 361.682655 292.906551 361.242061 292.581745 360.917255 
C 292.256939 360.592449 291.816345 360.409949 291.357 360.409949 
C 290.897655 360.409949 290.457061 360.592449 290.132255 360.917255 
C 289.807449 361.242061 289.624949 361.682655 289.624949 362.142 
C 289.624949 362.601345 289.807449 363.041939 290.132255 363.366745 
C 290.457061 363.691551 290.897655 363.874051 291.357 363.874051 
z
" clip-path="url(#pf641c1b8a6)" style="fill: #d6e0e4"/>
   </g>
   <g id="PathCollection_73">
    <path d="M 314.39088 363.874051 
C 314.850225 363.874051 315.290819 363.691551 315.615625 363.366745 
C 315.940431 363.041939 316.122931 362.601345 316.122931 362.142 
C 316.122931 361.682655 315.940431 361.242061 315.615625 360.917255 
C 315.290819 360.592449 314.850225 360.409949 314.39088 360.409949 
C 313.931535 360.409949 313.490941 360.592449 313.166135 360.917255 
C 312.841329 361.242061 312.658829 361.682655 312.658829 362.142 
C 312.658829 362.601345 312.841329 363.041939 313.166135 363.366745 
C 313.490941 363.691551 313.931535 363.874051 314.39088 363.874051 
z
" clip-path="url(#pf641c1b8a6)" style="fill: #d6e0e4"/>
   </g>
   <g id="PathCollection_74">
    <path d="M 337.42476 363.874051 
C 337.884105 363.874051 338.324699 363.691551 338.649505 363.366745 
C 338.974311 363.041939 339.156811 362.601345 339.156811 362.142 
C 339.156811 361.682655 338.974311 361.242061 338.649505 360.917255 
C 338.324699 360.592449 337.884105 360.409949 337.42476 360.409949 
C 336.965415 360.409949 336.524821 360.592449 336.200015 360.917255 
C 335.875209 361.242061 335.692709 361.682655 335.692709 362.142 
C 335.692709 362.601345 335.875209 363.041939 336.200015 363.366745 
C 336.524821 363.691551 336.965415 363.874051 337.42476 363.874051 
z
" clip-path="url(#pf641c1b8a6)" style="fill: #d6e0e4"/>
   </g>
   <g id="PathCollection_75">
    <path d="M 176.1876 405.166051 
C 176.646945 405.166051 177.087539 404.983551 177.412345 404.658745 
C 177.737151 404.333939 177.919651 403.893345 177.919651 403.434 
C 177.919651 402.974655 177.737151 402.534061 177.412345 402.209255 
C 177.087539 401.884449 176.646945 401.701949 176.1876 401.701949 
C 175.728255 401.701949 175.287661 401.884449 174.962855 402.209255 
C 174.638049 402.534061 174.455549 402.974655 174.455549 403.434 
C 174.455549 403.893345 174.638049 404.333939 174.962855 404.658745 
C 175.287661 404.983551 175.728255 405.166051 176.1876 405.166051 
z
" clip-path="url(#pf641c1b8a6)" style="fill: #d6e0e4"/>
   </g>
   <g id="PathCollection_76">
    <path d="M 199.22148 405.166051 
C 199.680825 405.166051 200.121419 404.983551 200.446225 404.658745 
C 200.771031 404.333939 200.953531 403.893345 200.953531 403.434 
C 200.953531 402.974655 200.771031 402.534061 200.446225 402.209255 
C 200.121419 401.884449 199.680825 401.701949 199.22148 401.701949 
C 198.762135 401.701949 198.321541 401.884449 197.996735 402.209255 
C 197.671929 402.534061 197.489429 402.974655 197.489429 403.434 
C 197.489429 403.893345 197.671929 404.333939 197.996735 404.658745 
C 198.321541 404.983551 198.762135 405.166051 199.22148 405.166051 
z
" clip-path="url(#pf641c1b8a6)" style="fill: #d6e0e4"/>
   </g>
   <g id="PathCollection_77">
    <path d="M 222.25536 405.166051 
C 222.714705 405.166051 223.155299 404.983551 223.480105 404.658745 
C 223.804911 404.333939 223.987411 403.893345 223.987411 403.434 
C 223.987411 402.974655 223.804911 402.534061 223.480105 402.209255 
C 223.155299 401.884449 222.714705 401.701949 222.25536 401.701949 
C 221.796015 401.701949 221.355421 401.884449 221.030615 402.209255 
C 220.705809 402.534061 220.523309 402.974655 220.523309 403.434 
C 220.523309 403.893345 220.705809 404.333939 221.030615 404.658745 
C 221.355421 404.983551 221.796015 405.166051 222.25536 405.166051 
z
" clip-path="url(#pf641c1b8a6)" style="fill: #d6e0e4"/>
   </g>
   <g id="PathCollection_78">
    <path d="M 314.39088 405.166051 
C 314.850225 405.166051 315.290819 404.983551 315.615625 404.658745 
C 315.940431 404.333939 316.122931 403.893345 316.122931 403.434 
C 316.122931 402.974655 315.940431 402.534061 315.615625 402.209255 
C 315.290819 401.884449 314.850225 401.701949 314.39088 401.701949 
C 313.931535 401.701949 313.490941 401.884449 313.166135 402.209255 
C 312.841329 402.534061 312.658829 402.974655 312.658829 403.434 
C 312.658829 403.893345 312.841329 404.333939 313.166135 404.658745 
C 313.490941 404.983551 313.931535 405.166051 314.39088 405.166051 
z
" clip-path="url(#pf641c1b8a6)" style="fill: #d6e0e4"/>
   </g>
   <g id="PathCollection_79">
    <path d="M 337.42476 405.166051 
C 337.884105 405.166051 338.324699 404.983551 338.649505 404.658745 
C 338.974311 404.333939 339.156811 403.893345 339.156811 403.434 
C 339.156811 402.974655 338.974311 402.534061 338.649505 402.209255 
C 338.324699 401.884449 337.884105 401.701949 337.42476 401.701949 
C 336.965415 401.701949 336.524821 401.884449 336.200015 402.209255 
C 335.875209 402.534061 335.692709 402.974655 335.692709 403.434 
C 335.692709 403.893345 335.875209 404.333939 336.200015 404.658745 
C 336.524821 404.983551 336.965415 405.166051 337.42476 405.166051 
z
" clip-path="url(#pf641c1b8a6)" style="fill: #d6e0e4"/>
   </g>
   <g id="PathCollection_80">
    <path d="M 176.1876 425.254051 
C 176.646945 425.254051 177.087539 425.071551 177.412345 424.746745 
C 177.737151 424.421939 177.919651 423.981345 177.919651 423.522 
C 177.919651 423.062655 177.737151 422.622061 177.412345 422.297255 
C 177.087539 421.972449 176.646945 421.789949 176.1876 421.789949 
C 175.728255 421.789949 175.287661 421.972449 174.962855 422.297255 
C 174.638049 422.622061 174.455549 423.062655 174.455549 423.522 
C 174.455549 423.981345 174.638049 424.421939 174.962855 424.746745 
C 175.287661 425.071551 175.728255 425.254051 176.1876 425.254051 
z
" clip-path="url(#pf641c1b8a6)" style="fill: #d6e0e4"/>
   </g>
   <g id="PathCollection_81">
    <path d="M 199.22148 425.254051 
C 199.680825 425.254051 200.121419 425.071551 200.446225 424.746745 
C 200.771031 424.421939 200.953531 423.981345 200.953531 423.522 
C 200.953531 423.062655 200.771031 422.622061 200.446225 422.297255 
C 200.121419 421.972449 199.680825 421.789949 199.22148 421.789949 
C 198.762135 421.789949 198.321541 421.972449 197.996735 422.297255 
C 197.671929 422.622061 197.489429 423.062655 197.489429 423.522 
C 197.489429 423.981345 197.671929 424.421939 197.996735 424.746745 
C 198.321541 425.071551 198.762135 425.254051 199.22148 425.254051 
z
" clip-path="url(#pf641c1b8a6)" style="fill: #d6e0e4"/>
   </g>
   <g id="PathCollection_82">
    <path d="M 268.32312 425.254051 
C 268.782465 425.254051 269.223059 425.071551 269.547865 424.746745 
C 269.872671 424.421939 270.055171 423.981345 270.055171 423.522 
C 270.055171 423.062655 269.872671 422.622061 269.547865 422.297255 
C 269.223059 421.972449 268.782465 421.789949 268.32312 421.789949 
C 267.863775 421.789949 267.423181 421.972449 267.098375 422.297255 
C 266.773569 422.622061 266.591069 423.062655 266.591069 423.522 
C 266.591069 423.981345 266.773569 424.421939 267.098375 424.746745 
C 267.423181 425.071551 267.863775 425.254051 268.32312 425.254051 
z
" clip-path="url(#pf641c1b8a6)" style="fill: #d6e0e4"/>
   </g>
   <g id="PathCollection_83">
    <path d="M 314.39088 425.254051 
C 314.850225 425.254051 315.290819 425.071551 315.615625 424.746745 
C 315.940431 424.421939 316.122931 423.981345 316.122931 423.522 
C 316.122931 423.062655 315.940431 422.622061 315.615625 422.297255 
C 315.290819 421.972449 314.850225 421.789949 314.39088 421.789949 
C 313.931535 421.789949 313.490941 421.972449 313.166135 422.297255 
C 312.841329 422.622061 312.658829 423.062655 312.658829 423.522 
C 312.658829 423.981345 312.841329 424.421939 313.166135 424.746745 
C 313.490941 425.071551 313.931535 425.254051 314.39088 425.254051 
z
" clip-path="url(#pf641c1b8a6)" style="fill: #d6e0e4"/>
   </g>
   <g id="PathCollection_84">
    <path d="M 337.42476 425.254051 
C 337.884105 425.254051 338.324699 425.071551 338.649505 424.746745 
C 338.974311 424.421939 339.156811 423.981345 339.156811 423.522 
C 339.156811 423.062655 338.974311 422.622061 338.649505 422.297255 
C 338.324699 421.972449 337.884105 421.789949 337.42476 421.789949 
C 336.965415 421.789949 336.524821 421.972449 336.200015 422.297255 
C 335.875209 422.622061 335.692709 423.062655 335.692709 423.522 
C 335.692709 423.981345 335.875209 424.421939 336.200015 424.746745 
C 336.524821 425.071551 336.965415 425.254051 337.42476 425.254051 
z
" clip-path="url(#pf641c1b8a6)" style="fill: #d6e0e4"/>
   </g>
   <g id="PathCollection_85">
    <path d="M 176.1876 445.342051 
C 176.646945 445.342051 177.087539 445.159551 177.412345 444.834745 
C 177.737151 444.509939 177.919651 444.069345 177.919651 443.61 
C 177.919651 443.150655 177.737151 442.710061 177.412345 442.385255 
C 177.087539 442.060449 176.646945 441.877949 176.1876 441.877949 
C 175.728255 441.877949 175.287661 442.060449 174.962855 442.385255 
C 174.638049 442.710061 174.455549 443.150655 174.455549 443.61 
C 174.455549 444.069345 174.638049 444.509939 174.962855 444.834745 
C 175.287661 445.159551 175.728255 445.342051 176.1876 445.342051 
z
" clip-path="url(#pf641c1b8a6)" style="fill: #d6e0e4"/>
   </g>
   <g id="PathCollection_86">
    <path d="M 199.22148 445.342051 
C 199.680825 445.342051 200.121419 445.159551 200.446225 444.834745 
C 200.771031 444.509939 200.953531 444.069345 200.953531 443.61 
C 200.953531 443.150655 200.771031 442.710061 200.446225 442.385255 
C 200.121419 442.060449 199.680825 441.877949 199.22148 441.877949 
C 198.762135 441.877949 198.321541 442.060449 197.996735 442.385255 
C 197.671929 442.710061 197.489429 443.150655 197.489429 443.61 
C 197.489429 444.069345 197.671929 444.509939 197.996735 444.834745 
C 198.321541 445.159551 198.762135 445.342051 199.22148 445.342051 
z
" clip-path="url(#pf641c1b8a6)" style="fill: #d6e0e4"/>
   </g>
   <g id="PathCollection_87">
    <path d="M 222.25536 445.342051 
C 222.714705 445.342051 223.155299 445.159551 223.480105 444.834745 
C 223.804911 444.509939 223.987411 444.069345 223.987411 443.61 
C 223.987411 443.150655 223.804911 442.710061 223.480105 442.385255 
C 223.155299 442.060449 222.714705 441.877949 222.25536 441.877949 
C 221.796015 441.877949 221.355421 442.060449 221.030615 442.385255 
C 220.705809 442.710061 220.523309 443.150655 220.523309 443.61 
C 220.523309 444.069345 220.705809 444.509939 221.030615 444.834745 
C 221.355421 445.159551 221.796015 445.342051 222.25536 445.342051 
z
" clip-path="url(#pf641c1b8a6)" style="fill: #d6e0e4"/>
   </g>
   <g id="PathCollection_88">
    <path d="M 245.28924 445.342051 
C 245.748585 445.342051 246.189179 445.159551 246.513985 444.834745 
C 246.838791 444.509939 247.021291 444.069345 247.021291 443.61 
C 247.021291 443.150655 246.838791 442.710061 246.513985 442.385255 
C 246.189179 442.060449 245.748585 441.877949 245.28924 441.877949 
C 244.829895 441.877949 244.389301 442.060449 244.064495 442.385255 
C 243.739689 442.710061 243.557189 443.150655 243.557189 443.61 
C 243.557189 444.069345 243.739689 444.509939 244.064495 444.834745 
C 244.389301 445.159551 244.829895 445.342051 245.28924 445.342051 
z
" clip-path="url(#pf641c1b8a6)" style="fill: #d6e0e4"/>
   </g>
   <g id="PathCollection_89">
    <path d="M 268.32312 445.342051 
C 268.782465 445.342051 269.223059 445.159551 269.547865 444.834745 
C 269.872671 444.509939 270.055171 444.069345 270.055171 443.61 
C 270.055171 443.150655 269.872671 442.710061 269.547865 442.385255 
C 269.223059 442.060449 268.782465 441.877949 268.32312 441.877949 
C 267.863775 441.877949 267.423181 442.060449 267.098375 442.385255 
C 266.773569 442.710061 266.591069 443.150655 266.591069 443.61 
C 266.591069 444.069345 266.773569 444.509939 267.098375 444.834745 
C 267.423181 445.159551 267.863775 445.342051 268.32312 445.342051 
z
" clip-path="url(#pf641c1b8a6)" style="fill: #d6e0e4"/>
   </g>
   <g id="PathCollection_90">
    <path d="M 314.39088 445.342051 
C 314.850225 445.342051 315.290819 445.159551 315.615625 444.834745 
C 315.940431 444.509939 316.122931 444.069345 316.122931 443.61 
C 316.122931 443.150655 315.940431 442.710061 315.615625 442.385255 
C 315.290819 442.060449 314.850225 441.877949 314.39088 441.877949 
C 313.931535 441.877949 313.490941 442.060449 313.166135 442.385255 
C 312.841329 442.710061 312.658829 443.150655 312.658829 443.61 
C 312.658829 444.069345 312.841329 444.509939 313.166135 444.834745 
C 313.490941 445.159551 313.931535 445.342051 314.39088 445.342051 
z
" clip-path="url(#pf641c1b8a6)" style="fill: #d6e0e4"/>
   </g>
   <g id="PathCollection_91">
    <path d="M 337.42476 445.342051 
C 337.884105 445.342051 338.324699 445.159551 338.649505 444.834745 
C 338.974311 444.509939 339.156811 444.069345 339.156811 443.61 
C 339.156811 443.150655 338.974311 442.710061 338.649505 442.385255 
C 338.324699 442.060449 337.884105 441.877949 337.42476 441.877949 
C 336.965415 441.877949 336.524821 442.060449 336.200015 442.385255 
C 335.875209 442.710061 335.692709 443.150655 335.692709 443.61 
C 335.692709 444.069345 335.875209 444.509939 336.200015 444.834745 
C 336.524821 445.159551 336.965415 445.342051 337.42476 445.342051 
z
" clip-path="url(#pf641c1b8a6)" style="fill: #d6e0e4"/>
   </g>
   <g id="PathCollection_92">
    <path d="M 176.1876 465.430051 
C 176.646945 465.430051 177.087539 465.247551 177.412345 464.922745 
C 177.737151 464.597939 177.919651 464.157345 177.919651 463.698 
C 177.919651 463.238655 177.737151 462.798061 177.412345 462.473255 
C 177.087539 462.148449 176.646945 461.965949 176.1876 461.965949 
C 175.728255 461.965949 175.287661 462.148449 174.962855 462.473255 
C 174.638049 462.798061 174.455549 463.238655 174.455549 463.698 
C 174.455549 464.157345 174.638049 464.597939 174.962855 464.922745 
C 175.287661 465.247551 175.728255 465.430051 176.1876 465.430051 
z
" clip-path="url(#pf641c1b8a6)" style="fill: #d6e0e4"/>
   </g>
   <g id="PathCollection_93">
    <path d="M 314.39088 465.430051 
C 314.850225 465.430051 315.290819 465.247551 315.615625 464.922745 
C 315.940431 464.597939 316.122931 464.157345 316.122931 463.698 
C 316.122931 463.238655 315.940431 462.798061 315.615625 462.473255 
C 315.290819 462.148449 314.850225 461.965949 314.39088 461.965949 
C 313.931535 461.965949 313.490941 462.148449 313.166135 462.473255 
C 312.841329 462.798061 312.658829 463.238655 312.658829 463.698 
C 312.658829 464.157345 312.841329 464.597939 313.166135 464.922745 
C 313.490941 465.247551 313.931535 465.430051 314.39088 465.430051 
z
" clip-path="url(#pf641c1b8a6)" style="fill: #d6e0e4"/>
   </g>
   <g id="line2d_2">
    <path d="M 14.1264 507.222 
L 379.8432 507.222 
" clip-path="url(#pf641c1b8a6)" style="fill: none; stroke: #d9e2e6; stroke-width: 0.7; stroke-linecap: square"/>
   </g>
   <g id="text_1">
    <text style="fill: #26343e; font: 700 8.4px 'DejaVu Sans', sans-serif; text-anchor: start" x="16.0884" y="62.023875" transform="rotate(-0 16.0884 62.023875)">SOURCE / DOMAIN</text>
   </g>
   <g id="text_2">
    <text style="fill: #26343e; font: 700 8px 'DejaVu Sans', sans-serif; text-anchor: middle" x="176.1876" y="61.9135" transform="rotate(-0 176.1876 61.9135)">SEM</text>
   </g>
   <g id="text_3">
    <text style="fill: #26343e; font: 700 8px 'DejaVu Sans', sans-serif; text-anchor: middle" x="199.22148" y="61.9135" transform="rotate(-0 199.22148 61.9135)">RTE</text>
   </g>
   <g id="text_4">
    <text style="fill: #26343e; font: 700 8px 'DejaVu Sans', sans-serif; text-anchor: middle" x="222.25536" y="61.9135" transform="rotate(-0 222.25536 61.9135)">EVD</text>
   </g>
   <g id="text_5">
    <text style="fill: #26343e; font: 700 8px 'DejaVu Sans', sans-serif; text-anchor: middle" x="245.28924" y="61.9135" transform="rotate(-0 245.28924 61.9135)">ORD</text>
   </g>
   <g id="text_6">
    <text style="fill: #26343e; font: 700 8px 'DejaVu Sans', sans-serif; text-anchor: middle" x="268.32312" y="61.9135" transform="rotate(-0 268.32312 61.9135)">SFT</text>
   </g>
   <g id="text_7">
    <text style="fill: #26343e; font: 700 8px 'DejaVu Sans', sans-serif; text-anchor: middle" x="291.357" y="61.9135" transform="rotate(-0 291.357 61.9135)">FLW</text>
   </g>
   <g id="text_8">
    <text style="fill: #26343e; font: 700 8px 'DejaVu Sans', sans-serif; text-anchor: middle" x="314.39088" y="61.9135" transform="rotate(-0 314.39088 61.9135)">REJ</text>
   </g>
   <g id="text_9">
    <text style="fill: #26343e; font: 700 8px 'DejaVu Sans', sans-serif; text-anchor: middle" x="337.42476" y="61.9135" transform="rotate(-0 337.42476 61.9135)">RET</text>
   </g>
   <g id="text_10">
    <text style="fill: #26343e; font: 700 8.2px 'DejaVu Sans', sans-serif; text-anchor: middle" x="369.6408" y="61.968688" transform="rotate(-0 369.6408 61.968688)">REF</text>
   </g>
   <g id="text_11">
    <text style="fill: #235f7a; font: 700 8.15px 'DejaVu Sans', sans-serif; text-anchor: start" x="19.62" y="83.716891" transform="rotate(-0 19.62 83.716891)">LANGUAGE &amp; AFFECT</text>
   </g>
   <g id="text_12">
    <text style="fill: #26343e; font: 500 9.25px 'DejaVu Sans', sans-serif; text-anchor: start" x="16.0884" y="95.738422" transform="rotate(-0 16.0884 95.738422)">AG News</text>
   </g>
   <g id="text_13">
    <text style="fill: #61717a; font: 8.2px 'DejaVu Sans', sans-serif; text-anchor: start" x="16.0884" y="106.050688" transform="rotate(-0 16.0884 106.050688)">News</text>
   </g>
   <g id="PathCollection_94">
    <defs>
     <path id="m4e45b02662" d="M 0 3.605551 
C 0.956203 3.605551 1.873372 3.225648 2.54951 2.54951 
C 3.225648 1.873372 3.605551 0.956203 3.605551 0 
C 3.605551 -0.956203 3.225648 -1.873372 2.54951 -2.54951 
C 1.873372 -3.225648 0.956203 -3.605551 0 -3.605551 
C -0.956203 -3.605551 -1.873372 -3.225648 -2.54951 -2.54951 
C -3.225648 -1.873372 -3.605551 -0.956203 -3.605551 0 
C -3.605551 0.956203 -3.225648 1.873372 -2.54951 2.54951 
C -1.873372 3.225648 -0.956203 3.605551 0 3.605551 
z
" style="stroke: #ffffff; stroke-width: 0.45"/>
    </defs>
    <g clip-path="url(#pf641c1b8a6)">
     <use xlink:href="#m4e45b02662" x="176.1876" y="97.65" style="fill: #235f7a; stroke: #ffffff; stroke-width: 0.45"/>
    </g>
   </g>
   <g id="text_14">
    <text style="fill: #61717a; font: 700 9px 'DejaVu Sans', sans-serif; text-anchor: middle" x="369.6408" y="100.133438" transform="rotate(-0 369.6408 100.133438)">D</text>
   </g>
   <g id="text_15">
    <text style="fill: #26343e; font: 500 9.25px 'DejaVu Sans', sans-serif; text-anchor: start" x="16.0884" y="115.826422" transform="rotate(-0 16.0884 115.826422)">Emotion</text>
   </g>
   <g id="text_16">
    <text style="fill: #61717a; font: 8.2px 'DejaVu Sans', sans-serif; text-anchor: start" x="16.0884" y="126.138688" transform="rotate(-0 16.0884 126.138688)">Social text</text>
   </g>
   <g id="PathCollection_95">
    <g clip-path="url(#pf641c1b8a6)">
     <use xlink:href="#m4e45b02662" x="176.1876" y="117.738" style="fill: #235f7a; stroke: #ffffff; stroke-width: 0.45"/>
    </g>
   </g>
   <g id="text_17">
    <text style="fill: #61717a; font: 700 9px 'DejaVu Sans', sans-serif; text-anchor: middle" x="369.6408" y="120.221438" transform="rotate(-0 369.6408 120.221438)">D</text>
   </g>
   <g id="text_18">
    <text style="fill: #26343e; font: 500 9.25px 'DejaVu Sans', sans-serif; text-anchor: start" x="16.0884" y="135.914422" transform="rotate(-0 16.0884 135.914422)">SST-5</text>
   </g>
   <g id="text_19">
    <text style="fill: #61717a; font: 8.2px 'DejaVu Sans', sans-serif; text-anchor: start" x="16.0884" y="146.226688" transform="rotate(-0 16.0884 146.226688)">Reviews</text>
   </g>
   <g id="PathCollection_96">
    <g clip-path="url(#pf641c1b8a6)">
     <use xlink:href="#m4e45b02662" x="176.1876" y="137.826" style="fill: #235f7a; stroke: #ffffff; stroke-width: 0.45"/>
    </g>
   </g>
   <g id="PathCollection_97">
    <g clip-path="url(#pf641c1b8a6)">
     <use xlink:href="#m4e45b02662" x="245.28924" y="137.826" style="fill: #235f7a; stroke: #ffffff; stroke-width: 0.45"/>
    </g>
   </g>
   <g id="text_20">
    <text style="fill: #61717a; font: 700 9px 'DejaVu Sans', sans-serif; text-anchor: middle" x="369.6408" y="140.309438" transform="rotate(-0 369.6408 140.309438)">D</text>
   </g>
   <g id="text_21">
    <text style="fill: #235f7a; font: 700 8.15px 'DejaVu Sans', sans-serif; text-anchor: start" x="19.62" y="165.184891" transform="rotate(-0 19.62 165.184891)">SERVICE &amp; ROUTING</text>
   </g>
   <g id="text_22">
    <text style="fill: #26343e; font: 500 9.25px 'DejaVu Sans', sans-serif; text-anchor: start" x="16.0884" y="177.206422" transform="rotate(-0 16.0884 177.206422)">Banking77</text>
   </g>
   <g id="text_23">
    <text style="fill: #61717a; font: 8.2px 'DejaVu Sans', sans-serif; text-anchor: start" x="16.0884" y="187.518688" transform="rotate(-0 16.0884 187.518688)">Banking support</text>
   </g>
   <g id="PathCollection_98">
    <g clip-path="url(#pf641c1b8a6)">
     <use xlink:href="#m4e45b02662" x="199.22148" y="179.118" style="fill: #235f7a; stroke: #ffffff; stroke-width: 0.45"/>
    </g>
   </g>
   <g id="text_24">
    <text style="fill: #61717a; font: 700 9px 'DejaVu Sans', sans-serif; text-anchor: middle" x="369.6408" y="181.601438" transform="rotate(-0 369.6408 181.601438)">D</text>
   </g>
   <g id="text_25">
    <text style="fill: #26343e; font: 500 9.25px 'DejaVu Sans', sans-serif; text-anchor: start" x="16.0884" y="197.294422" transform="rotate(-0 16.0884 197.294422)">MASSIVE</text>
   </g>
   <g id="text_26">
    <text style="fill: #61717a; font: 8.2px 'DejaVu Sans', sans-serif; text-anchor: start" x="16.0884" y="207.606688" transform="rotate(-0 16.0884 207.606688)">Assistant commands</text>
   </g>
   <g id="PathCollection_99">
    <g clip-path="url(#pf641c1b8a6)">
     <use xlink:href="#m4e45b02662" x="199.22148" y="199.206" style="fill: #235f7a; stroke: #ffffff; stroke-width: 0.45"/>
    </g>
   </g>
   <g id="text_27">
    <text style="fill: #61717a; font: 700 9px 'DejaVu Sans', sans-serif; text-anchor: middle" x="369.6408" y="201.689438" transform="rotate(-0 369.6408 201.689438)">D</text>
   </g>
   <g id="text_28">
    <text style="fill: #26343e; font: 500 9.25px 'DejaVu Sans', sans-serif; text-anchor: start" x="16.0884" y="217.382422" transform="rotate(-0 16.0884 217.382422)">CLINC150/OOS</text>
   </g>
   <g id="text_29">
    <text style="fill: #61717a; font: 8.2px 'DejaVu Sans', sans-serif; text-anchor: start" x="16.0884" y="227.694688" transform="rotate(-0 16.0884 227.694688)">Assistant intents</text>
   </g>
   <g id="PathCollection_100">
    <g clip-path="url(#pf641c1b8a6)">
     <use xlink:href="#m4e45b02662" x="199.22148" y="219.294" style="fill: #235f7a; stroke: #ffffff; stroke-width: 0.45"/>
    </g>
   </g>
   <g id="PathCollection_101">
    <g clip-path="url(#pf641c1b8a6)">
     <use xlink:href="#m4e45b02662" x="314.39088" y="219.294" style="fill: #235f7a; stroke: #ffffff; stroke-width: 0.45"/>
    </g>
   </g>
   <g id="text_30">
    <text style="fill: #61717a; font: 700 9px 'DejaVu Sans', sans-serif; text-anchor: middle" x="369.6408" y="221.777438" transform="rotate(-0 369.6408 221.777438)">D</text>
   </g>
   <g id="text_31">
    <text style="fill: #235f7a; font: 700 8.15px 'DejaVu Sans', sans-serif; text-anchor: start" x="19.62" y="246.652891" transform="rotate(-0 19.62 246.652891)">EVIDENCE &amp; INFERENCE</text>
   </g>
   <g id="text_32">
    <text style="fill: #26343e; font: 500 9.25px 'DejaVu Sans', sans-serif; text-anchor: start" x="16.0884" y="258.674422" transform="rotate(-0 16.0884 258.674422)">BoolQ</text>
   </g>
   <g id="text_33">
    <text style="fill: #61717a; font: 8.2px 'DejaVu Sans', sans-serif; text-anchor: start" x="16.0884" y="268.986688" transform="rotate(-0 16.0884 268.986688)">General QA</text>
   </g>
   <g id="PathCollection_102">
    <g clip-path="url(#pf641c1b8a6)">
     <use xlink:href="#m4e45b02662" x="222.25536" y="260.586" style="fill: #235f7a; stroke: #ffffff; stroke-width: 0.45"/>
    </g>
   </g>
   <g id="text_34">
    <text style="fill: #61717a; font: 700 9px 'DejaVu Sans', sans-serif; text-anchor: middle" x="369.6408" y="263.069438" transform="rotate(-0 369.6408 263.069438)">D</text>
   </g>
   <g id="text_35">
    <text style="fill: #26343e; font: 500 9.25px 'DejaVu Sans', sans-serif; text-anchor: start" x="16.0884" y="278.762422" transform="rotate(-0 16.0884 278.762422)">XNLI</text>
   </g>
   <g id="text_36">
    <text style="fill: #61717a; font: 8.2px 'DejaVu Sans', sans-serif; text-anchor: start" x="16.0884" y="289.074688" transform="rotate(-0 16.0884 289.074688)">Natural inference</text>
   </g>
   <g id="PathCollection_103">
    <g clip-path="url(#pf641c1b8a6)">
     <use xlink:href="#m4e45b02662" x="176.1876" y="280.674" style="fill: #235f7a; stroke: #ffffff; stroke-width: 0.45"/>
    </g>
   </g>
   <g id="PathCollection_104">
    <g clip-path="url(#pf641c1b8a6)">
     <use xlink:href="#m4e45b02662" x="222.25536" y="280.674" style="fill: #235f7a; stroke: #ffffff; stroke-width: 0.45"/>
    </g>
   </g>
   <g id="text_37">
    <text style="fill: #61717a; font: 700 9px 'DejaVu Sans', sans-serif; text-anchor: middle" x="369.6408" y="283.157438" transform="rotate(-0 369.6408 283.157438)">D</text>
   </g>
   <g id="text_38">
    <text style="fill: #26343e; font: 500 9.25px 'DejaVu Sans', sans-serif; text-anchor: start" x="16.0884" y="298.850422" transform="rotate(-0 16.0884 298.850422)">TurtleBench</text>
   </g>
   <g id="text_39">
    <text style="fill: #61717a; font: 8.2px 'DejaVu Sans', sans-serif; text-anchor: start" x="16.0884" y="309.162688" transform="rotate(-0 16.0884 309.162688)">Puzzle evidence</text>
   </g>
   <g id="PathCollection_105">
    <g clip-path="url(#pf641c1b8a6)">
     <use xlink:href="#m4e45b02662" x="222.25536" y="300.762" style="fill: #235f7a; stroke: #ffffff; stroke-width: 0.45"/>
    </g>
   </g>
   <g id="text_40">
    <text style="fill: #61717a; font: 700 9px 'DejaVu Sans', sans-serif; text-anchor: middle" x="369.6408" y="303.245438" transform="rotate(-0 369.6408 303.245438)">D</text>
   </g>
   <g id="text_41">
    <text style="fill: #235f7a; font: 700 8.15px 'DejaVu Sans', sans-serif; text-anchor: start" x="19.62" y="328.120891" transform="rotate(-0 19.62 328.120891)">SAFETY</text>
   </g>
   <g id="text_42">
    <text style="fill: #26343e; font: 500 9.25px 'DejaVu Sans', sans-serif; text-anchor: start" x="16.0884" y="340.142422" transform="rotate(-0 16.0884 340.142422)">Prompt injections</text>
   </g>
   <g id="text_43">
    <text style="fill: #61717a; font: 8.2px 'DejaVu Sans', sans-serif; text-anchor: start" x="16.0884" y="350.454688" transform="rotate(-0 16.0884 350.454688)">Prompt security</text>
   </g>
   <g id="PathCollection_106">
    <g clip-path="url(#pf641c1b8a6)">
     <use xlink:href="#m4e45b02662" x="268.32312" y="342.054" style="fill: #235f7a; stroke: #ffffff; stroke-width: 0.45"/>
    </g>
   </g>
   <g id="text_44">
    <text style="fill: #61717a; font: 700 9px 'DejaVu Sans', sans-serif; text-anchor: middle" x="369.6408" y="344.537438" transform="rotate(-0 369.6408 344.537438)">D</text>
   </g>
   <g id="text_45">
    <text style="fill: #26343e; font: 500 9.25px 'DejaVu Sans', sans-serif; text-anchor: start" x="16.0884" y="360.230422" transform="rotate(-0 16.0884 360.230422)">Aegis2 prompts</text>
   </g>
   <g id="text_46">
    <text style="fill: #61717a; font: 8.2px 'DejaVu Sans', sans-serif; text-anchor: start" x="16.0884" y="370.542688" transform="rotate(-0 16.0884 370.542688)">Content safety</text>
   </g>
   <g id="PathCollection_107">
    <g clip-path="url(#pf641c1b8a6)">
     <use xlink:href="#m4e45b02662" x="268.32312" y="362.142" style="fill: #235f7a; stroke: #ffffff; stroke-width: 0.45"/>
    </g>
   </g>
   <g id="text_47">
    <text style="fill: #a8782c; font: 700 9px 'DejaVu Sans', sans-serif; text-anchor: middle" x="369.6408" y="364.625438" transform="rotate(-0 369.6408 364.625438)">H</text>
   </g>
   <g id="text_48">
    <text style="fill: #235f7a; font: 700 8.15px 'DejaVu Sans', sans-serif; text-anchor: start" x="19.62" y="389.500891" transform="rotate(-0 19.62 389.500891)">WORKFLOW FIXTURES</text>
   </g>
   <g id="text_49">
    <text style="fill: #26343e; font: 500 9.25px 'DejaVu Sans', sans-serif; text-anchor: start" x="16.0884" y="401.522422" transform="rotate(-0 16.0884 401.522422)">Typed decisions</text>
   </g>
   <g id="text_50">
    <text style="fill: #61717a; font: 8.2px 'DejaVu Sans', sans-serif; text-anchor: start" x="16.0884" y="411.834688" transform="rotate(-0 16.0884 411.834688)">Mixed enterprise</text>
   </g>
   <g id="PathCollection_108">
    <g clip-path="url(#pf641c1b8a6)">
     <use xlink:href="#m4e45b02662" x="245.28924" y="403.434" style="fill: #235f7a; stroke: #ffffff; stroke-width: 0.45"/>
    </g>
   </g>
   <g id="PathCollection_109">
    <g clip-path="url(#pf641c1b8a6)">
     <use xlink:href="#m4e45b02662" x="268.32312" y="403.434" style="fill: #235f7a; stroke: #ffffff; stroke-width: 0.45"/>
    </g>
   </g>
   <g id="PathCollection_110">
    <g clip-path="url(#pf641c1b8a6)">
     <use xlink:href="#m4e45b02662" x="291.357" y="403.434" style="fill: #235f7a; stroke: #ffffff; stroke-width: 0.45"/>
    </g>
   </g>
   <g id="text_51">
    <text style="fill: #a8782c; font: 700 9px 'DejaVu Sans', sans-serif; text-anchor: middle" x="369.6408" y="405.917438" transform="rotate(-0 369.6408 405.917438)">T</text>
   </g>
   <g id="text_52">
    <text style="fill: #26343e; font: 500 9.25px 'DejaVu Sans', sans-serif; text-anchor: start" x="16.0884" y="421.610422" transform="rotate(-0 16.0884 421.610422)">JevBench</text>
   </g>
   <g id="text_53">
    <text style="fill: #61717a; font: 8.2px 'DejaVu Sans', sans-serif; text-anchor: start" x="16.0884" y="431.922688" transform="rotate(-0 16.0884 431.922688)">Mixed fixtures</text>
   </g>
   <g id="PathCollection_111">
    <g clip-path="url(#pf641c1b8a6)">
     <use xlink:href="#m4e45b02662" x="222.25536" y="423.522" style="fill: #235f7a; stroke: #ffffff; stroke-width: 0.45"/>
    </g>
   </g>
   <g id="PathCollection_112">
    <g clip-path="url(#pf641c1b8a6)">
     <use xlink:href="#m4e45b02662" x="245.28924" y="423.522" style="fill: #235f7a; stroke: #ffffff; stroke-width: 0.45"/>
    </g>
   </g>
   <g id="PathCollection_113">
    <g clip-path="url(#pf641c1b8a6)">
     <use xlink:href="#m4e45b02662" x="291.357" y="423.522" style="fill: #235f7a; stroke: #ffffff; stroke-width: 0.45"/>
    </g>
   </g>
   <g id="text_54">
    <text style="fill: #a8782c; font: 700 9px 'DejaVu Sans', sans-serif; text-anchor: middle" x="369.6408" y="426.005438" transform="rotate(-0 369.6408 426.005438)">A</text>
   </g>
   <g id="text_55">
    <text style="fill: #26343e; font: 500 9.25px 'DejaVu Sans', sans-serif; text-anchor: start" x="16.0884" y="441.698422" transform="rotate(-0 16.0884 441.698422)">ReflexBench</text>
   </g>
   <g id="text_56">
    <text style="fill: #61717a; font: 8.2px 'DejaVu Sans', sans-serif; text-anchor: start" x="16.0884" y="452.010688" transform="rotate(-0 16.0884 452.010688)">Product workflow</text>
   </g>
   <g id="PathCollection_114">
    <g clip-path="url(#pf641c1b8a6)">
     <use xlink:href="#m4e45b02662" x="291.357" y="443.61" style="fill: #235f7a; stroke: #ffffff; stroke-width: 0.45"/>
    </g>
   </g>
   <g id="text_57">
    <text style="fill: #a8782c; font: 700 9px 'DejaVu Sans', sans-serif; text-anchor: middle" x="369.6408" y="446.093438" transform="rotate(-0 369.6408 446.093438)">A</text>
   </g>
   <g id="text_58">
    <text style="fill: #26343e; font: 500 9.25px 'DejaVu Sans', sans-serif; text-anchor: start" x="16.0884" y="461.786422" transform="rotate(-0 16.0884 461.786422)">Jev–Laya</text>
   </g>
   <g id="text_59">
    <text style="fill: #61717a; font: 8.2px 'DejaVu Sans', sans-serif; text-anchor: start" x="16.0884" y="472.098688" transform="rotate(-0 16.0884 472.098688)">Mixed workflow</text>
   </g>
   <g id="PathCollection_115">
    <g clip-path="url(#pf641c1b8a6)">
     <use xlink:href="#m4e45b02662" x="199.22148" y="463.698" style="fill: #235f7a; stroke: #ffffff; stroke-width: 0.45"/>
    </g>
   </g>
   <g id="PathCollection_116">
    <g clip-path="url(#pf641c1b8a6)">
     <use xlink:href="#m4e45b02662" x="222.25536" y="463.698" style="fill: #235f7a; stroke: #ffffff; stroke-width: 0.45"/>
    </g>
   </g>
   <g id="PathCollection_117">
    <g clip-path="url(#pf641c1b8a6)">
     <use xlink:href="#m4e45b02662" x="245.28924" y="463.698" style="fill: #235f7a; stroke: #ffffff; stroke-width: 0.45"/>
    </g>
   </g>
   <g id="PathCollection_118">
    <g clip-path="url(#pf641c1b8a6)">
     <use xlink:href="#m4e45b02662" x="268.32312" y="463.698" style="fill: #235f7a; stroke: #ffffff; stroke-width: 0.45"/>
    </g>
   </g>
   <g id="PathCollection_119">
    <g clip-path="url(#pf641c1b8a6)">
     <use xlink:href="#m4e45b02662" x="291.357" y="463.698" style="fill: #235f7a; stroke: #ffffff; stroke-width: 0.45"/>
    </g>
   </g>
   <g id="PathCollection_120">
    <g clip-path="url(#pf641c1b8a6)">
     <use xlink:href="#m4e45b02662" x="337.42476" y="463.698" style="fill: #235f7a; stroke: #ffffff; stroke-width: 0.45"/>
    </g>
   </g>
   <g id="text_60">
    <text style="fill: #a8782c; font: 700 9px 'DejaVu Sans', sans-serif; text-anchor: middle" x="369.6408" y="466.181438" transform="rotate(-0 369.6408 466.181438)">T/P</text>
   </g>
   <g id="text_61">
    <text style="fill: #61717a; font: 8px 'DejaVu Sans', sans-serif; text-anchor: start" x="16.0884" y="518.9155" transform="rotate(-0 16.0884 518.9155)">SEM semantic  ·  RTE routing  ·  EVD evidence  ·  ORD ordinal</text>
   </g>
   <g id="text_62">
    <text style="fill: #61717a; font: 8px 'DejaVu Sans', sans-serif; text-anchor: start" x="16.0884" y="529.5175" transform="rotate(-0 16.0884 529.5175)">SFT safety  ·  FLW workflow  ·  REJ rejection  ·  RET retrieval</text>
   </g>
   <g id="text_63">
    <text style="fill: #61717a; font: 8px 'DejaVu Sans', sans-serif; text-anchor: start" x="16.0884" y="541.2355" transform="rotate(-0 16.0884 541.2355)">REF: D dataset  ·  H human  ·  T teacher  ·  A authored  ·  P program</text>
   </g>
  </g>
  <g id="text_64">
   <text style="fill: #26343e; font: 700 12.2px 'DejaVu Sans', sans-serif; text-anchor: start" x="14.5188" y="21.546094" transform="rotate(-0 14.5188 21.546094)">Fifteen sources, eight decision functions</text>
  </g>
  <g id="text_65">
   <text style="fill: #61717a; font: 8.6px 'DejaVu Sans', sans-serif; text-anchor: start" x="14.9112" y="36.666656" transform="rotate(-0 14.9112 36.666656)">Historical suite atlas  ·  28 main suites  ·  function tags overlap</text>
  </g>
 </g>
 <defs>
  <clipPath id="pf641c1b8a6">
   <rect x="0" y="0" width="392.4" height="558"/>
  </clipPath>
 </defs>
</svg>
