<?xml version="1.0" encoding="utf-8" standalone="no"?>
<!DOCTYPE svg PUBLIC "-//W3C//DTD SVG 1.1//EN"
  "http://www.w3.org/Graphics/SVG/1.1/DTD/svg11.dtd">
<svg xmlns:xlink="http://www.w3.org/1999/xlink" width="504.54pt" height="414.612pt" viewBox="0 0 504.54 414.612" xmlns="http://www.w3.org/2000/svg" version="1.1">
 <metadata>
  <rdf:RDF xmlns:dc="http://purl.org/dc/elements/1.1/" xmlns:cc="http://creativecommons.org/ns#" xmlns:rdf="http://www.w3.org/1999/02/22-rdf-syntax-ns#">
   <cc:Work>
    <dc:type rdf:resource="http://purl.org/dc/dcmitype/StillImage"/>
    <dc:date>2026-09-29T23:27:44.982596</dc:date>
    <dc:format>image/svg+xml</dc:format>
    <dc:creator>
     <cc:Agent>
      <dc:title>Matplotlib v3.10.8, https://matplotlib.org/</dc:title>
     </cc:Agent>
    </dc:creator>
   </cc:Work>
  </rdf:RDF>
 </metadata>
 <defs>
  <style type="text/css">*{stroke-linejoin: round; stroke-linecap: butt}</style>
 </defs>
 <g id="figure_1">
  <g id="patch_1">
   <path d="M 0 414.612 
L 504.54 414.612 
L 504.54 0 
L 0 0 
z
" style="fill: #ffffff"/>
  </g>
  <g id="axes_1">
   <g id="patch_2">
    <path d="M 4.32 85.241018 
L 498.195918 85.241018 
L 498.195918 71.025164 
L 4.32 71.025164 
z
" clip-path="url(#p436f8a1db7)" style="fill: #f6f8f8"/>
   </g>
   <g id="patch_3">
    <path d="M 4.32 117.500073 
L 498.195918 117.500073 
L 498.195918 103.284218 
L 4.32 103.284218 
z
" clip-path="url(#p436f8a1db7)" style="fill: #f6f8f8"/>
   </g>
   <g id="patch_4">
    <path d="M 4.32 164.795127 
L 498.195918 164.795127 
L 498.195918 150.579273 
L 4.32 150.579273 
z
" clip-path="url(#p436f8a1db7)" style="fill: #f6f8f8"/>
   </g>
   <g id="patch_5">
    <path d="M 4.32 212.090182 
L 498.195918 212.090182 
L 498.195918 197.874327 
L 4.32 197.874327 
z
" clip-path="url(#p436f8a1db7)" style="fill: #f6f8f8"/>
   </g>
   <g id="patch_6">
    <path d="M 4.32 244.349236 
L 498.195918 244.349236 
L 498.195918 230.133382 
L 4.32 230.133382 
z
" clip-path="url(#p436f8a1db7)" style="fill: #f6f8f8"/>
   </g>
   <g id="patch_7">
    <path d="M 4.32 291.644291 
L 498.195918 291.644291 
L 498.195918 277.428436 
L 4.32 277.428436 
z
" clip-path="url(#p436f8a1db7)" style="fill: #f6f8f8"/>
   </g>
   <g id="patch_8">
    <path d="M 4.32 338.939345 
L 498.195918 338.939345 
L 498.195918 324.723491 
L 4.32 324.723491 
z
" clip-path="url(#p436f8a1db7)" style="fill: #f6f8f8"/>
   </g>
   <g id="patch_9">
    <path d="M 4.32 371.1984 
L 498.195918 371.1984 
L 498.195918 356.982545 
L 4.32 356.982545 
z
" clip-path="url(#p436f8a1db7)" style="fill: #f6f8f8"/>
   </g>
   <g id="line2d_1">
    <path d="M 4.32 59.543127 
L 498.195918 59.543127 
" clip-path="url(#p436f8a1db7)" style="fill: none; stroke: #26343e; stroke-width: 0.8; stroke-linecap: square"/>
   </g>
   <g id="line2d_2">
    <path d="M 98.237388 69.111491 
L 498.195918 69.111491 
" clip-path="url(#p436f8a1db7)" style="fill: none; stroke: #d8e0e3; stroke-width: 0.55; stroke-linecap: square"/>
   </g>
   <g id="PathCollection_1">
    <path d="M 247.209796 79.547304 
C 247.58485 79.547304 247.944593 79.398294 248.209796 79.133091 
C 248.474999 78.867888 248.624009 78.508145 248.624009 78.133091 
C 248.624009 77.758037 248.474999 77.398294 248.209796 77.133091 
C 247.944593 76.867888 247.58485 76.718877 247.209796 76.718877 
C 246.834742 76.718877 246.474999 76.867888 246.209796 77.133091 
C 245.944593 77.398294 245.795582 77.758037 245.795582 78.133091 
C 245.795582 78.508145 245.944593 78.867888 246.209796 79.133091 
C 246.474999 79.398294 246.834742 79.547304 247.209796 79.547304 
z
" clip-path="url(#p436f8a1db7)" style="fill: #d6dee2"/>
   </g>
   <g id="PathCollection_2">
    <path d="M 275.142122 79.547304 
C 275.517176 79.547304 275.876919 79.398294 276.142122 79.133091 
C 276.407326 78.867888 276.556336 78.508145 276.556336 78.133091 
C 276.556336 77.758037 276.407326 77.398294 276.142122 77.133091 
C 275.876919 76.867888 275.517176 76.718877 275.142122 76.718877 
C 274.767069 76.718877 274.407326 76.867888 274.142122 77.133091 
C 273.876919 77.398294 273.727909 77.758037 273.727909 78.133091 
C 273.727909 78.508145 273.876919 78.867888 274.142122 79.133091 
C 274.407326 79.398294 274.767069 79.547304 275.142122 79.547304 
z
" clip-path="url(#p436f8a1db7)" style="fill: #d6dee2"/>
   </g>
   <g id="PathCollection_3">
    <path d="M 303.074449 79.547304 
C 303.449503 79.547304 303.809246 79.398294 304.074449 79.133091 
C 304.339652 78.867888 304.488663 78.508145 304.488663 78.133091 
C 304.488663 77.758037 304.339652 77.398294 304.074449 77.133091 
C 303.809246 76.867888 303.449503 76.718877 303.074449 76.718877 
C 302.699395 76.718877 302.339652 76.867888 302.074449 77.133091 
C 301.809246 77.398294 301.660235 77.758037 301.660235 78.133091 
C 301.660235 78.508145 301.809246 78.867888 302.074449 79.133091 
C 302.339652 79.398294 302.699395 79.547304 303.074449 79.547304 
z
" clip-path="url(#p436f8a1db7)" style="fill: #d6dee2"/>
   </g>
   <g id="PathCollection_4">
    <path d="M 331.006776 79.547304 
C 331.381829 79.547304 331.741572 79.398294 332.006776 79.133091 
C 332.271979 78.867888 332.420989 78.508145 332.420989 78.133091 
C 332.420989 77.758037 332.271979 77.398294 332.006776 77.133091 
C 331.741572 76.867888 331.381829 76.718877 331.006776 76.718877 
C 330.631722 76.718877 330.271979 76.867888 330.006776 77.133091 
C 329.741572 77.398294 329.592562 77.758037 329.592562 78.133091 
C 329.592562 78.508145 329.741572 78.867888 330.006776 79.133091 
C 330.271979 79.398294 330.631722 79.547304 331.006776 79.547304 
z
" clip-path="url(#p436f8a1db7)" style="fill: #d6dee2"/>
   </g>
   <g id="PathCollection_5">
    <path d="M 358.939102 79.547304 
C 359.314156 79.547304 359.673899 79.398294 359.939102 79.133091 
C 360.204305 78.867888 360.353316 78.508145 360.353316 78.133091 
C 360.353316 77.758037 360.204305 77.398294 359.939102 77.133091 
C 359.673899 76.867888 359.314156 76.718877 358.939102 76.718877 
C 358.564048 76.718877 358.204305 76.867888 357.939102 77.133091 
C 357.673899 77.398294 357.524888 77.758037 357.524888 78.133091 
C 357.524888 78.508145 357.673899 78.867888 357.939102 79.133091 
C 358.204305 79.398294 358.564048 79.547304 358.939102 79.547304 
z
" clip-path="url(#p436f8a1db7)" style="fill: #d6dee2"/>
   </g>
   <g id="PathCollection_6">
    <path d="M 386.871429 79.547304 
C 387.246482 79.547304 387.606225 79.398294 387.871429 79.133091 
C 388.136632 78.867888 388.285642 78.508145 388.285642 78.133091 
C 388.285642 77.758037 388.136632 77.398294 387.871429 77.133091 
C 387.606225 76.867888 387.246482 76.718877 386.871429 76.718877 
C 386.496375 76.718877 386.136632 76.867888 385.871429 77.133091 
C 385.606225 77.398294 385.457215 77.758037 385.457215 78.133091 
C 385.457215 78.508145 385.606225 78.867888 385.871429 79.133091 
C 386.136632 79.398294 386.496375 79.547304 386.871429 79.547304 
z
" clip-path="url(#p436f8a1db7)" style="fill: #d6dee2"/>
   </g>
   <g id="PathCollection_7">
    <path d="M 414.803755 79.547304 
C 415.178809 79.547304 415.538552 79.398294 415.803755 79.133091 
C 416.068958 78.867888 416.217969 78.508145 416.217969 78.133091 
C 416.217969 77.758037 416.068958 77.398294 415.803755 77.133091 
C 415.538552 76.867888 415.178809 76.718877 414.803755 76.718877 
C 414.428701 76.718877 414.068958 76.867888 413.803755 77.133091 
C 413.538552 77.398294 413.389542 77.758037 413.389542 78.133091 
C 413.389542 78.508145 413.538552 78.867888 413.803755 79.133091 
C 414.068958 79.398294 414.428701 79.547304 414.803755 79.547304 
z
" clip-path="url(#p436f8a1db7)" style="fill: #d6dee2"/>
   </g>
   <g id="PathCollection_8">
    <path d="M 247.209796 95.676832 
C 247.58485 95.676832 247.944593 95.527821 248.209796 95.262618 
C 248.474999 94.997415 248.624009 94.637672 248.624009 94.262618 
C 248.624009 93.887564 248.474999 93.527821 248.209796 93.262618 
C 247.944593 92.997415 247.58485 92.848405 247.209796 92.848405 
C 246.834742 92.848405 246.474999 92.997415 246.209796 93.262618 
C 245.944593 93.527821 245.795582 93.887564 245.795582 94.262618 
C 245.795582 94.637672 245.944593 94.997415 246.209796 95.262618 
C 246.474999 95.527821 246.834742 95.676832 247.209796 95.676832 
z
" clip-path="url(#p436f8a1db7)" style="fill: #d6dee2"/>
   </g>
   <g id="PathCollection_9">
    <path d="M 275.142122 95.676832 
C 275.517176 95.676832 275.876919 95.527821 276.142122 95.262618 
C 276.407326 94.997415 276.556336 94.637672 276.556336 94.262618 
C 276.556336 93.887564 276.407326 93.527821 276.142122 93.262618 
C 275.876919 92.997415 275.517176 92.848405 275.142122 92.848405 
C 274.767069 92.848405 274.407326 92.997415 274.142122 93.262618 
C 273.876919 93.527821 273.727909 93.887564 273.727909 94.262618 
C 273.727909 94.637672 273.876919 94.997415 274.142122 95.262618 
C 274.407326 95.527821 274.767069 95.676832 275.142122 95.676832 
z
" clip-path="url(#p436f8a1db7)" style="fill: #d6dee2"/>
   </g>
   <g id="PathCollection_10">
    <path d="M 303.074449 95.676832 
C 303.449503 95.676832 303.809246 95.527821 304.074449 95.262618 
C 304.339652 94.997415 304.488663 94.637672 304.488663 94.262618 
C 304.488663 93.887564 304.339652 93.527821 304.074449 93.262618 
C 303.809246 92.997415 303.449503 92.848405 303.074449 92.848405 
C 302.699395 92.848405 302.339652 92.997415 302.074449 93.262618 
C 301.809246 93.527821 301.660235 93.887564 301.660235 94.262618 
C 301.660235 94.637672 301.809246 94.997415 302.074449 95.262618 
C 302.339652 95.527821 302.699395 95.676832 303.074449 95.676832 
z
" clip-path="url(#p436f8a1db7)" style="fill: #d6dee2"/>
   </g>
   <g id="PathCollection_11">
    <path d="M 331.006776 95.676832 
C 331.381829 95.676832 331.741572 95.527821 332.006776 95.262618 
C 332.271979 94.997415 332.420989 94.637672 332.420989 94.262618 
C 332.420989 93.887564 332.271979 93.527821 332.006776 93.262618 
C 331.741572 92.997415 331.381829 92.848405 331.006776 92.848405 
C 330.631722 92.848405 330.271979 92.997415 330.006776 93.262618 
C 329.741572 93.527821 329.592562 93.887564 329.592562 94.262618 
C 329.592562 94.637672 329.741572 94.997415 330.006776 95.262618 
C 330.271979 95.527821 330.631722 95.676832 331.006776 95.676832 
z
" clip-path="url(#p436f8a1db7)" style="fill: #d6dee2"/>
   </g>
   <g id="PathCollection_12">
    <path d="M 358.939102 95.676832 
C 359.314156 95.676832 359.673899 95.527821 359.939102 95.262618 
C 360.204305 94.997415 360.353316 94.637672 360.353316 94.262618 
C 360.353316 93.887564 360.204305 93.527821 359.939102 93.262618 
C 359.673899 92.997415 359.314156 92.848405 358.939102 92.848405 
C 358.564048 92.848405 358.204305 92.997415 357.939102 93.262618 
C 357.673899 93.527821 357.524888 93.887564 357.524888 94.262618 
C 357.524888 94.637672 357.673899 94.997415 357.939102 95.262618 
C 358.204305 95.527821 358.564048 95.676832 358.939102 95.676832 
z
" clip-path="url(#p436f8a1db7)" style="fill: #d6dee2"/>
   </g>
   <g id="PathCollection_13">
    <path d="M 386.871429 95.676832 
C 387.246482 95.676832 387.606225 95.527821 387.871429 95.262618 
C 388.136632 94.997415 388.285642 94.637672 388.285642 94.262618 
C 388.285642 93.887564 388.136632 93.527821 387.871429 93.262618 
C 387.606225 92.997415 387.246482 92.848405 386.871429 92.848405 
C 386.496375 92.848405 386.136632 92.997415 385.871429 93.262618 
C 385.606225 93.527821 385.457215 93.887564 385.457215 94.262618 
C 385.457215 94.637672 385.606225 94.997415 385.871429 95.262618 
C 386.136632 95.527821 386.496375 95.676832 386.871429 95.676832 
z
" clip-path="url(#p436f8a1db7)" style="fill: #d6dee2"/>
   </g>
   <g id="PathCollection_14">
    <path d="M 414.803755 95.676832 
C 415.178809 95.676832 415.538552 95.527821 415.803755 95.262618 
C 416.068958 94.997415 416.217969 94.637672 416.217969 94.262618 
C 416.217969 93.887564 416.068958 93.527821 415.803755 93.262618 
C 415.538552 92.997415 415.178809 92.848405 414.803755 92.848405 
C 414.428701 92.848405 414.068958 92.997415 413.803755 93.262618 
C 413.538552 93.527821 413.389542 93.887564 413.389542 94.262618 
C 413.389542 94.637672 413.538552 94.997415 413.803755 95.262618 
C 414.068958 95.527821 414.428701 95.676832 414.803755 95.676832 
z
" clip-path="url(#p436f8a1db7)" style="fill: #d6dee2"/>
   </g>
   <g id="PathCollection_15">
    <path d="M 247.209796 111.806359 
C 247.58485 111.806359 247.944593 111.657349 248.209796 111.392145 
C 248.474999 111.126942 248.624009 110.767199 248.624009 110.392145 
C 248.624009 110.017092 248.474999 109.657349 248.209796 109.392145 
C 247.944593 109.126942 247.58485 108.977932 247.209796 108.977932 
C 246.834742 108.977932 246.474999 109.126942 246.209796 109.392145 
C 245.944593 109.657349 245.795582 110.017092 245.795582 110.392145 
C 245.795582 110.767199 245.944593 111.126942 246.209796 111.392145 
C 246.474999 111.657349 246.834742 111.806359 247.209796 111.806359 
z
" clip-path="url(#p436f8a1db7)" style="fill: #d6dee2"/>
   </g>
   <g id="PathCollection_16">
    <path d="M 275.142122 111.806359 
C 275.517176 111.806359 275.876919 111.657349 276.142122 111.392145 
C 276.407326 111.126942 276.556336 110.767199 276.556336 110.392145 
C 276.556336 110.017092 276.407326 109.657349 276.142122 109.392145 
C 275.876919 109.126942 275.517176 108.977932 275.142122 108.977932 
C 274.767069 108.977932 274.407326 109.126942 274.142122 109.392145 
C 273.876919 109.657349 273.727909 110.017092 273.727909 110.392145 
C 273.727909 110.767199 273.876919 111.126942 274.142122 111.392145 
C 274.407326 111.657349 274.767069 111.806359 275.142122 111.806359 
z
" clip-path="url(#p436f8a1db7)" style="fill: #d6dee2"/>
   </g>
   <g id="PathCollection_17">
    <path d="M 331.006776 111.806359 
C 331.381829 111.806359 331.741572 111.657349 332.006776 111.392145 
C 332.271979 111.126942 332.420989 110.767199 332.420989 110.392145 
C 332.420989 110.017092 332.271979 109.657349 332.006776 109.392145 
C 331.741572 109.126942 331.381829 108.977932 331.006776 108.977932 
C 330.631722 108.977932 330.271979 109.126942 330.006776 109.392145 
C 329.741572 109.657349 329.592562 110.017092 329.592562 110.392145 
C 329.592562 110.767199 329.741572 111.126942 330.006776 111.392145 
C 330.271979 111.657349 330.631722 111.806359 331.006776 111.806359 
z
" clip-path="url(#p436f8a1db7)" style="fill: #d6dee2"/>
   </g>
   <g id="PathCollection_18">
    <path d="M 358.939102 111.806359 
C 359.314156 111.806359 359.673899 111.657349 359.939102 111.392145 
C 360.204305 111.126942 360.353316 110.767199 360.353316 110.392145 
C 360.353316 110.017092 360.204305 109.657349 359.939102 109.392145 
C 359.673899 109.126942 359.314156 108.977932 358.939102 108.977932 
C 358.564048 108.977932 358.204305 109.126942 357.939102 109.392145 
C 357.673899 109.657349 357.524888 110.017092 357.524888 110.392145 
C 357.524888 110.767199 357.673899 111.126942 357.939102 111.392145 
C 358.204305 111.657349 358.564048 111.806359 358.939102 111.806359 
z
" clip-path="url(#p436f8a1db7)" style="fill: #d6dee2"/>
   </g>
   <g id="PathCollection_19">
    <path d="M 386.871429 111.806359 
C 387.246482 111.806359 387.606225 111.657349 387.871429 111.392145 
C 388.136632 111.126942 388.285642 110.767199 388.285642 110.392145 
C 388.285642 110.017092 388.136632 109.657349 387.871429 109.392145 
C 387.606225 109.126942 387.246482 108.977932 386.871429 108.977932 
C 386.496375 108.977932 386.136632 109.126942 385.871429 109.392145 
C 385.606225 109.657349 385.457215 110.017092 385.457215 110.392145 
C 385.457215 110.767199 385.606225 111.126942 385.871429 111.392145 
C 386.136632 111.657349 386.496375 111.806359 386.871429 111.806359 
z
" clip-path="url(#p436f8a1db7)" style="fill: #d6dee2"/>
   </g>
   <g id="PathCollection_20">
    <path d="M 414.803755 111.806359 
C 415.178809 111.806359 415.538552 111.657349 415.803755 111.392145 
C 416.068958 111.126942 416.217969 110.767199 416.217969 110.392145 
C 416.217969 110.017092 416.068958 109.657349 415.803755 109.392145 
C 415.538552 109.126942 415.178809 108.977932 414.803755 108.977932 
C 414.428701 108.977932 414.068958 109.126942 413.803755 109.392145 
C 413.538552 109.657349 413.389542 110.017092 413.389542 110.392145 
C 413.389542 110.767199 413.538552 111.126942 413.803755 111.392145 
C 414.068958 111.657349 414.428701 111.806359 414.803755 111.806359 
z
" clip-path="url(#p436f8a1db7)" style="fill: #d6dee2"/>
   </g>
   <g id="line2d_3">
    <path d="M 98.237388 132.536073 
L 498.195918 132.536073 
" clip-path="url(#p436f8a1db7)" style="fill: none; stroke: #d8e0e3; stroke-width: 0.55; stroke-linecap: square"/>
   </g>
   <g id="PathCollection_21">
    <path d="M 219.277469 142.971886 
C 219.652523 142.971886 220.012266 142.822876 220.277469 142.557673 
C 220.542672 142.29247 220.691683 141.932727 220.691683 141.557673 
C 220.691683 141.182619 220.542672 140.822876 220.277469 140.557673 
C 220.012266 140.29247 219.652523 140.143459 219.277469 140.143459 
C 218.902416 140.143459 218.542672 140.29247 218.277469 140.557673 
C 218.012266 140.822876 217.863256 141.182619 217.863256 141.557673 
C 217.863256 141.932727 218.012266 142.29247 218.277469 142.557673 
C 218.542672 142.822876 218.902416 142.971886 219.277469 142.971886 
z
" clip-path="url(#p436f8a1db7)" style="fill: #d6dee2"/>
   </g>
   <g id="PathCollection_22">
    <path d="M 275.142122 142.971886 
C 275.517176 142.971886 275.876919 142.822876 276.142122 142.557673 
C 276.407326 142.29247 276.556336 141.932727 276.556336 141.557673 
C 276.556336 141.182619 276.407326 140.822876 276.142122 140.557673 
C 275.876919 140.29247 275.517176 140.143459 275.142122 140.143459 
C 274.767069 140.143459 274.407326 140.29247 274.142122 140.557673 
C 273.876919 140.822876 273.727909 141.182619 273.727909 141.557673 
C 273.727909 141.932727 273.876919 142.29247 274.142122 142.557673 
C 274.407326 142.822876 274.767069 142.971886 275.142122 142.971886 
z
" clip-path="url(#p436f8a1db7)" style="fill: #d6dee2"/>
   </g>
   <g id="PathCollection_23">
    <path d="M 303.074449 142.971886 
C 303.449503 142.971886 303.809246 142.822876 304.074449 142.557673 
C 304.339652 142.29247 304.488663 141.932727 304.488663 141.557673 
C 304.488663 141.182619 304.339652 140.822876 304.074449 140.557673 
C 303.809246 140.29247 303.449503 140.143459 303.074449 140.143459 
C 302.699395 140.143459 302.339652 140.29247 302.074449 140.557673 
C 301.809246 140.822876 301.660235 141.182619 301.660235 141.557673 
C 301.660235 141.932727 301.809246 142.29247 302.074449 142.557673 
C 302.339652 142.822876 302.699395 142.971886 303.074449 142.971886 
z
" clip-path="url(#p436f8a1db7)" style="fill: #d6dee2"/>
   </g>
   <g id="PathCollection_24">
    <path d="M 331.006776 142.971886 
C 331.381829 142.971886 331.741572 142.822876 332.006776 142.557673 
C 332.271979 142.29247 332.420989 141.932727 332.420989 141.557673 
C 332.420989 141.182619 332.271979 140.822876 332.006776 140.557673 
C 331.741572 140.29247 331.381829 140.143459 331.006776 140.143459 
C 330.631722 140.143459 330.271979 140.29247 330.006776 140.557673 
C 329.741572 140.822876 329.592562 141.182619 329.592562 141.557673 
C 329.592562 141.932727 329.741572 142.29247 330.006776 142.557673 
C 330.271979 142.822876 330.631722 142.971886 331.006776 142.971886 
z
" clip-path="url(#p436f8a1db7)" style="fill: #d6dee2"/>
   </g>
   <g id="PathCollection_25">
    <path d="M 358.939102 142.971886 
C 359.314156 142.971886 359.673899 142.822876 359.939102 142.557673 
C 360.204305 142.29247 360.353316 141.932727 360.353316 141.557673 
C 360.353316 141.182619 360.204305 140.822876 359.939102 140.557673 
C 359.673899 140.29247 359.314156 140.143459 358.939102 140.143459 
C 358.564048 140.143459 358.204305 140.29247 357.939102 140.557673 
C 357.673899 140.822876 357.524888 141.182619 357.524888 141.557673 
C 357.524888 141.932727 357.673899 142.29247 357.939102 142.557673 
C 358.204305 142.822876 358.564048 142.971886 358.939102 142.971886 
z
" clip-path="url(#p436f8a1db7)" style="fill: #d6dee2"/>
   </g>
   <g id="PathCollection_26">
    <path d="M 386.871429 142.971886 
C 387.246482 142.971886 387.606225 142.822876 387.871429 142.557673 
C 388.136632 142.29247 388.285642 141.932727 388.285642 141.557673 
C 388.285642 141.182619 388.136632 140.822876 387.871429 140.557673 
C 387.606225 140.29247 387.246482 140.143459 386.871429 140.143459 
C 386.496375 140.143459 386.136632 140.29247 385.871429 140.557673 
C 385.606225 140.822876 385.457215 141.182619 385.457215 141.557673 
C 385.457215 141.932727 385.606225 142.29247 385.871429 142.557673 
C 386.136632 142.822876 386.496375 142.971886 386.871429 142.971886 
z
" clip-path="url(#p436f8a1db7)" style="fill: #d6dee2"/>
   </g>
   <g id="PathCollection_27">
    <path d="M 414.803755 142.971886 
C 415.178809 142.971886 415.538552 142.822876 415.803755 142.557673 
C 416.068958 142.29247 416.217969 141.932727 416.217969 141.557673 
C 416.217969 141.182619 416.068958 140.822876 415.803755 140.557673 
C 415.538552 140.29247 415.178809 140.143459 414.803755 140.143459 
C 414.428701 140.143459 414.068958 140.29247 413.803755 140.557673 
C 413.538552 140.822876 413.389542 141.182619 413.389542 141.557673 
C 413.389542 141.932727 413.538552 142.29247 413.803755 142.557673 
C 414.068958 142.822876 414.428701 142.971886 414.803755 142.971886 
z
" clip-path="url(#p436f8a1db7)" style="fill: #d6dee2"/>
   </g>
   <g id="PathCollection_28">
    <path d="M 219.277469 159.101414 
C 219.652523 159.101414 220.012266 158.952403 220.277469 158.6872 
C 220.542672 158.421997 220.691683 158.062254 220.691683 157.6872 
C 220.691683 157.312146 220.542672 156.952403 220.277469 156.6872 
C 220.012266 156.421997 219.652523 156.272986 219.277469 156.272986 
C 218.902416 156.272986 218.542672 156.421997 218.277469 156.6872 
C 218.012266 156.952403 217.863256 157.312146 217.863256 157.6872 
C 217.863256 158.062254 218.012266 158.421997 218.277469 158.6872 
C 218.542672 158.952403 218.902416 159.101414 219.277469 159.101414 
z
" clip-path="url(#p436f8a1db7)" style="fill: #d6dee2"/>
   </g>
   <g id="PathCollection_29">
    <path d="M 275.142122 159.101414 
C 275.517176 159.101414 275.876919 158.952403 276.142122 158.6872 
C 276.407326 158.421997 276.556336 158.062254 276.556336 157.6872 
C 276.556336 157.312146 276.407326 156.952403 276.142122 156.6872 
C 275.876919 156.421997 275.517176 156.272986 275.142122 156.272986 
C 274.767069 156.272986 274.407326 156.421997 274.142122 156.6872 
C 273.876919 156.952403 273.727909 157.312146 273.727909 157.6872 
C 273.727909 158.062254 273.876919 158.421997 274.142122 158.6872 
C 274.407326 158.952403 274.767069 159.101414 275.142122 159.101414 
z
" clip-path="url(#p436f8a1db7)" style="fill: #d6dee2"/>
   </g>
   <g id="PathCollection_30">
    <path d="M 303.074449 159.101414 
C 303.449503 159.101414 303.809246 158.952403 304.074449 158.6872 
C 304.339652 158.421997 304.488663 158.062254 304.488663 157.6872 
C 304.488663 157.312146 304.339652 156.952403 304.074449 156.6872 
C 303.809246 156.421997 303.449503 156.272986 303.074449 156.272986 
C 302.699395 156.272986 302.339652 156.421997 302.074449 156.6872 
C 301.809246 156.952403 301.660235 157.312146 301.660235 157.6872 
C 301.660235 158.062254 301.809246 158.421997 302.074449 158.6872 
C 302.339652 158.952403 302.699395 159.101414 303.074449 159.101414 
z
" clip-path="url(#p436f8a1db7)" style="fill: #d6dee2"/>
   </g>
   <g id="PathCollection_31">
    <path d="M 331.006776 159.101414 
C 331.381829 159.101414 331.741572 158.952403 332.006776 158.6872 
C 332.271979 158.421997 332.420989 158.062254 332.420989 157.6872 
C 332.420989 157.312146 332.271979 156.952403 332.006776 156.6872 
C 331.741572 156.421997 331.381829 156.272986 331.006776 156.272986 
C 330.631722 156.272986 330.271979 156.421997 330.006776 156.6872 
C 329.741572 156.952403 329.592562 157.312146 329.592562 157.6872 
C 329.592562 158.062254 329.741572 158.421997 330.006776 158.6872 
C 330.271979 158.952403 330.631722 159.101414 331.006776 159.101414 
z
" clip-path="url(#p436f8a1db7)" style="fill: #d6dee2"/>
   </g>
   <g id="PathCollection_32">
    <path d="M 358.939102 159.101414 
C 359.314156 159.101414 359.673899 158.952403 359.939102 158.6872 
C 360.204305 158.421997 360.353316 158.062254 360.353316 157.6872 
C 360.353316 157.312146 360.204305 156.952403 359.939102 156.6872 
C 359.673899 156.421997 359.314156 156.272986 358.939102 156.272986 
C 358.564048 156.272986 358.204305 156.421997 357.939102 156.6872 
C 357.673899 156.952403 357.524888 157.312146 357.524888 157.6872 
C 357.524888 158.062254 357.673899 158.421997 357.939102 158.6872 
C 358.204305 158.952403 358.564048 159.101414 358.939102 159.101414 
z
" clip-path="url(#p436f8a1db7)" style="fill: #d6dee2"/>
   </g>
   <g id="PathCollection_33">
    <path d="M 386.871429 159.101414 
C 387.246482 159.101414 387.606225 158.952403 387.871429 158.6872 
C 388.136632 158.421997 388.285642 158.062254 388.285642 157.6872 
C 388.285642 157.312146 388.136632 156.952403 387.871429 156.6872 
C 387.606225 156.421997 387.246482 156.272986 386.871429 156.272986 
C 386.496375 156.272986 386.136632 156.421997 385.871429 156.6872 
C 385.606225 156.952403 385.457215 157.312146 385.457215 157.6872 
C 385.457215 158.062254 385.606225 158.421997 385.871429 158.6872 
C 386.136632 158.952403 386.496375 159.101414 386.871429 159.101414 
z
" clip-path="url(#p436f8a1db7)" style="fill: #d6dee2"/>
   </g>
   <g id="PathCollection_34">
    <path d="M 414.803755 159.101414 
C 415.178809 159.101414 415.538552 158.952403 415.803755 158.6872 
C 416.068958 158.421997 416.217969 158.062254 416.217969 157.6872 
C 416.217969 157.312146 416.068958 156.952403 415.803755 156.6872 
C 415.538552 156.421997 415.178809 156.272986 414.803755 156.272986 
C 414.428701 156.272986 414.068958 156.421997 413.803755 156.6872 
C 413.538552 156.952403 413.389542 157.312146 413.389542 157.6872 
C 413.389542 158.062254 413.538552 158.421997 413.803755 158.6872 
C 414.068958 158.952403 414.428701 159.101414 414.803755 159.101414 
z
" clip-path="url(#p436f8a1db7)" style="fill: #d6dee2"/>
   </g>
   <g id="PathCollection_35">
    <path d="M 219.277469 175.230941 
C 219.652523 175.230941 220.012266 175.08193 220.277469 174.816727 
C 220.542672 174.551524 220.691683 174.191781 220.691683 173.816727 
C 220.691683 173.441673 220.542672 173.08193 220.277469 172.816727 
C 220.012266 172.551524 219.652523 172.402514 219.277469 172.402514 
C 218.902416 172.402514 218.542672 172.551524 218.277469 172.816727 
C 218.012266 173.08193 217.863256 173.441673 217.863256 173.816727 
C 217.863256 174.191781 218.012266 174.551524 218.277469 174.816727 
C 218.542672 175.08193 218.902416 175.230941 219.277469 175.230941 
z
" clip-path="url(#p436f8a1db7)" style="fill: #d6dee2"/>
   </g>
   <g id="PathCollection_36">
    <path d="M 275.142122 175.230941 
C 275.517176 175.230941 275.876919 175.08193 276.142122 174.816727 
C 276.407326 174.551524 276.556336 174.191781 276.556336 173.816727 
C 276.556336 173.441673 276.407326 173.08193 276.142122 172.816727 
C 275.876919 172.551524 275.517176 172.402514 275.142122 172.402514 
C 274.767069 172.402514 274.407326 172.551524 274.142122 172.816727 
C 273.876919 173.08193 273.727909 173.441673 273.727909 173.816727 
C 273.727909 174.191781 273.876919 174.551524 274.142122 174.816727 
C 274.407326 175.08193 274.767069 175.230941 275.142122 175.230941 
z
" clip-path="url(#p436f8a1db7)" style="fill: #d6dee2"/>
   </g>
   <g id="PathCollection_37">
    <path d="M 303.074449 175.230941 
C 303.449503 175.230941 303.809246 175.08193 304.074449 174.816727 
C 304.339652 174.551524 304.488663 174.191781 304.488663 173.816727 
C 304.488663 173.441673 304.339652 173.08193 304.074449 172.816727 
C 303.809246 172.551524 303.449503 172.402514 303.074449 172.402514 
C 302.699395 172.402514 302.339652 172.551524 302.074449 172.816727 
C 301.809246 173.08193 301.660235 173.441673 301.660235 173.816727 
C 301.660235 174.191781 301.809246 174.551524 302.074449 174.816727 
C 302.339652 175.08193 302.699395 175.230941 303.074449 175.230941 
z
" clip-path="url(#p436f8a1db7)" style="fill: #d6dee2"/>
   </g>
   <g id="PathCollection_38">
    <path d="M 331.006776 175.230941 
C 331.381829 175.230941 331.741572 175.08193 332.006776 174.816727 
C 332.271979 174.551524 332.420989 174.191781 332.420989 173.816727 
C 332.420989 173.441673 332.271979 173.08193 332.006776 172.816727 
C 331.741572 172.551524 331.381829 172.402514 331.006776 172.402514 
C 330.631722 172.402514 330.271979 172.551524 330.006776 172.816727 
C 329.741572 173.08193 329.592562 173.441673 329.592562 173.816727 
C 329.592562 174.191781 329.741572 174.551524 330.006776 174.816727 
C 330.271979 175.08193 330.631722 175.230941 331.006776 175.230941 
z
" clip-path="url(#p436f8a1db7)" style="fill: #d6dee2"/>
   </g>
   <g id="PathCollection_39">
    <path d="M 358.939102 175.230941 
C 359.314156 175.230941 359.673899 175.08193 359.939102 174.816727 
C 360.204305 174.551524 360.353316 174.191781 360.353316 173.816727 
C 360.353316 173.441673 360.204305 173.08193 359.939102 172.816727 
C 359.673899 172.551524 359.314156 172.402514 358.939102 172.402514 
C 358.564048 172.402514 358.204305 172.551524 357.939102 172.816727 
C 357.673899 173.08193 357.524888 173.441673 357.524888 173.816727 
C 357.524888 174.191781 357.673899 174.551524 357.939102 174.816727 
C 358.204305 175.08193 358.564048 175.230941 358.939102 175.230941 
z
" clip-path="url(#p436f8a1db7)" style="fill: #d6dee2"/>
   </g>
   <g id="PathCollection_40">
    <path d="M 414.803755 175.230941 
C 415.178809 175.230941 415.538552 175.08193 415.803755 174.816727 
C 416.068958 174.551524 416.217969 174.191781 416.217969 173.816727 
C 416.217969 173.441673 416.068958 173.08193 415.803755 172.816727 
C 415.538552 172.551524 415.178809 172.402514 414.803755 172.402514 
C 414.428701 172.402514 414.068958 172.551524 413.803755 172.816727 
C 413.538552 173.08193 413.389542 173.441673 413.389542 173.816727 
C 413.389542 174.191781 413.538552 174.551524 413.803755 174.816727 
C 414.068958 175.08193 414.428701 175.230941 414.803755 175.230941 
z
" clip-path="url(#p436f8a1db7)" style="fill: #d6dee2"/>
   </g>
   <g id="line2d_4">
    <path d="M 98.237388 195.960655 
L 498.195918 195.960655 
" clip-path="url(#p436f8a1db7)" style="fill: none; stroke: #d8e0e3; stroke-width: 0.55; stroke-linecap: square"/>
   </g>
   <g id="PathCollection_41">
    <path d="M 219.277469 206.396468 
C 219.652523 206.396468 220.012266 206.247458 220.277469 205.982255 
C 220.542672 205.717051 220.691683 205.357308 220.691683 204.982255 
C 220.691683 204.607201 220.542672 204.247458 220.277469 203.982255 
C 220.012266 203.717051 219.652523 203.568041 219.277469 203.568041 
C 218.902416 203.568041 218.542672 203.717051 218.277469 203.982255 
C 218.012266 204.247458 217.863256 204.607201 217.863256 204.982255 
C 217.863256 205.357308 218.012266 205.717051 218.277469 205.982255 
C 218.542672 206.247458 218.902416 206.396468 219.277469 206.396468 
z
" clip-path="url(#p436f8a1db7)" style="fill: #d6dee2"/>
   </g>
   <g id="PathCollection_42">
    <path d="M 247.209796 206.396468 
C 247.58485 206.396468 247.944593 206.247458 248.209796 205.982255 
C 248.474999 205.717051 248.624009 205.357308 248.624009 204.982255 
C 248.624009 204.607201 248.474999 204.247458 248.209796 203.982255 
C 247.944593 203.717051 247.58485 203.568041 247.209796 203.568041 
C 246.834742 203.568041 246.474999 203.717051 246.209796 203.982255 
C 245.944593 204.247458 245.795582 204.607201 245.795582 204.982255 
C 245.795582 205.357308 245.944593 205.717051 246.209796 205.982255 
C 246.474999 206.247458 246.834742 206.396468 247.209796 206.396468 
z
" clip-path="url(#p436f8a1db7)" style="fill: #d6dee2"/>
   </g>
   <g id="PathCollection_43">
    <path d="M 303.074449 206.396468 
C 303.449503 206.396468 303.809246 206.247458 304.074449 205.982255 
C 304.339652 205.717051 304.488663 205.357308 304.488663 204.982255 
C 304.488663 204.607201 304.339652 204.247458 304.074449 203.982255 
C 303.809246 203.717051 303.449503 203.568041 303.074449 203.568041 
C 302.699395 203.568041 302.339652 203.717051 302.074449 203.982255 
C 301.809246 204.247458 301.660235 204.607201 301.660235 204.982255 
C 301.660235 205.357308 301.809246 205.717051 302.074449 205.982255 
C 302.339652 206.247458 302.699395 206.396468 303.074449 206.396468 
z
" clip-path="url(#p436f8a1db7)" style="fill: #d6dee2"/>
   </g>
   <g id="PathCollection_44">
    <path d="M 331.006776 206.396468 
C 331.381829 206.396468 331.741572 206.247458 332.006776 205.982255 
C 332.271979 205.717051 332.420989 205.357308 332.420989 204.982255 
C 332.420989 204.607201 332.271979 204.247458 332.006776 203.982255 
C 331.741572 203.717051 331.381829 203.568041 331.006776 203.568041 
C 330.631722 203.568041 330.271979 203.717051 330.006776 203.982255 
C 329.741572 204.247458 329.592562 204.607201 329.592562 204.982255 
C 329.592562 205.357308 329.741572 205.717051 330.006776 205.982255 
C 330.271979 206.247458 330.631722 206.396468 331.006776 206.396468 
z
" clip-path="url(#p436f8a1db7)" style="fill: #d6dee2"/>
   </g>
   <g id="PathCollection_45">
    <path d="M 358.939102 206.396468 
C 359.314156 206.396468 359.673899 206.247458 359.939102 205.982255 
C 360.204305 205.717051 360.353316 205.357308 360.353316 204.982255 
C 360.353316 204.607201 360.204305 204.247458 359.939102 203.982255 
C 359.673899 203.717051 359.314156 203.568041 358.939102 203.568041 
C 358.564048 203.568041 358.204305 203.717051 357.939102 203.982255 
C 357.673899 204.247458 357.524888 204.607201 357.524888 204.982255 
C 357.524888 205.357308 357.673899 205.717051 357.939102 205.982255 
C 358.204305 206.247458 358.564048 206.396468 358.939102 206.396468 
z
" clip-path="url(#p436f8a1db7)" style="fill: #d6dee2"/>
   </g>
   <g id="PathCollection_46">
    <path d="M 386.871429 206.396468 
C 387.246482 206.396468 387.606225 206.247458 387.871429 205.982255 
C 388.136632 205.717051 388.285642 205.357308 388.285642 204.982255 
C 388.285642 204.607201 388.136632 204.247458 387.871429 203.982255 
C 387.606225 203.717051 387.246482 203.568041 386.871429 203.568041 
C 386.496375 203.568041 386.136632 203.717051 385.871429 203.982255 
C 385.606225 204.247458 385.457215 204.607201 385.457215 204.982255 
C 385.457215 205.357308 385.606225 205.717051 385.871429 205.982255 
C 386.136632 206.247458 386.496375 206.396468 386.871429 206.396468 
z
" clip-path="url(#p436f8a1db7)" style="fill: #d6dee2"/>
   </g>
   <g id="PathCollection_47">
    <path d="M 414.803755 206.396468 
C 415.178809 206.396468 415.538552 206.247458 415.803755 205.982255 
C 416.068958 205.717051 416.217969 205.357308 416.217969 204.982255 
C 416.217969 204.607201 416.068958 204.247458 415.803755 203.982255 
C 415.538552 203.717051 415.178809 203.568041 414.803755 203.568041 
C 414.428701 203.568041 414.068958 203.717051 413.803755 203.982255 
C 413.538552 204.247458 413.389542 204.607201 413.389542 204.982255 
C 413.389542 205.357308 413.538552 205.717051 413.803755 205.982255 
C 414.068958 206.247458 414.428701 206.396468 414.803755 206.396468 
z
" clip-path="url(#p436f8a1db7)" style="fill: #d6dee2"/>
   </g>
   <g id="PathCollection_48">
    <path d="M 247.209796 222.525995 
C 247.58485 222.525995 247.944593 222.376985 248.209796 222.111782 
C 248.474999 221.846579 248.624009 221.486836 248.624009 221.111782 
C 248.624009 220.736728 248.474999 220.376985 248.209796 220.111782 
C 247.944593 219.846579 247.58485 219.697568 247.209796 219.697568 
C 246.834742 219.697568 246.474999 219.846579 246.209796 220.111782 
C 245.944593 220.376985 245.795582 220.736728 245.795582 221.111782 
C 245.795582 221.486836 245.944593 221.846579 246.209796 222.111782 
C 246.474999 222.376985 246.834742 222.525995 247.209796 222.525995 
z
" clip-path="url(#p436f8a1db7)" style="fill: #d6dee2"/>
   </g>
   <g id="PathCollection_49">
    <path d="M 303.074449 222.525995 
C 303.449503 222.525995 303.809246 222.376985 304.074449 222.111782 
C 304.339652 221.846579 304.488663 221.486836 304.488663 221.111782 
C 304.488663 220.736728 304.339652 220.376985 304.074449 220.111782 
C 303.809246 219.846579 303.449503 219.697568 303.074449 219.697568 
C 302.699395 219.697568 302.339652 219.846579 302.074449 220.111782 
C 301.809246 220.376985 301.660235 220.736728 301.660235 221.111782 
C 301.660235 221.486836 301.809246 221.846579 302.074449 222.111782 
C 302.339652 222.376985 302.699395 222.525995 303.074449 222.525995 
z
" clip-path="url(#p436f8a1db7)" style="fill: #d6dee2"/>
   </g>
   <g id="PathCollection_50">
    <path d="M 331.006776 222.525995 
C 331.381829 222.525995 331.741572 222.376985 332.006776 222.111782 
C 332.271979 221.846579 332.420989 221.486836 332.420989 221.111782 
C 332.420989 220.736728 332.271979 220.376985 332.006776 220.111782 
C 331.741572 219.846579 331.381829 219.697568 331.006776 219.697568 
C 330.631722 219.697568 330.271979 219.846579 330.006776 220.111782 
C 329.741572 220.376985 329.592562 220.736728 329.592562 221.111782 
C 329.592562 221.486836 329.741572 221.846579 330.006776 222.111782 
C 330.271979 222.376985 330.631722 222.525995 331.006776 222.525995 
z
" clip-path="url(#p436f8a1db7)" style="fill: #d6dee2"/>
   </g>
   <g id="PathCollection_51">
    <path d="M 358.939102 222.525995 
C 359.314156 222.525995 359.673899 222.376985 359.939102 222.111782 
C 360.204305 221.846579 360.353316 221.486836 360.353316 221.111782 
C 360.353316 220.736728 360.204305 220.376985 359.939102 220.111782 
C 359.673899 219.846579 359.314156 219.697568 358.939102 219.697568 
C 358.564048 219.697568 358.204305 219.846579 357.939102 220.111782 
C 357.673899 220.376985 357.524888 220.736728 357.524888 221.111782 
C 357.524888 221.486836 357.673899 221.846579 357.939102 222.111782 
C 358.204305 222.376985 358.564048 222.525995 358.939102 222.525995 
z
" clip-path="url(#p436f8a1db7)" style="fill: #d6dee2"/>
   </g>
   <g id="PathCollection_52">
    <path d="M 386.871429 222.525995 
C 387.246482 222.525995 387.606225 222.376985 387.871429 222.111782 
C 388.136632 221.846579 388.285642 221.486836 388.285642 221.111782 
C 388.285642 220.736728 388.136632 220.376985 387.871429 220.111782 
C 387.606225 219.846579 387.246482 219.697568 386.871429 219.697568 
C 386.496375 219.697568 386.136632 219.846579 385.871429 220.111782 
C 385.606225 220.376985 385.457215 220.736728 385.457215 221.111782 
C 385.457215 221.486836 385.606225 221.846579 385.871429 222.111782 
C 386.136632 222.376985 386.496375 222.525995 386.871429 222.525995 
z
" clip-path="url(#p436f8a1db7)" style="fill: #d6dee2"/>
   </g>
   <g id="PathCollection_53">
    <path d="M 414.803755 222.525995 
C 415.178809 222.525995 415.538552 222.376985 415.803755 222.111782 
C 416.068958 221.846579 416.217969 221.486836 416.217969 221.111782 
C 416.217969 220.736728 416.068958 220.376985 415.803755 220.111782 
C 415.538552 219.846579 415.178809 219.697568 414.803755 219.697568 
C 414.428701 219.697568 414.068958 219.846579 413.803755 220.111782 
C 413.538552 220.376985 413.389542 220.736728 413.389542 221.111782 
C 413.389542 221.486836 413.538552 221.846579 413.803755 222.111782 
C 414.068958 222.376985 414.428701 222.525995 414.803755 222.525995 
z
" clip-path="url(#p436f8a1db7)" style="fill: #d6dee2"/>
   </g>
   <g id="PathCollection_54">
    <path d="M 219.277469 238.655523 
C 219.652523 238.655523 220.012266 238.506512 220.277469 238.241309 
C 220.542672 237.976106 220.691683 237.616363 220.691683 237.241309 
C 220.691683 236.866255 220.542672 236.506512 220.277469 236.241309 
C 220.012266 235.976106 219.652523 235.827096 219.277469 235.827096 
C 218.902416 235.827096 218.542672 235.976106 218.277469 236.241309 
C 218.012266 236.506512 217.863256 236.866255 217.863256 237.241309 
C 217.863256 237.616363 218.012266 237.976106 218.277469 238.241309 
C 218.542672 238.506512 218.902416 238.655523 219.277469 238.655523 
z
" clip-path="url(#p436f8a1db7)" style="fill: #d6dee2"/>
   </g>
   <g id="PathCollection_55">
    <path d="M 247.209796 238.655523 
C 247.58485 238.655523 247.944593 238.506512 248.209796 238.241309 
C 248.474999 237.976106 248.624009 237.616363 248.624009 237.241309 
C 248.624009 236.866255 248.474999 236.506512 248.209796 236.241309 
C 247.944593 235.976106 247.58485 235.827096 247.209796 235.827096 
C 246.834742 235.827096 246.474999 235.976106 246.209796 236.241309 
C 245.944593 236.506512 245.795582 236.866255 245.795582 237.241309 
C 245.795582 237.616363 245.944593 237.976106 246.209796 238.241309 
C 246.474999 238.506512 246.834742 238.655523 247.209796 238.655523 
z
" clip-path="url(#p436f8a1db7)" style="fill: #d6dee2"/>
   </g>
   <g id="PathCollection_56">
    <path d="M 303.074449 238.655523 
C 303.449503 238.655523 303.809246 238.506512 304.074449 238.241309 
C 304.339652 237.976106 304.488663 237.616363 304.488663 237.241309 
C 304.488663 236.866255 304.339652 236.506512 304.074449 236.241309 
C 303.809246 235.976106 303.449503 235.827096 303.074449 235.827096 
C 302.699395 235.827096 302.339652 235.976106 302.074449 236.241309 
C 301.809246 236.506512 301.660235 236.866255 301.660235 237.241309 
C 301.660235 237.616363 301.809246 237.976106 302.074449 238.241309 
C 302.339652 238.506512 302.699395 238.655523 303.074449 238.655523 
z
" clip-path="url(#p436f8a1db7)" style="fill: #d6dee2"/>
   </g>
   <g id="PathCollection_57">
    <path d="M 331.006776 238.655523 
C 331.381829 238.655523 331.741572 238.506512 332.006776 238.241309 
C 332.271979 237.976106 332.420989 237.616363 332.420989 237.241309 
C 332.420989 236.866255 332.271979 236.506512 332.006776 236.241309 
C 331.741572 235.976106 331.381829 235.827096 331.006776 235.827096 
C 330.631722 235.827096 330.271979 235.976106 330.006776 236.241309 
C 329.741572 236.506512 329.592562 236.866255 329.592562 237.241309 
C 329.592562 237.616363 329.741572 237.976106 330.006776 238.241309 
C 330.271979 238.506512 330.631722 238.655523 331.006776 238.655523 
z
" clip-path="url(#p436f8a1db7)" style="fill: #d6dee2"/>
   </g>
   <g id="PathCollection_58">
    <path d="M 358.939102 238.655523 
C 359.314156 238.655523 359.673899 238.506512 359.939102 238.241309 
C 360.204305 237.976106 360.353316 237.616363 360.353316 237.241309 
C 360.353316 236.866255 360.204305 236.506512 359.939102 236.241309 
C 359.673899 235.976106 359.314156 235.827096 358.939102 235.827096 
C 358.564048 235.827096 358.204305 235.976106 357.939102 236.241309 
C 357.673899 236.506512 357.524888 236.866255 357.524888 237.241309 
C 357.524888 237.616363 357.673899 237.976106 357.939102 238.241309 
C 358.204305 238.506512 358.564048 238.655523 358.939102 238.655523 
z
" clip-path="url(#p436f8a1db7)" style="fill: #d6dee2"/>
   </g>
   <g id="PathCollection_59">
    <path d="M 386.871429 238.655523 
C 387.246482 238.655523 387.606225 238.506512 387.871429 238.241309 
C 388.136632 237.976106 388.285642 237.616363 388.285642 237.241309 
C 388.285642 236.866255 388.136632 236.506512 387.871429 236.241309 
C 387.606225 235.976106 387.246482 235.827096 386.871429 235.827096 
C 386.496375 235.827096 386.136632 235.976106 385.871429 236.241309 
C 385.606225 236.506512 385.457215 236.866255 385.457215 237.241309 
C 385.457215 237.616363 385.606225 237.976106 385.871429 238.241309 
C 386.136632 238.506512 386.496375 238.655523 386.871429 238.655523 
z
" clip-path="url(#p436f8a1db7)" style="fill: #d6dee2"/>
   </g>
   <g id="PathCollection_60">
    <path d="M 414.803755 238.655523 
C 415.178809 238.655523 415.538552 238.506512 415.803755 238.241309 
C 416.068958 237.976106 416.217969 237.616363 416.217969 237.241309 
C 416.217969 236.866255 416.068958 236.506512 415.803755 236.241309 
C 415.538552 235.976106 415.178809 235.827096 414.803755 235.827096 
C 414.428701 235.827096 414.068958 235.976106 413.803755 236.241309 
C 413.538552 236.506512 413.389542 236.866255 413.389542 237.241309 
C 413.389542 237.616363 413.538552 237.976106 413.803755 238.241309 
C 414.068958 238.506512 414.428701 238.655523 414.803755 238.655523 
z
" clip-path="url(#p436f8a1db7)" style="fill: #d6dee2"/>
   </g>
   <g id="line2d_5">
    <path d="M 98.237388 259.385236 
L 498.195918 259.385236 
" clip-path="url(#p436f8a1db7)" style="fill: none; stroke: #d8e0e3; stroke-width: 0.55; stroke-linecap: square"/>
   </g>
   <g id="PathCollection_61">
    <path d="M 219.277469 269.82105 
C 219.652523 269.82105 220.012266 269.672039 220.277469 269.406836 
C 220.542672 269.141633 220.691683 268.78189 220.691683 268.406836 
C 220.691683 268.031783 220.542672 267.672039 220.277469 267.406836 
C 220.012266 267.141633 219.652523 266.992623 219.277469 266.992623 
C 218.902416 266.992623 218.542672 267.141633 218.277469 267.406836 
C 218.012266 267.672039 217.863256 268.031783 217.863256 268.406836 
C 217.863256 268.78189 218.012266 269.141633 218.277469 269.406836 
C 218.542672 269.672039 218.902416 269.82105 219.277469 269.82105 
z
" clip-path="url(#p436f8a1db7)" style="fill: #d6dee2"/>
   </g>
   <g id="PathCollection_62">
    <path d="M 247.209796 269.82105 
C 247.58485 269.82105 247.944593 269.672039 248.209796 269.406836 
C 248.474999 269.141633 248.624009 268.78189 248.624009 268.406836 
C 248.624009 268.031783 248.474999 267.672039 248.209796 267.406836 
C 247.944593 267.141633 247.58485 266.992623 247.209796 266.992623 
C 246.834742 266.992623 246.474999 267.141633 246.209796 267.406836 
C 245.944593 267.672039 245.795582 268.031783 245.795582 268.406836 
C 245.795582 268.78189 245.944593 269.141633 246.209796 269.406836 
C 246.474999 269.672039 246.834742 269.82105 247.209796 269.82105 
z
" clip-path="url(#p436f8a1db7)" style="fill: #d6dee2"/>
   </g>
   <g id="PathCollection_63">
    <path d="M 275.142122 269.82105 
C 275.517176 269.82105 275.876919 269.672039 276.142122 269.406836 
C 276.407326 269.141633 276.556336 268.78189 276.556336 268.406836 
C 276.556336 268.031783 276.407326 267.672039 276.142122 267.406836 
C 275.876919 267.141633 275.517176 266.992623 275.142122 266.992623 
C 274.767069 266.992623 274.407326 267.141633 274.142122 267.406836 
C 273.876919 267.672039 273.727909 268.031783 273.727909 268.406836 
C 273.727909 268.78189 273.876919 269.141633 274.142122 269.406836 
C 274.407326 269.672039 274.767069 269.82105 275.142122 269.82105 
z
" clip-path="url(#p436f8a1db7)" style="fill: #d6dee2"/>
   </g>
   <g id="PathCollection_64">
    <path d="M 303.074449 269.82105 
C 303.449503 269.82105 303.809246 269.672039 304.074449 269.406836 
C 304.339652 269.141633 304.488663 268.78189 304.488663 268.406836 
C 304.488663 268.031783 304.339652 267.672039 304.074449 267.406836 
C 303.809246 267.141633 303.449503 266.992623 303.074449 266.992623 
C 302.699395 266.992623 302.339652 267.141633 302.074449 267.406836 
C 301.809246 267.672039 301.660235 268.031783 301.660235 268.406836 
C 301.660235 268.78189 301.809246 269.141633 302.074449 269.406836 
C 302.339652 269.672039 302.699395 269.82105 303.074449 269.82105 
z
" clip-path="url(#p436f8a1db7)" style="fill: #d6dee2"/>
   </g>
   <g id="PathCollection_65">
    <path d="M 358.939102 269.82105 
C 359.314156 269.82105 359.673899 269.672039 359.939102 269.406836 
C 360.204305 269.141633 360.353316 268.78189 360.353316 268.406836 
C 360.353316 268.031783 360.204305 267.672039 359.939102 267.406836 
C 359.673899 267.141633 359.314156 266.992623 358.939102 266.992623 
C 358.564048 266.992623 358.204305 267.141633 357.939102 267.406836 
C 357.673899 267.672039 357.524888 268.031783 357.524888 268.406836 
C 357.524888 268.78189 357.673899 269.141633 357.939102 269.406836 
C 358.204305 269.672039 358.564048 269.82105 358.939102 269.82105 
z
" clip-path="url(#p436f8a1db7)" style="fill: #d6dee2"/>
   </g>
   <g id="PathCollection_66">
    <path d="M 386.871429 269.82105 
C 387.246482 269.82105 387.606225 269.672039 387.871429 269.406836 
C 388.136632 269.141633 388.285642 268.78189 388.285642 268.406836 
C 388.285642 268.031783 388.136632 267.672039 387.871429 267.406836 
C 387.606225 267.141633 387.246482 266.992623 386.871429 266.992623 
C 386.496375 266.992623 386.136632 267.141633 385.871429 267.406836 
C 385.606225 267.672039 385.457215 268.031783 385.457215 268.406836 
C 385.457215 268.78189 385.606225 269.141633 385.871429 269.406836 
C 386.136632 269.672039 386.496375 269.82105 386.871429 269.82105 
z
" clip-path="url(#p436f8a1db7)" style="fill: #d6dee2"/>
   </g>
   <g id="PathCollection_67">
    <path d="M 414.803755 269.82105 
C 415.178809 269.82105 415.538552 269.672039 415.803755 269.406836 
C 416.068958 269.141633 416.217969 268.78189 416.217969 268.406836 
C 416.217969 268.031783 416.068958 267.672039 415.803755 267.406836 
C 415.538552 267.141633 415.178809 266.992623 414.803755 266.992623 
C 414.428701 266.992623 414.068958 267.141633 413.803755 267.406836 
C 413.538552 267.672039 413.389542 268.031783 413.389542 268.406836 
C 413.389542 268.78189 413.538552 269.141633 413.803755 269.406836 
C 414.068958 269.672039 414.428701 269.82105 414.803755 269.82105 
z
" clip-path="url(#p436f8a1db7)" style="fill: #d6dee2"/>
   </g>
   <g id="PathCollection_68">
    <path d="M 219.277469 285.950577 
C 219.652523 285.950577 220.012266 285.801567 220.277469 285.536364 
C 220.542672 285.271161 220.691683 284.911417 220.691683 284.536364 
C 220.691683 284.16131 220.542672 283.801567 220.277469 283.536364 
C 220.012266 283.271161 219.652523 283.12215 219.277469 283.12215 
C 218.902416 283.12215 218.542672 283.271161 218.277469 283.536364 
C 218.012266 283.801567 217.863256 284.16131 217.863256 284.536364 
C 217.863256 284.911417 218.012266 285.271161 218.277469 285.536364 
C 218.542672 285.801567 218.902416 285.950577 219.277469 285.950577 
z
" clip-path="url(#p436f8a1db7)" style="fill: #d6dee2"/>
   </g>
   <g id="PathCollection_69">
    <path d="M 247.209796 285.950577 
C 247.58485 285.950577 247.944593 285.801567 248.209796 285.536364 
C 248.474999 285.271161 248.624009 284.911417 248.624009 284.536364 
C 248.624009 284.16131 248.474999 283.801567 248.209796 283.536364 
C 247.944593 283.271161 247.58485 283.12215 247.209796 283.12215 
C 246.834742 283.12215 246.474999 283.271161 246.209796 283.536364 
C 245.944593 283.801567 245.795582 284.16131 245.795582 284.536364 
C 245.795582 284.911417 245.944593 285.271161 246.209796 285.536364 
C 246.474999 285.801567 246.834742 285.950577 247.209796 285.950577 
z
" clip-path="url(#p436f8a1db7)" style="fill: #d6dee2"/>
   </g>
   <g id="PathCollection_70">
    <path d="M 275.142122 285.950577 
C 275.517176 285.950577 275.876919 285.801567 276.142122 285.536364 
C 276.407326 285.271161 276.556336 284.911417 276.556336 284.536364 
C 276.556336 284.16131 276.407326 283.801567 276.142122 283.536364 
C 275.876919 283.271161 275.517176 283.12215 275.142122 283.12215 
C 274.767069 283.12215 274.407326 283.271161 274.142122 283.536364 
C 273.876919 283.801567 273.727909 284.16131 273.727909 284.536364 
C 273.727909 284.911417 273.876919 285.271161 274.142122 285.536364 
C 274.407326 285.801567 274.767069 285.950577 275.142122 285.950577 
z
" clip-path="url(#p436f8a1db7)" style="fill: #d6dee2"/>
   </g>
   <g id="PathCollection_71">
    <path d="M 303.074449 285.950577 
C 303.449503 285.950577 303.809246 285.801567 304.074449 285.536364 
C 304.339652 285.271161 304.488663 284.911417 304.488663 284.536364 
C 304.488663 284.16131 304.339652 283.801567 304.074449 283.536364 
C 303.809246 283.271161 303.449503 283.12215 303.074449 283.12215 
C 302.699395 283.12215 302.339652 283.271161 302.074449 283.536364 
C 301.809246 283.801567 301.660235 284.16131 301.660235 284.536364 
C 301.660235 284.911417 301.809246 285.271161 302.074449 285.536364 
C 302.339652 285.801567 302.699395 285.950577 303.074449 285.950577 
z
" clip-path="url(#p436f8a1db7)" style="fill: #d6dee2"/>
   </g>
   <g id="PathCollection_72">
    <path d="M 358.939102 285.950577 
C 359.314156 285.950577 359.673899 285.801567 359.939102 285.536364 
C 360.204305 285.271161 360.353316 284.911417 360.353316 284.536364 
C 360.353316 284.16131 360.204305 283.801567 359.939102 283.536364 
C 359.673899 283.271161 359.314156 283.12215 358.939102 283.12215 
C 358.564048 283.12215 358.204305 283.271161 357.939102 283.536364 
C 357.673899 283.801567 357.524888 284.16131 357.524888 284.536364 
C 357.524888 284.911417 357.673899 285.271161 357.939102 285.536364 
C 358.204305 285.801567 358.564048 285.950577 358.939102 285.950577 
z
" clip-path="url(#p436f8a1db7)" style="fill: #d6dee2"/>
   </g>
   <g id="PathCollection_73">
    <path d="M 386.871429 285.950577 
C 387.246482 285.950577 387.606225 285.801567 387.871429 285.536364 
C 388.136632 285.271161 388.285642 284.911417 388.285642 284.536364 
C 388.285642 284.16131 388.136632 283.801567 387.871429 283.536364 
C 387.606225 283.271161 387.246482 283.12215 386.871429 283.12215 
C 386.496375 283.12215 386.136632 283.271161 385.871429 283.536364 
C 385.606225 283.801567 385.457215 284.16131 385.457215 284.536364 
C 385.457215 284.911417 385.606225 285.271161 385.871429 285.536364 
C 386.136632 285.801567 386.496375 285.950577 386.871429 285.950577 
z
" clip-path="url(#p436f8a1db7)" style="fill: #d6dee2"/>
   </g>
   <g id="PathCollection_74">
    <path d="M 414.803755 285.950577 
C 415.178809 285.950577 415.538552 285.801567 415.803755 285.536364 
C 416.068958 285.271161 416.217969 284.911417 416.217969 284.536364 
C 416.217969 284.16131 416.068958 283.801567 415.803755 283.536364 
C 415.538552 283.271161 415.178809 283.12215 414.803755 283.12215 
C 414.428701 283.12215 414.068958 283.271161 413.803755 283.536364 
C 413.538552 283.801567 413.389542 284.16131 413.389542 284.536364 
C 413.389542 284.911417 413.538552 285.271161 413.803755 285.536364 
C 414.068958 285.801567 414.428701 285.950577 414.803755 285.950577 
z
" clip-path="url(#p436f8a1db7)" style="fill: #d6dee2"/>
   </g>
   <g id="line2d_6">
    <path d="M 98.237388 306.680291 
L 498.195918 306.680291 
" clip-path="url(#p436f8a1db7)" style="fill: none; stroke: #d8e0e3; stroke-width: 0.55; stroke-linecap: square"/>
   </g>
   <g id="PathCollection_75">
    <path d="M 219.277469 317.116104 
C 219.652523 317.116104 220.012266 316.967094 220.277469 316.701891 
C 220.542672 316.436688 220.691683 316.076945 220.691683 315.701891 
C 220.691683 315.326837 220.542672 314.967094 220.277469 314.701891 
C 220.012266 314.436688 219.652523 314.287677 219.277469 314.287677 
C 218.902416 314.287677 218.542672 314.436688 218.277469 314.701891 
C 218.012266 314.967094 217.863256 315.326837 217.863256 315.701891 
C 217.863256 316.076945 218.012266 316.436688 218.277469 316.701891 
C 218.542672 316.967094 218.902416 317.116104 219.277469 317.116104 
z
" clip-path="url(#p436f8a1db7)" style="fill: #d6dee2"/>
   </g>
   <g id="PathCollection_76">
    <path d="M 247.209796 317.116104 
C 247.58485 317.116104 247.944593 316.967094 248.209796 316.701891 
C 248.474999 316.436688 248.624009 316.076945 248.624009 315.701891 
C 248.624009 315.326837 248.474999 314.967094 248.209796 314.701891 
C 247.944593 314.436688 247.58485 314.287677 247.209796 314.287677 
C 246.834742 314.287677 246.474999 314.436688 246.209796 314.701891 
C 245.944593 314.967094 245.795582 315.326837 245.795582 315.701891 
C 245.795582 316.076945 245.944593 316.436688 246.209796 316.701891 
C 246.474999 316.967094 246.834742 317.116104 247.209796 317.116104 
z
" clip-path="url(#p436f8a1db7)" style="fill: #d6dee2"/>
   </g>
   <g id="PathCollection_77">
    <path d="M 275.142122 317.116104 
C 275.517176 317.116104 275.876919 316.967094 276.142122 316.701891 
C 276.407326 316.436688 276.556336 316.076945 276.556336 315.701891 
C 276.556336 315.326837 276.407326 314.967094 276.142122 314.701891 
C 275.876919 314.436688 275.517176 314.287677 275.142122 314.287677 
C 274.767069 314.287677 274.407326 314.436688 274.142122 314.701891 
C 273.876919 314.967094 273.727909 315.326837 273.727909 315.701891 
C 273.727909 316.076945 273.876919 316.436688 274.142122 316.701891 
C 274.407326 316.967094 274.767069 317.116104 275.142122 317.116104 
z
" clip-path="url(#p436f8a1db7)" style="fill: #d6dee2"/>
   </g>
   <g id="PathCollection_78">
    <path d="M 386.871429 317.116104 
C 387.246482 317.116104 387.606225 316.967094 387.871429 316.701891 
C 388.136632 316.436688 388.285642 316.076945 388.285642 315.701891 
C 388.285642 315.326837 388.136632 314.967094 387.871429 314.701891 
C 387.606225 314.436688 387.246482 314.287677 386.871429 314.287677 
C 386.496375 314.287677 386.136632 314.436688 385.871429 314.701891 
C 385.606225 314.967094 385.457215 315.326837 385.457215 315.701891 
C 385.457215 316.076945 385.606225 316.436688 385.871429 316.701891 
C 386.136632 316.967094 386.496375 317.116104 386.871429 317.116104 
z
" clip-path="url(#p436f8a1db7)" style="fill: #d6dee2"/>
   </g>
   <g id="PathCollection_79">
    <path d="M 414.803755 317.116104 
C 415.178809 317.116104 415.538552 316.967094 415.803755 316.701891 
C 416.068958 316.436688 416.217969 316.076945 416.217969 315.701891 
C 416.217969 315.326837 416.068958 314.967094 415.803755 314.701891 
C 415.538552 314.436688 415.178809 314.287677 414.803755 314.287677 
C 414.428701 314.287677 414.068958 314.436688 413.803755 314.701891 
C 413.538552 314.967094 413.389542 315.326837 413.389542 315.701891 
C 413.389542 316.076945 413.538552 316.436688 413.803755 316.701891 
C 414.068958 316.967094 414.428701 317.116104 414.803755 317.116104 
z
" clip-path="url(#p436f8a1db7)" style="fill: #d6dee2"/>
   </g>
   <g id="PathCollection_80">
    <path d="M 219.277469 333.245632 
C 219.652523 333.245632 220.012266 333.096621 220.277469 332.831418 
C 220.542672 332.566215 220.691683 332.206472 220.691683 331.831418 
C 220.691683 331.456364 220.542672 331.096621 220.277469 330.831418 
C 220.012266 330.566215 219.652523 330.417205 219.277469 330.417205 
C 218.902416 330.417205 218.542672 330.566215 218.277469 330.831418 
C 218.012266 331.096621 217.863256 331.456364 217.863256 331.831418 
C 217.863256 332.206472 218.012266 332.566215 218.277469 332.831418 
C 218.542672 333.096621 218.902416 333.245632 219.277469 333.245632 
z
" clip-path="url(#p436f8a1db7)" style="fill: #d6dee2"/>
   </g>
   <g id="PathCollection_81">
    <path d="M 247.209796 333.245632 
C 247.58485 333.245632 247.944593 333.096621 248.209796 332.831418 
C 248.474999 332.566215 248.624009 332.206472 248.624009 331.831418 
C 248.624009 331.456364 248.474999 331.096621 248.209796 330.831418 
C 247.944593 330.566215 247.58485 330.417205 247.209796 330.417205 
C 246.834742 330.417205 246.474999 330.566215 246.209796 330.831418 
C 245.944593 331.096621 245.795582 331.456364 245.795582 331.831418 
C 245.795582 332.206472 245.944593 332.566215 246.209796 332.831418 
C 246.474999 333.096621 246.834742 333.245632 247.209796 333.245632 
z
" clip-path="url(#p436f8a1db7)" style="fill: #d6dee2"/>
   </g>
   <g id="PathCollection_82">
    <path d="M 331.006776 333.245632 
C 331.381829 333.245632 331.741572 333.096621 332.006776 332.831418 
C 332.271979 332.566215 332.420989 332.206472 332.420989 331.831418 
C 332.420989 331.456364 332.271979 331.096621 332.006776 330.831418 
C 331.741572 330.566215 331.381829 330.417205 331.006776 330.417205 
C 330.631722 330.417205 330.271979 330.566215 330.006776 330.831418 
C 329.741572 331.096621 329.592562 331.456364 329.592562 331.831418 
C 329.592562 332.206472 329.741572 332.566215 330.006776 332.831418 
C 330.271979 333.096621 330.631722 333.245632 331.006776 333.245632 
z
" clip-path="url(#p436f8a1db7)" style="fill: #d6dee2"/>
   </g>
   <g id="PathCollection_83">
    <path d="M 386.871429 333.245632 
C 387.246482 333.245632 387.606225 333.096621 387.871429 332.831418 
C 388.136632 332.566215 388.285642 332.206472 388.285642 331.831418 
C 388.285642 331.456364 388.136632 331.096621 387.871429 330.831418 
C 387.606225 330.566215 387.246482 330.417205 386.871429 330.417205 
C 386.496375 330.417205 386.136632 330.566215 385.871429 330.831418 
C 385.606225 331.096621 385.457215 331.456364 385.457215 331.831418 
C 385.457215 332.206472 385.606225 332.566215 385.871429 332.831418 
C 386.136632 333.096621 386.496375 333.245632 386.871429 333.245632 
z
" clip-path="url(#p436f8a1db7)" style="fill: #d6dee2"/>
   </g>
   <g id="PathCollection_84">
    <path d="M 414.803755 333.245632 
C 415.178809 333.245632 415.538552 333.096621 415.803755 332.831418 
C 416.068958 332.566215 416.217969 332.206472 416.217969 331.831418 
C 416.217969 331.456364 416.068958 331.096621 415.803755 330.831418 
C 415.538552 330.566215 415.178809 330.417205 414.803755 330.417205 
C 414.428701 330.417205 414.068958 330.566215 413.803755 330.831418 
C 413.538552 331.096621 413.389542 331.456364 413.389542 331.831418 
C 413.389542 332.206472 413.538552 332.566215 413.803755 332.831418 
C 414.068958 333.096621 414.428701 333.245632 414.803755 333.245632 
z
" clip-path="url(#p436f8a1db7)" style="fill: #d6dee2"/>
   </g>
   <g id="PathCollection_85">
    <path d="M 219.277469 349.375159 
C 219.652523 349.375159 220.012266 349.226149 220.277469 348.960945 
C 220.542672 348.695742 220.691683 348.335999 220.691683 347.960945 
C 220.691683 347.585892 220.542672 347.226149 220.277469 346.960945 
C 220.012266 346.695742 219.652523 346.546732 219.277469 346.546732 
C 218.902416 346.546732 218.542672 346.695742 218.277469 346.960945 
C 218.012266 347.226149 217.863256 347.585892 217.863256 347.960945 
C 217.863256 348.335999 218.012266 348.695742 218.277469 348.960945 
C 218.542672 349.226149 218.902416 349.375159 219.277469 349.375159 
z
" clip-path="url(#p436f8a1db7)" style="fill: #d6dee2"/>
   </g>
   <g id="PathCollection_86">
    <path d="M 247.209796 349.375159 
C 247.58485 349.375159 247.944593 349.226149 248.209796 348.960945 
C 248.474999 348.695742 248.624009 348.335999 248.624009 347.960945 
C 248.624009 347.585892 248.474999 347.226149 248.209796 346.960945 
C 247.944593 346.695742 247.58485 346.546732 247.209796 346.546732 
C 246.834742 346.546732 246.474999 346.695742 246.209796 346.960945 
C 245.944593 347.226149 245.795582 347.585892 245.795582 347.960945 
C 245.795582 348.335999 245.944593 348.695742 246.209796 348.960945 
C 246.474999 349.226149 246.834742 349.375159 247.209796 349.375159 
z
" clip-path="url(#p436f8a1db7)" style="fill: #d6dee2"/>
   </g>
   <g id="PathCollection_87">
    <path d="M 275.142122 349.375159 
C 275.517176 349.375159 275.876919 349.226149 276.142122 348.960945 
C 276.407326 348.695742 276.556336 348.335999 276.556336 347.960945 
C 276.556336 347.585892 276.407326 347.226149 276.142122 346.960945 
C 275.876919 346.695742 275.517176 346.546732 275.142122 346.546732 
C 274.767069 346.546732 274.407326 346.695742 274.142122 346.960945 
C 273.876919 347.226149 273.727909 347.585892 273.727909 347.960945 
C 273.727909 348.335999 273.876919 348.695742 274.142122 348.960945 
C 274.407326 349.226149 274.767069 349.375159 275.142122 349.375159 
z
" clip-path="url(#p436f8a1db7)" style="fill: #d6dee2"/>
   </g>
   <g id="PathCollection_88">
    <path d="M 303.074449 349.375159 
C 303.449503 349.375159 303.809246 349.226149 304.074449 348.960945 
C 304.339652 348.695742 304.488663 348.335999 304.488663 347.960945 
C 304.488663 347.585892 304.339652 347.226149 304.074449 346.960945 
C 303.809246 346.695742 303.449503 346.546732 303.074449 346.546732 
C 302.699395 346.546732 302.339652 346.695742 302.074449 346.960945 
C 301.809246 347.226149 301.660235 347.585892 301.660235 347.960945 
C 301.660235 348.335999 301.809246 348.695742 302.074449 348.960945 
C 302.339652 349.226149 302.699395 349.375159 303.074449 349.375159 
z
" clip-path="url(#p436f8a1db7)" style="fill: #d6dee2"/>
   </g>
   <g id="PathCollection_89">
    <path d="M 331.006776 349.375159 
C 331.381829 349.375159 331.741572 349.226149 332.006776 348.960945 
C 332.271979 348.695742 332.420989 348.335999 332.420989 347.960945 
C 332.420989 347.585892 332.271979 347.226149 332.006776 346.960945 
C 331.741572 346.695742 331.381829 346.546732 331.006776 346.546732 
C 330.631722 346.546732 330.271979 346.695742 330.006776 346.960945 
C 329.741572 347.226149 329.592562 347.585892 329.592562 347.960945 
C 329.592562 348.335999 329.741572 348.695742 330.006776 348.960945 
C 330.271979 349.226149 330.631722 349.375159 331.006776 349.375159 
z
" clip-path="url(#p436f8a1db7)" style="fill: #d6dee2"/>
   </g>
   <g id="PathCollection_90">
    <path d="M 386.871429 349.375159 
C 387.246482 349.375159 387.606225 349.226149 387.871429 348.960945 
C 388.136632 348.695742 388.285642 348.335999 388.285642 347.960945 
C 388.285642 347.585892 388.136632 347.226149 387.871429 346.960945 
C 387.606225 346.695742 387.246482 346.546732 386.871429 346.546732 
C 386.496375 346.546732 386.136632 346.695742 385.871429 346.960945 
C 385.606225 347.226149 385.457215 347.585892 385.457215 347.960945 
C 385.457215 348.335999 385.606225 348.695742 385.871429 348.960945 
C 386.136632 349.226149 386.496375 349.375159 386.871429 349.375159 
z
" clip-path="url(#p436f8a1db7)" style="fill: #d6dee2"/>
   </g>
   <g id="PathCollection_91">
    <path d="M 414.803755 349.375159 
C 415.178809 349.375159 415.538552 349.226149 415.803755 348.960945 
C 416.068958 348.695742 416.217969 348.335999 416.217969 347.960945 
C 416.217969 347.585892 416.068958 347.226149 415.803755 346.960945 
C 415.538552 346.695742 415.178809 346.546732 414.803755 346.546732 
C 414.428701 346.546732 414.068958 346.695742 413.803755 346.960945 
C 413.538552 347.226149 413.389542 347.585892 413.389542 347.960945 
C 413.389542 348.335999 413.538552 348.695742 413.803755 348.960945 
C 414.068958 349.226149 414.428701 349.375159 414.803755 349.375159 
z
" clip-path="url(#p436f8a1db7)" style="fill: #d6dee2"/>
   </g>
   <g id="PathCollection_92">
    <path d="M 219.277469 365.504686 
C 219.652523 365.504686 220.012266 365.355676 220.277469 365.090473 
C 220.542672 364.82527 220.691683 364.465527 220.691683 364.090473 
C 220.691683 363.715419 220.542672 363.355676 220.277469 363.090473 
C 220.012266 362.82527 219.652523 362.676259 219.277469 362.676259 
C 218.902416 362.676259 218.542672 362.82527 218.277469 363.090473 
C 218.012266 363.355676 217.863256 363.715419 217.863256 364.090473 
C 217.863256 364.465527 218.012266 364.82527 218.277469 365.090473 
C 218.542672 365.355676 218.902416 365.504686 219.277469 365.504686 
z
" clip-path="url(#p436f8a1db7)" style="fill: #d6dee2"/>
   </g>
   <g id="PathCollection_93">
    <path d="M 386.871429 365.504686 
C 387.246482 365.504686 387.606225 365.355676 387.871429 365.090473 
C 388.136632 364.82527 388.285642 364.465527 388.285642 364.090473 
C 388.285642 363.715419 388.136632 363.355676 387.871429 363.090473 
C 387.606225 362.82527 387.246482 362.676259 386.871429 362.676259 
C 386.496375 362.676259 386.136632 362.82527 385.871429 363.090473 
C 385.606225 363.355676 385.457215 363.715419 385.457215 364.090473 
C 385.457215 364.465527 385.606225 364.82527 385.871429 365.090473 
C 386.136632 365.355676 386.496375 365.504686 386.871429 365.504686 
z
" clip-path="url(#p436f8a1db7)" style="fill: #d6dee2"/>
   </g>
   <g id="line2d_7">
    <path d="M 4.32 393.068945 
L 498.195918 393.068945 
" clip-path="url(#p436f8a1db7)" style="fill: none; stroke: #26343e; stroke-width: 0.7; stroke-linecap: square"/>
   </g>
   <g id="text_1">
    <text style="font-weight: 700; font-size: 8px; font-family: 'DejaVu Sans', sans-serif; text-anchor: start; fill: #26343e" x="8.368163" y="24.823636" transform="rotate(-0 8.368163 24.823636)">SOURCE</text>
   </g>
   <g id="text_2">
    <text style="font-weight: 700; font-size: 8px; font-family: 'DejaVu Sans', sans-serif; text-anchor: start; fill: #26343e" x="100.666286" y="24.823636" transform="rotate(-0 100.666286 24.823636)">DOMAIN</text>
   </g>
   <g id="text_3">
    <text style="font-weight: 700; font-size: 8px; font-family: 'DejaVu Sans', sans-serif; text-anchor: middle; fill: #26343e" x="313.599673" y="24.823636" transform="rotate(-0 313.599673 24.823636)">DECISION FUNCTION</text>
   </g>
   <g id="text_4">
    <text style="font-weight: 700; font-size: 8px; font-family: 'DejaVu Sans', sans-serif; text-anchor: middle; fill: #26343e" x="447.998694" y="24.823636" transform="rotate(-0 447.998694 24.823636)">REF.</text>
   </g>
   <g id="text_5">
    <text style="font-weight: 700; font-size: 8px; font-family: 'DejaVu Sans', sans-serif; text-anchor: middle; fill: #26343e" x="479.169551" y="24.823636" transform="rotate(-0 479.169551 24.823636)">SUITES</text>
   </g>
   <g id="text_6">
    <text style="font-size: 6.7px; font-family: 'DejaVu Sans', sans-serif; fill: #26343e" transform="translate(209.473937 55.011559) rotate(-45)">Semantic</text>
   </g>
   <g id="text_7">
    <text style="font-size: 6.7px; font-family: 'DejaVu Sans', sans-serif; fill: #26343e" transform="translate(239.435295 52.982527) rotate(-45)">Routing</text>
   </g>
   <g id="text_8">
    <text style="font-size: 6.7px; font-family: 'DejaVu Sans', sans-serif; fill: #26343e" transform="translate(265.669853 54.680296) rotate(-45)">Evidence</text>
   </g>
   <g id="text_9">
    <text style="font-size: 6.7px; font-family: 'DejaVu Sans', sans-serif; fill: #26343e" transform="translate(295.811833 52.470642) rotate(-45)">Ordinal</text>
   </g>
   <g id="text_10">
    <text style="font-size: 6.7px; font-family: 'DejaVu Sans', sans-serif; fill: #26343e" transform="translate(324.736467 51.478334) rotate(-45)">Safety</text>
   </g>
   <g id="text_11">
    <text style="font-size: 6.7px; font-family: 'DejaVu Sans', sans-serif; fill: #26343e" transform="translate(349.369859 54.777269) rotate(-45)">Workflow</text>
   </g>
   <g id="text_12">
    <text style="font-size: 6.7px; font-family: 'DejaVu Sans', sans-serif; fill: #26343e" transform="translate(380.83504 51.244414) rotate(-45)">Reject</text>
   </g>
   <g id="text_13">
    <text style="font-size: 6.7px; font-family: 'DejaVu Sans', sans-serif; fill: #26343e" transform="translate(406.236444 53.775337) rotate(-45)">Retrieve</text>
   </g>
   <g id="text_14">
    <text style="font-weight: 700; font-size: 6.7px; font-family: 'DejaVu Sans', sans-serif; text-anchor: start; fill: #1f5b77" x="8.368163" y="68.499836" transform="rotate(-0 8.368163 68.499836)">LANGUAGE AND AFFECT</text>
   </g>
   <g id="text_15">
    <text style="font-weight: 500; font-size: 8.6px; font-family: 'DejaVu Sans', sans-serif; text-anchor: start; fill: #26343e" x="8.368163" y="80.506153" transform="rotate(-0 8.368163 80.506153)">AG News</text>
   </g>
   <g id="text_16">
    <text style="font-size: 8px; font-family: 'DejaVu Sans', sans-serif; text-anchor: start; fill: #62727c" x="100.666286" y="80.340591" transform="rotate(-0 100.666286 80.340591)">News</text>
   </g>
   <g id="PathCollection_94">
    <defs>
     <path id="m97bd598b8b" d="M 0 3.5 
C 0.928211 3.5 1.81853 3.131218 2.474874 2.474874 
C 3.131218 1.81853 3.5 0.928211 3.5 0 
C 3.5 -0.928211 3.131218 -1.81853 2.474874 -2.474874 
C 1.81853 -3.131218 0.928211 -3.5 0 -3.5 
C -0.928211 -3.5 -1.81853 -3.131218 -2.474874 -2.474874 
C -3.131218 -1.81853 -3.5 -0.928211 -3.5 0 
C -3.5 0.928211 -3.131218 1.81853 -2.474874 2.474874 
C -1.81853 3.131218 -0.928211 3.5 0 3.5 
z
" style="stroke: #ffffff; stroke-width: 0.45"/>
    </defs>
    <g clip-path="url(#p436f8a1db7)">
     <use xlink:href="#m97bd598b8b" x="219.277469" y="78.133091" style="fill: #1f5b77; stroke: #ffffff; stroke-width: 0.45"/>
    </g>
   </g>
   <g id="text_17">
    <text style="font-weight: 700; font-size: 7.8px; font-family: 'DejaVu Sans', sans-serif; text-anchor: middle; fill: #62727c" x="447.998694" y="80.285403" transform="rotate(-0 447.998694 80.285403)">D</text>
   </g>
   <g id="text_18">
    <text style="font-size: 8.2px; font-family: 'DejaVu Sans', sans-serif; text-anchor: middle; fill: #26343e" x="479.169551" y="80.395778" transform="rotate(-0 479.169551 80.395778)">1</text>
   </g>
   <g id="text_19">
    <text style="font-weight: 500; font-size: 8.6px; font-family: 'DejaVu Sans', sans-serif; text-anchor: start; fill: #26343e" x="8.368163" y="96.635681" transform="rotate(-0 8.368163 96.635681)">Emotion</text>
   </g>
   <g id="text_20">
    <text style="font-size: 8px; font-family: 'DejaVu Sans', sans-serif; text-anchor: start; fill: #62727c" x="100.666286" y="96.470118" transform="rotate(-0 100.666286 96.470118)">Social text</text>
   </g>
   <g id="PathCollection_95">
    <g clip-path="url(#p436f8a1db7)">
     <use xlink:href="#m97bd598b8b" x="219.277469" y="94.262618" style="fill: #1f5b77; stroke: #ffffff; stroke-width: 0.45"/>
    </g>
   </g>
   <g id="text_21">
    <text style="font-weight: 700; font-size: 7.8px; font-family: 'DejaVu Sans', sans-serif; text-anchor: middle; fill: #62727c" x="447.998694" y="96.414931" transform="rotate(-0 447.998694 96.414931)">D</text>
   </g>
   <g id="text_22">
    <text style="font-size: 8.2px; font-family: 'DejaVu Sans', sans-serif; text-anchor: middle; fill: #26343e" x="479.169551" y="96.525306" transform="rotate(-0 479.169551 96.525306)">1</text>
   </g>
   <g id="text_23">
    <text style="font-weight: 500; font-size: 8.6px; font-family: 'DejaVu Sans', sans-serif; text-anchor: start; fill: #26343e" x="8.368163" y="112.765208" transform="rotate(-0 8.368163 112.765208)">SST-5</text>
   </g>
   <g id="text_24">
    <text style="font-size: 8px; font-family: 'DejaVu Sans', sans-serif; text-anchor: start; fill: #62727c" x="100.666286" y="112.599645" transform="rotate(-0 100.666286 112.599645)">Reviews</text>
   </g>
   <g id="PathCollection_96">
    <g clip-path="url(#p436f8a1db7)">
     <use xlink:href="#m97bd598b8b" x="219.277469" y="110.392145" style="fill: #1f5b77; stroke: #ffffff; stroke-width: 0.45"/>
    </g>
   </g>
   <g id="PathCollection_97">
    <g clip-path="url(#p436f8a1db7)">
     <use xlink:href="#m97bd598b8b" x="303.074449" y="110.392145" style="fill: #1f5b77; stroke: #ffffff; stroke-width: 0.45"/>
    </g>
   </g>
   <g id="text_25">
    <text style="font-weight: 700; font-size: 7.8px; font-family: 'DejaVu Sans', sans-serif; text-anchor: middle; fill: #62727c" x="447.998694" y="112.544458" transform="rotate(-0 447.998694 112.544458)">D</text>
   </g>
   <g id="text_26">
    <text style="font-size: 8.2px; font-family: 'DejaVu Sans', sans-serif; text-anchor: middle; fill: #26343e" x="479.169551" y="112.654833" transform="rotate(-0 479.169551 112.654833)">2</text>
   </g>
   <g id="text_27">
    <text style="font-weight: 700; font-size: 6.7px; font-family: 'DejaVu Sans', sans-serif; text-anchor: start; fill: #1f5b77" x="8.368163" y="131.924418" transform="rotate(-0 8.368163 131.924418)">SERVICE AND ROUTING</text>
   </g>
   <g id="text_28">
    <text style="font-weight: 500; font-size: 8.6px; font-family: 'DejaVu Sans', sans-serif; text-anchor: start; fill: #26343e" x="8.368163" y="143.930735" transform="rotate(-0 8.368163 143.930735)">Banking77</text>
   </g>
   <g id="text_29">
    <text style="font-size: 8px; font-family: 'DejaVu Sans', sans-serif; text-anchor: start; fill: #62727c" x="100.666286" y="143.765173" transform="rotate(-0 100.666286 143.765173)">Banking support</text>
   </g>
   <g id="PathCollection_98">
    <g clip-path="url(#p436f8a1db7)">
     <use xlink:href="#m97bd598b8b" x="247.209796" y="141.557673" style="fill: #1f5b77; stroke: #ffffff; stroke-width: 0.45"/>
    </g>
   </g>
   <g id="text_30">
    <text style="font-weight: 700; font-size: 7.8px; font-family: 'DejaVu Sans', sans-serif; text-anchor: middle; fill: #62727c" x="447.998694" y="143.709985" transform="rotate(-0 447.998694 143.709985)">D</text>
   </g>
   <g id="text_31">
    <text style="font-size: 8.2px; font-family: 'DejaVu Sans', sans-serif; text-anchor: middle; fill: #26343e" x="479.169551" y="143.82036" transform="rotate(-0 479.169551 143.82036)">1</text>
   </g>
   <g id="text_32">
    <text style="font-weight: 500; font-size: 8.6px; font-family: 'DejaVu Sans', sans-serif; text-anchor: start; fill: #26343e" x="8.368163" y="160.060262" transform="rotate(-0 8.368163 160.060262)">MASSIVE</text>
   </g>
   <g id="text_33">
    <text style="font-size: 8px; font-family: 'DejaVu Sans', sans-serif; text-anchor: start; fill: #62727c" x="100.666286" y="159.8947" transform="rotate(-0 100.666286 159.8947)">Assistant commands</text>
   </g>
   <g id="PathCollection_99">
    <g clip-path="url(#p436f8a1db7)">
     <use xlink:href="#m97bd598b8b" x="247.209796" y="157.6872" style="fill: #1f5b77; stroke: #ffffff; stroke-width: 0.45"/>
    </g>
   </g>
   <g id="text_34">
    <text style="font-weight: 700; font-size: 7.8px; font-family: 'DejaVu Sans', sans-serif; text-anchor: middle; fill: #62727c" x="447.998694" y="159.839512" transform="rotate(-0 447.998694 159.839512)">D</text>
   </g>
   <g id="text_35">
    <text style="font-size: 8.2px; font-family: 'DejaVu Sans', sans-serif; text-anchor: middle; fill: #26343e" x="479.169551" y="159.949887" transform="rotate(-0 479.169551 159.949887)">2</text>
   </g>
   <g id="text_36">
    <text style="font-weight: 500; font-size: 8.6px; font-family: 'DejaVu Sans', sans-serif; text-anchor: start; fill: #26343e" x="8.368163" y="176.18979" transform="rotate(-0 8.368163 176.18979)">CLINC150/OOS</text>
   </g>
   <g id="text_37">
    <text style="font-size: 8px; font-family: 'DejaVu Sans', sans-serif; text-anchor: start; fill: #62727c" x="100.666286" y="176.024227" transform="rotate(-0 100.666286 176.024227)">Assistant intents</text>
   </g>
   <g id="PathCollection_100">
    <g clip-path="url(#p436f8a1db7)">
     <use xlink:href="#m97bd598b8b" x="247.209796" y="173.816727" style="fill: #1f5b77; stroke: #ffffff; stroke-width: 0.45"/>
    </g>
   </g>
   <g id="PathCollection_101">
    <g clip-path="url(#p436f8a1db7)">
     <use xlink:href="#m97bd598b8b" x="386.871429" y="173.816727" style="fill: #1f5b77; stroke: #ffffff; stroke-width: 0.45"/>
    </g>
   </g>
   <g id="text_38">
    <text style="font-weight: 700; font-size: 7.8px; font-family: 'DejaVu Sans', sans-serif; text-anchor: middle; fill: #62727c" x="447.998694" y="175.96904" transform="rotate(-0 447.998694 175.96904)">D</text>
   </g>
   <g id="text_39">
    <text style="font-size: 8.2px; font-family: 'DejaVu Sans', sans-serif; text-anchor: middle; fill: #26343e" x="479.169551" y="176.079415" transform="rotate(-0 479.169551 176.079415)">1</text>
   </g>
   <g id="text_40">
    <text style="font-weight: 700; font-size: 6.7px; font-family: 'DejaVu Sans', sans-serif; text-anchor: start; fill: #1f5b77" x="8.368163" y="195.348999" transform="rotate(-0 8.368163 195.348999)">EVIDENCE AND INFERENCE</text>
   </g>
   <g id="text_41">
    <text style="font-weight: 500; font-size: 8.6px; font-family: 'DejaVu Sans', sans-serif; text-anchor: start; fill: #26343e" x="8.368163" y="207.355317" transform="rotate(-0 8.368163 207.355317)">BoolQ</text>
   </g>
   <g id="text_42">
    <text style="font-size: 8px; font-family: 'DejaVu Sans', sans-serif; text-anchor: start; fill: #62727c" x="100.666286" y="207.189755" transform="rotate(-0 100.666286 207.189755)">General QA</text>
   </g>
   <g id="PathCollection_102">
    <g clip-path="url(#p436f8a1db7)">
     <use xlink:href="#m97bd598b8b" x="275.142122" y="204.982255" style="fill: #1f5b77; stroke: #ffffff; stroke-width: 0.45"/>
    </g>
   </g>
   <g id="text_43">
    <text style="font-weight: 700; font-size: 7.8px; font-family: 'DejaVu Sans', sans-serif; text-anchor: middle; fill: #62727c" x="447.998694" y="207.134567" transform="rotate(-0 447.998694 207.134567)">D</text>
   </g>
   <g id="text_44">
    <text style="font-size: 8.2px; font-family: 'DejaVu Sans', sans-serif; text-anchor: middle; fill: #26343e" x="479.169551" y="207.244942" transform="rotate(-0 479.169551 207.244942)">2</text>
   </g>
   <g id="text_45">
    <text style="font-weight: 500; font-size: 8.6px; font-family: 'DejaVu Sans', sans-serif; text-anchor: start; fill: #26343e" x="8.368163" y="223.484844" transform="rotate(-0 8.368163 223.484844)">XNLI</text>
   </g>
   <g id="text_46">
    <text style="font-size: 8px; font-family: 'DejaVu Sans', sans-serif; text-anchor: start; fill: #62727c" x="100.666286" y="223.319282" transform="rotate(-0 100.666286 223.319282)">Natural inference</text>
   </g>
   <g id="PathCollection_103">
    <g clip-path="url(#p436f8a1db7)">
     <use xlink:href="#m97bd598b8b" x="219.277469" y="221.111782" style="fill: #1f5b77; stroke: #ffffff; stroke-width: 0.45"/>
    </g>
   </g>
   <g id="PathCollection_104">
    <g clip-path="url(#p436f8a1db7)">
     <use xlink:href="#m97bd598b8b" x="275.142122" y="221.111782" style="fill: #1f5b77; stroke: #ffffff; stroke-width: 0.45"/>
    </g>
   </g>
   <g id="text_47">
    <text style="font-weight: 700; font-size: 7.8px; font-family: 'DejaVu Sans', sans-serif; text-anchor: middle; fill: #62727c" x="447.998694" y="223.264094" transform="rotate(-0 447.998694 223.264094)">D</text>
   </g>
   <g id="text_48">
    <text style="font-size: 8.2px; font-family: 'DejaVu Sans', sans-serif; text-anchor: middle; fill: #26343e" x="479.169551" y="223.374469" transform="rotate(-0 479.169551 223.374469)">2</text>
   </g>
   <g id="text_49">
    <text style="font-weight: 500; font-size: 8.6px; font-family: 'DejaVu Sans', sans-serif; text-anchor: start; fill: #26343e" x="8.368163" y="239.614372" transform="rotate(-0 8.368163 239.614372)">TurtleBench</text>
   </g>
   <g id="text_50">
    <text style="font-size: 8px; font-family: 'DejaVu Sans', sans-serif; text-anchor: start; fill: #62727c" x="100.666286" y="239.448809" transform="rotate(-0 100.666286 239.448809)">Puzzle evidence</text>
   </g>
   <g id="PathCollection_105">
    <g clip-path="url(#p436f8a1db7)">
     <use xlink:href="#m97bd598b8b" x="275.142122" y="237.241309" style="fill: #1f5b77; stroke: #ffffff; stroke-width: 0.45"/>
    </g>
   </g>
   <g id="text_51">
    <text style="font-weight: 700; font-size: 7.8px; font-family: 'DejaVu Sans', sans-serif; text-anchor: middle; fill: #62727c" x="447.998694" y="239.393622" transform="rotate(-0 447.998694 239.393622)">D</text>
   </g>
   <g id="text_52">
    <text style="font-size: 8.2px; font-family: 'DejaVu Sans', sans-serif; text-anchor: middle; fill: #26343e" x="479.169551" y="239.503997" transform="rotate(-0 479.169551 239.503997)">1</text>
   </g>
   <g id="text_53">
    <text style="font-weight: 700; font-size: 6.7px; font-family: 'DejaVu Sans', sans-serif; text-anchor: start; fill: #1f5b77" x="8.368163" y="258.773581" transform="rotate(-0 8.368163 258.773581)">SAFETY</text>
   </g>
   <g id="text_54">
    <text style="font-weight: 500; font-size: 8.6px; font-family: 'DejaVu Sans', sans-serif; text-anchor: start; fill: #26343e" x="8.368163" y="270.779899" transform="rotate(-0 8.368163 270.779899)">Prompt injections</text>
   </g>
   <g id="text_55">
    <text style="font-size: 8px; font-family: 'DejaVu Sans', sans-serif; text-anchor: start; fill: #62727c" x="100.666286" y="270.614336" transform="rotate(-0 100.666286 270.614336)">Prompt security</text>
   </g>
   <g id="PathCollection_106">
    <g clip-path="url(#p436f8a1db7)">
     <use xlink:href="#m97bd598b8b" x="331.006776" y="268.406836" style="fill: #1f5b77; stroke: #ffffff; stroke-width: 0.45"/>
    </g>
   </g>
   <g id="text_56">
    <text style="font-weight: 700; font-size: 7.8px; font-family: 'DejaVu Sans', sans-serif; text-anchor: middle; fill: #62727c" x="447.998694" y="270.559149" transform="rotate(-0 447.998694 270.559149)">D</text>
   </g>
   <g id="text_57">
    <text style="font-size: 8.2px; font-family: 'DejaVu Sans', sans-serif; text-anchor: middle; fill: #26343e" x="479.169551" y="270.669524" transform="rotate(-0 479.169551 270.669524)">1</text>
   </g>
   <g id="text_58">
    <text style="font-weight: 500; font-size: 8.6px; font-family: 'DejaVu Sans', sans-serif; text-anchor: start; fill: #26343e" x="8.368163" y="286.909426" transform="rotate(-0 8.368163 286.909426)">Aegis2 prompts</text>
   </g>
   <g id="text_59">
    <text style="font-size: 8px; font-family: 'DejaVu Sans', sans-serif; text-anchor: start; fill: #62727c" x="100.666286" y="286.743864" transform="rotate(-0 100.666286 286.743864)">Content safety</text>
   </g>
   <g id="PathCollection_107">
    <g clip-path="url(#p436f8a1db7)">
     <use xlink:href="#m97bd598b8b" x="331.006776" y="284.536364" style="fill: #1f5b77; stroke: #ffffff; stroke-width: 0.45"/>
    </g>
   </g>
   <g id="text_60">
    <text style="font-weight: 700; font-size: 7.8px; font-family: 'DejaVu Sans', sans-serif; text-anchor: middle; fill: #bd8a36" x="447.998694" y="286.688676" transform="rotate(-0 447.998694 286.688676)">H</text>
   </g>
   <g id="text_61">
    <text style="font-size: 8.2px; font-family: 'DejaVu Sans', sans-serif; text-anchor: middle; fill: #26343e" x="479.169551" y="286.799051" transform="rotate(-0 479.169551 286.799051)">1</text>
   </g>
   <g id="text_62">
    <text style="font-weight: 700; font-size: 6.7px; font-family: 'DejaVu Sans', sans-serif; text-anchor: start; fill: #1f5b77" x="8.368163" y="306.068636" transform="rotate(-0 8.368163 306.068636)">TYPED WORKFLOW FIXTURES</text>
   </g>
   <g id="text_63">
    <text style="font-weight: 500; font-size: 8.6px; font-family: 'DejaVu Sans', sans-serif; text-anchor: start; fill: #26343e" x="8.368163" y="318.074953" transform="rotate(-0 8.368163 318.074953)">Typed decisions</text>
   </g>
   <g id="text_64">
    <text style="font-size: 8px; font-family: 'DejaVu Sans', sans-serif; text-anchor: start; fill: #62727c" x="100.666286" y="317.909391" transform="rotate(-0 100.666286 317.909391)">Mixed enterprise</text>
   </g>
   <g id="PathCollection_108">
    <g clip-path="url(#p436f8a1db7)">
     <use xlink:href="#m97bd598b8b" x="303.074449" y="315.701891" style="fill: #1f5b77; stroke: #ffffff; stroke-width: 0.45"/>
    </g>
   </g>
   <g id="PathCollection_109">
    <g clip-path="url(#p436f8a1db7)">
     <use xlink:href="#m97bd598b8b" x="331.006776" y="315.701891" style="fill: #1f5b77; stroke: #ffffff; stroke-width: 0.45"/>
    </g>
   </g>
   <g id="PathCollection_110">
    <g clip-path="url(#p436f8a1db7)">
     <use xlink:href="#m97bd598b8b" x="358.939102" y="315.701891" style="fill: #1f5b77; stroke: #ffffff; stroke-width: 0.45"/>
    </g>
   </g>
   <g id="text_65">
    <text style="font-weight: 700; font-size: 7.8px; font-family: 'DejaVu Sans', sans-serif; text-anchor: middle; fill: #bd8a36" x="447.998694" y="317.854203" transform="rotate(-0 447.998694 317.854203)">T</text>
   </g>
   <g id="text_66">
    <text style="font-size: 8.2px; font-family: 'DejaVu Sans', sans-serif; text-anchor: middle; fill: #26343e" x="479.169551" y="317.964578" transform="rotate(-0 479.169551 317.964578)">1</text>
   </g>
   <g id="text_67">
    <text style="font-weight: 500; font-size: 8.6px; font-family: 'DejaVu Sans', sans-serif; text-anchor: start; fill: #26343e" x="8.368163" y="334.204481" transform="rotate(-0 8.368163 334.204481)">JevBench</text>
   </g>
   <g id="text_68">
    <text style="font-size: 8px; font-family: 'DejaVu Sans', sans-serif; text-anchor: start; fill: #62727c" x="100.666286" y="334.038918" transform="rotate(-0 100.666286 334.038918)">Mixed fixtures</text>
   </g>
   <g id="PathCollection_111">
    <g clip-path="url(#p436f8a1db7)">
     <use xlink:href="#m97bd598b8b" x="275.142122" y="331.831418" style="fill: #1f5b77; stroke: #ffffff; stroke-width: 0.45"/>
    </g>
   </g>
   <g id="PathCollection_112">
    <g clip-path="url(#p436f8a1db7)">
     <use xlink:href="#m97bd598b8b" x="303.074449" y="331.831418" style="fill: #1f5b77; stroke: #ffffff; stroke-width: 0.45"/>
    </g>
   </g>
   <g id="PathCollection_113">
    <g clip-path="url(#p436f8a1db7)">
     <use xlink:href="#m97bd598b8b" x="358.939102" y="331.831418" style="fill: #1f5b77; stroke: #ffffff; stroke-width: 0.45"/>
    </g>
   </g>
   <g id="text_69">
    <text style="font-weight: 700; font-size: 7.8px; font-family: 'DejaVu Sans', sans-serif; text-anchor: middle; fill: #bd8a36" x="447.998694" y="333.983731" transform="rotate(-0 447.998694 333.983731)">A</text>
   </g>
   <g id="text_70">
    <text style="font-size: 8.2px; font-family: 'DejaVu Sans', sans-serif; text-anchor: middle; fill: #26343e" x="479.169551" y="334.094106" transform="rotate(-0 479.169551 334.094106)">3</text>
   </g>
   <g id="text_71">
    <text style="font-weight: 500; font-size: 8.6px; font-family: 'DejaVu Sans', sans-serif; text-anchor: start; fill: #26343e" x="8.368163" y="350.334008" transform="rotate(-0 8.368163 350.334008)">ReflexBench</text>
   </g>
   <g id="text_72">
    <text style="font-size: 8px; font-family: 'DejaVu Sans', sans-serif; text-anchor: start; fill: #62727c" x="100.666286" y="350.168445" transform="rotate(-0 100.666286 350.168445)">Product workflow</text>
   </g>
   <g id="PathCollection_114">
    <g clip-path="url(#p436f8a1db7)">
     <use xlink:href="#m97bd598b8b" x="358.939102" y="347.960945" style="fill: #1f5b77; stroke: #ffffff; stroke-width: 0.45"/>
    </g>
   </g>
   <g id="text_73">
    <text style="font-weight: 700; font-size: 7.8px; font-family: 'DejaVu Sans', sans-serif; text-anchor: middle; fill: #bd8a36" x="447.998694" y="350.113258" transform="rotate(-0 447.998694 350.113258)">A</text>
   </g>
   <g id="text_74">
    <text style="font-size: 8.2px; font-family: 'DejaVu Sans', sans-serif; text-anchor: middle; fill: #26343e" x="479.169551" y="350.223633" transform="rotate(-0 479.169551 350.223633)">1</text>
   </g>
   <g id="text_75">
    <text style="font-weight: 500; font-size: 8.6px; font-family: 'DejaVu Sans', sans-serif; text-anchor: start; fill: #26343e" x="8.368163" y="366.463535" transform="rotate(-0 8.368163 366.463535)">Jev–Laya</text>
   </g>
   <g id="text_76">
    <text style="font-size: 8px; font-family: 'DejaVu Sans', sans-serif; text-anchor: start; fill: #62727c" x="100.666286" y="366.297973" transform="rotate(-0 100.666286 366.297973)">Mixed workflow</text>
   </g>
   <g id="PathCollection_115">
    <g clip-path="url(#p436f8a1db7)">
     <use xlink:href="#m97bd598b8b" x="247.209796" y="364.090473" style="fill: #1f5b77; stroke: #ffffff; stroke-width: 0.45"/>
    </g>
   </g>
   <g id="PathCollection_116">
    <g clip-path="url(#p436f8a1db7)">
     <use xlink:href="#m97bd598b8b" x="275.142122" y="364.090473" style="fill: #1f5b77; stroke: #ffffff; stroke-width: 0.45"/>
    </g>
   </g>
   <g id="PathCollection_117">
    <g clip-path="url(#p436f8a1db7)">
     <use xlink:href="#m97bd598b8b" x="303.074449" y="364.090473" style="fill: #1f5b77; stroke: #ffffff; stroke-width: 0.45"/>
    </g>
   </g>
   <g id="PathCollection_118">
    <g clip-path="url(#p436f8a1db7)">
     <use xlink:href="#m97bd598b8b" x="331.006776" y="364.090473" style="fill: #1f5b77; stroke: #ffffff; stroke-width: 0.45"/>
    </g>
   </g>
   <g id="PathCollection_119">
    <g clip-path="url(#p436f8a1db7)">
     <use xlink:href="#m97bd598b8b" x="358.939102" y="364.090473" style="fill: #1f5b77; stroke: #ffffff; stroke-width: 0.45"/>
    </g>
   </g>
   <g id="PathCollection_120">
    <g clip-path="url(#p436f8a1db7)">
     <use xlink:href="#m97bd598b8b" x="414.803755" y="364.090473" style="fill: #1f5b77; stroke: #ffffff; stroke-width: 0.45"/>
    </g>
   </g>
   <g id="text_77">
    <text style="font-weight: 700; font-size: 7.8px; font-family: 'DejaVu Sans', sans-serif; text-anchor: middle; fill: #bd8a36" x="447.998694" y="366.242785" transform="rotate(-0 447.998694 366.242785)">T/P</text>
   </g>
   <g id="text_78">
    <text style="font-size: 8.2px; font-family: 'DejaVu Sans', sans-serif; text-anchor: middle; fill: #26343e" x="479.169551" y="366.35316" transform="rotate(-0 479.169551 366.35316)">8</text>
   </g>
   <g id="text_79">
    <text style="font-size: 7.3px; font-family: 'DejaVu Sans', sans-serif; text-anchor: start; fill: #1f5b77" x="8.368163" y="403.284744" transform="rotate(-0 8.368163 403.284744)">●  Task appears in source</text>
   </g>
   <g id="text_80">
    <text style="font-size: 6.8px; font-family: 'DejaVu Sans', sans-serif; text-anchor: start; fill: #62727c" x="135.885306" y="403.146775" transform="rotate(-0 135.885306 403.146775)">D  dataset  ·  H  human prompt  ·  T  synthetic teacher  ·  A  authored/reviewed  ·  P  programmatic</text>
   </g>
  </g>
 </g>
 <defs>
  <clipPath id="p436f8a1db7">
   <rect x="4.32" y="4.32" width="495.9" height="405.972"/>
  </clipPath>
 </defs>
</svg>
